<?xml version="1.0" encoding="utf-8"?>
<!-- Generator: Adobe Illustrator 16.0.0, SVG Export Plug-In . SVG Version: 6.00 Build 0)  -->
<!DOCTYPE svg PUBLIC "-//W3C//DTD SVG 1.1//EN" "http://www.w3.org/Graphics/SVG/1.1/DTD/svg11.dtd">
<svg version="1.1" id="Layer_1" xmlns="http://www.w3.org/2000/svg" xmlns:xlink="http://www.w3.org/1999/xlink" x="0px" y="0px"
	 width="137px" height="77px" viewBox="0 0 137 77" enable-background="new 0 0 137 77" xml:space="preserve">
<g id="svgg">
	<path id="path1" fill="#293d68" d="M19.58,35.209c-4.832,0.034-6.174,0.141-4.452,0.356c0.396,0.049,0.856,0.199,1.021,0.333
		l0.3,0.243l0.041,5.843c0.055,7.837,0.039,7.955-1.134,8.112c-0.31,0.041-0.545,0.133-0.521,0.202
		c0.033,0.1,5.637,0.195,6.665,0.114c0.358-0.028-0.01-0.277-0.412-0.278c-1.634-0.002-1.709-0.177-1.775-4.118l-0.053-3.13h1.905
		c2.181,0,2.464,0.109,2.75,1.062c0.222,0.743,0.334,0.647,0.434-0.37c0.047-0.488,0.123-1.239,0.166-1.666l0.079-0.774
		l-0.411,0.304c-0.389,0.287-0.528,0.305-2.622,0.313l-2.211,0.012l-0.035-2.627c-0.02-1.445,0.011-2.674,0.07-2.732
		c0.058-0.058,1.065-0.06,2.238-0.004c2.425,0.115,2.749,0.25,2.829,1.185c0.064,0.751,0.338,0.667,0.42-0.131
		c0.225-2.199,0.229-2.347,0.055-2.315C24.831,35.159,22.425,35.189,19.58,35.209 M116.655,35.209
		c-4.629,0.034-5.917,0.138-4.319,0.35c0.404,0.054,0.797,0.208,1.021,0.401l0.365,0.313l0.038,5.185
		c0.06,7.958-0.018,8.509-1.211,8.643c-0.505,0.058-0.894,0.299-0.48,0.299c0.069,0,2.346,0.03,5.057,0.068
		c5.595,0.077,5.143,0.172,5.353-1.127c0.257-1.579,0.021-2.879-0.268-1.473c-0.24,1.176-0.901,1.513-2.968,1.51
		c-2.639-0.003-2.753-0.16-2.753-3.767v-2.659h2.022h2.021l0.317,0.37c0.206,0.24,0.318,0.533,0.318,0.835
		c0,0.648,0.319,0.508,0.363-0.16c0.018-0.285,0.093-0.983,0.163-1.553c0.154-1.232,0.106-1.357-0.39-0.99
		c-0.47,0.348-4.316,0.553-4.682,0.249c-0.206-0.173-0.312-4.7-0.12-5.198c0.092-0.238,1.272-0.271,3.183-0.088
		c1.267,0.122,1.552,0.308,1.766,1.156c0.262,1.042,0.361,0.771,0.578-1.573c0.075-0.811,0.061-0.887-0.159-0.858
		C121.739,35.159,119.392,35.189,116.655,35.209 M81.704,37.384c-0.034,0.163-0.109,2.975-0.168,6.247
		c-0.12,6.718-0.084,6.505-1.107,6.505c-0.275,0-0.535,0.06-0.58,0.132c-0.054,0.086,0.789,0.132,2.43,0.132
		c1.587,0,2.513-0.049,2.513-0.132c0-0.072-0.231-0.132-0.513-0.132c-1.175,0-1.271-0.384-1.396-5.602l-0.085-3.56l2.479,2.507
		c3.647,3.687,7.381,7.182,7.671,7.182c0.382,0,0.41-0.207,0.425-3.142c0.047-9.004,0.136-9.775,1.119-9.775
		c0.238,0,0.47-0.059,0.515-0.132c0.054-0.086-0.771-0.131-2.373-0.131c-1.602,0-2.425,0.045-2.372,0.131
		c0.045,0.073,0.309,0.132,0.586,0.132c1.166,0,1.277,0.636,1.315,7.444l0.01,1.975l-5.045-5.039
		C82.034,37.042,81.813,36.848,81.704,37.384 M43.621,37.428c-6.507,1.575-6.971,10.827-0.644,12.851
		c6.056,1.938,11.703-3.005,9.933-8.693C51.866,38.233,47.804,36.415,43.621,37.428 M102.189,37.425
		c-6.079,1.316-7.227,9.349-1.747,12.221c1.533,0.805,2.288,0.946,4.977,0.939c3.487-0.01,3.622-0.096,3.843-2.461
		c0.095-1.009-0.084-1.197-0.337-0.354c-0.748,2.497-5.506,2.532-7.769,0.058c-2.659-2.91-1.894-8.529,1.291-9.475
		c2.986-0.887,6.08,0.14,6.299,2.09c0.042,0.364,0.128,0.589,0.216,0.56c0.163-0.053,0.384-3.134,0.235-3.273
		C108.744,37.307,103.741,37.089,102.189,37.425 M72.962,37.45c-2.594,0.023-4.119,0.085-4.119,0.167c0,0.071,0.21,0.13,0.469,0.13
		c0.482,0,0.971,0.192,1.143,0.449c0.16,0.239,0.12,10.921-0.042,11.388c-0.366,1.05-2.391,0.766-3.764-0.529
		c-0.642-0.604-3.648-4.097-3.916-4.548c-0.06-0.101,0.229-0.48,0.765-1.005c2.312-2.268,1.953-5.016-0.763-5.822
		c-0.795-0.236-7.864-0.294-7.864-0.065c0,0.073,0.211,0.132,0.47,0.132c0.482,0,0.971,0.192,1.142,0.449
		c0.159,0.236,0.121,10.947-0.039,11.37c-0.174,0.46-0.34,0.566-0.881,0.569c-0.236,0.001-0.429,0.062-0.429,0.134
		c0,0.083,1.011,0.132,2.769,0.132s2.768-0.049,2.768-0.132c0-0.072-0.256-0.132-0.568-0.132c-1.094,0-1.244-0.41-1.266-3.452
		c-0.013-1.775-0.054-1.719,1.162-1.604l0.928,0.085l1.268,1.748c2.681,3.701,1.985,3.444,9.546,3.506l5.995,0.047l0.167-0.348
		c0.222-0.462,0.383-2.354,0.201-2.354c-0.074,0-0.199,0.256-0.278,0.568c-0.265,1.053-1.513,1.483-3.394,1.171
		c-1.438-0.238-1.438-0.235-1.438-3.094v-2.402h1.667c1.877,0,2.143,0.108,2.299,0.941c0.123,0.648,0.316,0.54,0.328-0.184
		c0.005-0.344,0.057-0.952,0.114-1.351c0.127-0.871,0.066-1.019-0.282-0.701c-0.23,0.209-0.516,0.239-2.195,0.239h-1.931v-2.24
		v-2.241l1.449-0.041c2.122-0.059,2.834,0.266,2.834,1.294c0,0.695,0.242,0.028,0.323-0.889c0.049-0.562,0.119-1.127,0.156-1.254
		c0.053-0.185-0.007-0.225-0.306-0.2C77.248,37.399,75.227,37.429,72.962,37.45 M27.917,37.614c0.044,0.073,0.279,0.132,0.52,0.132
		c0.242,0,0.58,0.114,0.75,0.252l0.311,0.252v5.586c0,6.309,0.001,6.299-0.918,6.299c-0.247,0-0.481,0.05-0.519,0.11
		c-0.08,0.128,8.407,0.324,8.847,0.205c0.343-0.095,0.382-0.199,0.564-1.491c0.133-0.948-0.005-1.617-0.203-0.988
		c-0.435,1.377-0.787,1.549-3.049,1.484c-1.475-0.041-1.644-0.071-1.917-0.346l-0.3-0.3l-0.038-5.264
		c-0.042-5.987-0.076-5.801,1.018-5.801c0.286,0,0.556-0.059,0.601-0.132c0.054-0.086-0.924-0.131-2.834-0.131
		C28.841,37.483,27.863,37.528,27.917,37.614 M46.637,38.214c5.088,1.325,5.472,10.576,0.478,11.522
		c-3.437,0.652-6.249-2.501-6.05-6.784C41.237,39.265,43.449,37.384,46.637,38.214 M61.264,38.522
		c1.88,0.867,2.181,4.203,0.482,5.357c-0.523,0.355-2.141,0.47-2.666,0.188c-0.259-0.138-0.415-5.458-0.167-5.706
		C59.104,38.17,60.743,38.282,61.264,38.522 M106.145,53.562c0,0.703,0.053,1.187,0.131,1.187c0.077,0,0.132-0.483,0.132-1.187
		s-0.055-1.187-0.132-1.187C106.197,52.376,106.145,52.859,106.145,53.562 M107.066,52.508c0,0.072,0.207,0.132,0.461,0.132h0.462
		v1.055c0,0.85,0.038,1.055,0.197,1.055s0.198-0.205,0.198-1.055V52.64h0.46c0.255,0,0.462-0.06,0.462-0.132
		c0-0.077-0.462-0.132-1.12-0.132C107.527,52.376,107.066,52.431,107.066,52.508 M110.142,53.064
		c-0.157,0.383-0.38,0.918-0.496,1.19c-0.184,0.432-0.186,0.494-0.013,0.494c0.108,0,0.233-0.148,0.279-0.329
		c0.073-0.294,0.15-0.33,0.706-0.33c0.537,0,0.645,0.046,0.773,0.33c0.143,0.311,0.42,0.456,0.42,0.219
		c0-0.061-0.204-0.578-0.453-1.152C110.787,52.17,110.543,52.085,110.142,53.064 M112.603,53.562v1.187l0.889-0.024
		c0.835-0.022,0.847-0.028,0.198-0.073l-0.691-0.048V53.49c0-0.902-0.038-1.114-0.198-1.114
		C112.639,52.376,112.603,52.596,112.603,53.562 M114.447,52.458c0,0.045,0.208,0.364,0.461,0.709
		c0.327,0.444,0.462,0.768,0.462,1.105c0,0.262,0.059,0.477,0.132,0.477c0.072,0,0.132-0.233,0.132-0.52s0.046-0.547,0.103-0.582
		c0.282-0.175,0.953-1.271,0.777-1.271c-0.104,0-0.369,0.277-0.59,0.616l-0.4,0.615l-0.372-0.615
		C114.836,52.47,114.447,52.175,114.447,52.458 M110.932,53.266l0.219,0.561h-0.46c-0.253,0-0.461-0.052-0.461-0.116
		c0-0.162,0.403-1.108,0.448-1.052C110.697,52.686,110.812,52.958,110.932,53.266"/>
	<path id="path2" fill="#646568" d="M19.713,36.391c0.201,0.03,0.497,0.029,0.66-0.002c0.162-0.031-0.002-0.056-0.364-0.055
		C19.646,36.335,19.513,36.361,19.713,36.391 M117.845,36.392c0.236,0.029,0.592,0.028,0.79-0.001s0.004-0.054-0.431-0.054
		C117.769,36.338,117.607,36.363,117.845,36.392 M116.48,39.063c0,1.415,0.02,1.993,0.043,1.286s0.023-1.864,0-2.57
		S116.48,37.651,116.48,39.063 M113.717,42.161c0,2.973,0.018,4.207,0.038,2.744c0.021-1.464,0.021-3.895,0-5.403
		C113.734,37.993,113.717,39.189,113.717,42.161 M45.611,37.181c0.164,0.031,0.43,0.031,0.594,0c0.163-0.032,0.03-0.058-0.297-0.058
		S45.448,37.149,45.611,37.181 M104.465,37.182c0.2,0.03,0.497,0.029,0.659-0.002s-0.002-0.056-0.364-0.055
		S104.265,37.151,104.465,37.182 M28.48,37.448c0.31,0.027,0.785,0.027,1.055-0.001s0.016-0.051-0.563-0.051
		C28.391,37.396,28.169,37.419,28.48,37.448 M31.903,37.447c0.308,0.028,0.812,0.028,1.121,0s0.056-0.05-0.56-0.05
		C31.847,37.397,31.595,37.419,31.903,37.447 M54.825,37.45c-0.034,0.055,0.304,0.083,0.75,0.062
		c1.454-0.066,1.625-0.119,0.457-0.141C55.403,37.36,54.858,37.395,54.825,37.45 M59.122,37.448c0.417,0.026,1.099,0.026,1.516,0
		c0.417-0.026,0.076-0.047-0.758-0.047C59.046,37.401,58.705,37.422,59.122,37.448 M68.797,37.45
		c-0.034,0.055,0.302,0.083,0.749,0.062c1.454-0.066,1.626-0.119,0.457-0.141C69.373,37.36,68.831,37.395,68.797,37.45
		 M90.824,37.448c0.31,0.027,0.785,0.027,1.055-0.001s0.017-0.051-0.564-0.051C90.735,37.396,90.515,37.419,90.824,37.448
		 M93.586,37.446c0.234,0.029,0.649,0.029,0.922,0.001c0.274-0.029,0.083-0.052-0.425-0.053
		C93.575,37.394,93.352,37.417,93.586,37.446 M104.268,38.105c0.237,0.029,0.593,0.029,0.791-0.001
		c0.197-0.03,0.004-0.054-0.431-0.053C104.193,38.051,104.031,38.076,104.268,38.105 M29.466,38.999
		c0.001,0.29,0.028,0.393,0.06,0.229s0.031-0.401-0.002-0.527C29.49,38.575,29.464,38.708,29.466,38.999 M62.81,41.305
		c0,0.254,0.027,0.357,0.061,0.23c0.032-0.127,0.032-0.334,0-0.461C62.837,40.947,62.81,41.051,62.81,41.305 M81.542,42.491
		c0,0.616,0.022,0.868,0.05,0.56c0.028-0.308,0.028-0.812,0-1.12C81.564,41.623,81.542,41.875,81.542,42.491 M19.399,41.737
		c0.057,0.058,0.87,0.085,1.806,0.065l1.703-0.038L21.102,41.7C20.108,41.664,19.342,41.681,19.399,41.737 M117.517,41.799
		c0.493,0.024,1.265,0.023,1.714-0.001c0.451-0.025,0.048-0.046-0.895-0.046C117.393,41.752,117.024,41.772,117.517,41.799
		 M92.081,43.216c0.001,0.436,0.025,0.597,0.055,0.36c0.029-0.237,0.029-0.593-0.001-0.791S92.08,42.781,92.081,43.216
		 M84.396,42.664c0,0.022,0.192,0.215,0.428,0.429l0.429,0.387l-0.387-0.429C84.504,42.651,84.396,42.562,84.396,42.664
		 M53.197,43.677c0,0.398,0.025,0.562,0.056,0.362c0.03-0.199,0.03-0.525,0-0.724C53.222,43.116,53.197,43.278,53.197,43.677
		 M82.85,43.546c0,0.325,0.025,0.459,0.057,0.296c0.032-0.162,0.032-0.43,0-0.594C82.875,43.087,82.85,43.22,82.85,43.546
		 M116.479,45.392c0,1.34,0.02,1.89,0.043,1.218c0.024-0.67,0.024-1.768,0-2.438C116.499,43.501,116.479,44.05,116.479,45.392
		 M24.322,43.941c0,0.254,0.028,0.357,0.061,0.23c0.033-0.127,0.033-0.335,0-0.462C24.35,43.583,24.322,43.688,24.322,43.941
		 M50.562,44.271c0,0.435,0.025,0.598,0.054,0.36c0.03-0.237,0.029-0.593-0.001-0.791C50.586,43.643,50.562,43.835,50.562,44.271
		 M93.401,44.798c0.001,0.507,0.024,0.698,0.053,0.426c0.029-0.273,0.028-0.689,0-0.923C93.424,44.066,93.401,44.291,93.401,44.798
		 M58.908,45.1c-0.035,0.058,0.139,0.08,0.387,0.052c0.249-0.029,0.453-0.075,0.453-0.104C59.749,44.948,58.972,44.996,58.908,45.1
		 M87.428,45.72c0.245,0.254,0.477,0.463,0.513,0.463s-0.136-0.209-0.382-0.463c-0.246-0.253-0.477-0.46-0.513-0.46
		C87.009,45.26,87.181,45.467,87.428,45.72 M29.474,47.829c0,0.435,0.025,0.597,0.054,0.359c0.029-0.236,0.029-0.592-0.001-0.789
		C29.496,47.199,29.473,47.395,29.474,47.829 M58.858,47.961c0.001,0.29,0.029,0.393,0.06,0.229c0.032-0.164,0.03-0.402-0.002-0.527
		C58.882,47.536,58.856,47.671,58.858,47.961 M82.979,47.961c0.001,0.29,0.028,0.393,0.061,0.229
		c0.031-0.164,0.03-0.402-0.003-0.527C83.003,47.536,82.978,47.671,82.979,47.961 M119.094,49.436c0.127,0.033,0.334,0.033,0.461,0
		s0.022-0.06-0.23-0.06C119.07,49.376,118.967,49.402,119.094,49.436 M75.007,49.572c0.236,0.029,0.593,0.028,0.79-0.001
		c0.199-0.031,0.005-0.055-0.431-0.054C74.932,49.519,74.77,49.543,75.007,49.572 M55.123,50.44
		c0.059,0.058,0.426,0.087,0.817,0.064l0.71-0.043l-0.817-0.064C55.383,50.361,55.063,50.381,55.123,50.44 M59.682,50.399
		l-1.054,0.083l1.014,0.025c0.561,0.013,1.049-0.035,1.095-0.108c0.044-0.072,0.062-0.121,0.041-0.108
		C60.755,50.305,60.262,50.354,59.682,50.399 M83.868,50.399l-0.988,0.085l0.947,0.023c0.521,0.013,0.984-0.036,1.029-0.108
		s0.063-0.121,0.041-0.108C84.875,50.305,84.412,50.353,83.868,50.399 M15.955,50.492c0.164,0.032,0.43,0.032,0.593,0
		c0.163-0.031,0.03-0.057-0.297-0.057C15.925,50.436,15.792,50.461,15.955,50.492 M19.317,50.493
		c0.201,0.031,0.497,0.03,0.659-0.001c0.162-0.031-0.001-0.057-0.364-0.056C19.25,50.438,19.118,50.464,19.317,50.493
		 M28.412,50.493c0.201,0.031,0.497,0.03,0.66-0.001c0.162-0.031-0.002-0.057-0.364-0.056
		C28.345,50.438,28.212,50.464,28.412,50.493 M32.828,50.493c0.164,0.031,0.401,0.029,0.528-0.003
		c0.125-0.033-0.009-0.059-0.298-0.058S32.664,50.461,32.828,50.493 M66.903,50.497c0.42,0.026,1.072,0.025,1.45-0.001
		s0.035-0.048-0.763-0.047C66.792,50.449,66.484,50.47,66.903,50.497 M69.402,50.493c0.199,0.031,0.525,0.031,0.725,0
		c0.199-0.029,0.036-0.055-0.361-0.055C69.366,50.438,69.203,50.464,69.402,50.493 M73.688,50.493
		c0.163,0.031,0.401,0.029,0.527-0.003c0.126-0.033-0.008-0.059-0.298-0.058S73.523,50.461,73.688,50.493 M80.276,50.494
		c0.235,0.03,0.621,0.03,0.856,0c0.236-0.029,0.043-0.053-0.428-0.053C80.233,50.441,80.041,50.465,80.276,50.494 M113.031,50.49
		c0.126,0.033,0.334,0.033,0.46,0c0.128-0.033,0.023-0.061-0.23-0.061S112.903,50.457,113.031,50.49 M116.919,50.492
		c0.162,0.032,0.43,0.032,0.593,0c0.163-0.031,0.029-0.057-0.296-0.057C116.889,50.436,116.756,50.461,116.919,50.492
		 M106.434,53.519c-0.018,0.821-0.079,1.229-0.19,1.275c-0.13,0.052-0.129,0.068,0.003,0.077c0.261,0.016,0.308-0.249,0.26-1.451
		l-0.045-1.11L106.434,53.519 M115.292,54.254c0.018,0.819,0.402,0.789,0.422-0.031l0.015-0.594l-0.056,0.561
		c-0.068,0.708-0.271,0.726-0.341,0.031l-0.054-0.529L115.292,54.254 M112.962,54.844c0.233,0.03,0.649,0.03,0.922,0.002
		c0.274-0.029,0.083-0.054-0.425-0.054S112.728,54.815,112.962,54.844"/>
	<path id="path3" fill="#4E6093" d="M86.307,22.256c-1.026,0.229-1.699,0.531-3.229,1.45c-1.741,1.046-6.137,3.181-8.502,4.128
		c-6.955,2.788-11.502,3.234-16.08,1.578c-3.365-1.217-4.034-1.425-5.601-1.742c-4.369-0.882-8.166-0.718-13.547,0.585
		c-3.768,0.913-9.783,3.276-9.783,3.844c0,0.221,0.513,0.077,3.515-0.992c9.846-3.503,16.519-3.75,23.769-0.875
		c4.457,1.767,7.154,2.113,10.763,1.382c3.847-0.779,9.934-3.228,14.814-5.958c2.772-1.552,3.168-1.738,4.036-1.898
		c2.407-0.444,4.876,1.243,5.714,3.904c0.482,1.533,1.662,3.245,2.525,3.664c0.616,0.298,0.617,0.18,0.003-0.486
		c-0.702-0.762-1.194-1.766-1.802-3.673C91.722,23.464,89.226,21.605,86.307,22.256 M103.378,26.6
		c-0.331,0.117-0.604,0.125-0.976,0.032c-0.391-0.099-0.676-0.082-1.188,0.073c-0.37,0.113-1.163,0.296-1.762,0.407
		c-1.005,0.187-4,1.437-3.836,1.601c0.032,0.033,0.598-0.113,1.255-0.325c1.293-0.415,2.552-0.657,3.437-0.658
		c0.306-0.001,0.786-0.093,1.065-0.205c0.376-0.15,0.644-0.172,1.027-0.086c0.356,0.08,0.67,0.064,0.999-0.05
		c0.387-0.133,0.591-0.133,1.043,0l0.562,0.166l-0.452,0.157c-0.874,0.305-1.421,0.807-2.936,2.696
		c-1.677,2.091-2.553,2.874-4.021,3.59c-1.25,0.611-1.137,0.713,0.215,0.192c1.838-0.709,2.76-1.445,4.839-3.866
		c2.241-2.609,4.949-2.319,6.43,0.688c0.588,1.196,0.612,2.825,0.059,4.016c-0.442,0.955-0.444,0.999-0.017,0.6
		c2.871-2.682,0.979-7.223-3.638-8.73C104.102,26.444,103.897,26.416,103.378,26.6 M85.245,28.762
		c-4.48,2.165-11.093,4.197-14.864,4.569c-1.012,0.099-1.045,0.193-0.123,0.335c2.104,0.326,7.187-0.914,12.682-3.094
		c1.163-0.461,2.115-0.793,2.115-0.738s-0.09,0.353-0.198,0.661c-0.289,0.818-0.236,0.915,0.214,0.396
		c0.57-0.659,1.565-2.637,1.325-2.637C86.339,28.256,85.821,28.483,85.245,28.762 M15.032,35.207c0.308,0.028,0.812,0.028,1.121,0
		s0.056-0.05-0.56-0.05C14.976,35.156,14.724,35.179,15.032,35.207 M112.306,35.207c0.309,0.028,0.812,0.028,1.121,0
		c0.308-0.028,0.056-0.05-0.562-0.05C112.25,35.156,111.998,35.179,112.306,35.207 M116.853,36.387c0.128,0.033,0.335,0.033,0.462,0
		c0.126-0.033,0.022-0.06-0.231-0.06S116.726,36.354,116.853,36.387 M16.421,37.153c0.001,0.362,0.026,0.495,0.057,0.295
		s0.03-0.497-0.001-0.659C16.445,36.626,16.42,36.791,16.421,37.153 M83.012,38.01c0.431,0.435,0.812,0.792,0.849,0.792
		c0.035,0-0.286-0.356-0.717-0.792c-0.432-0.435-0.813-0.791-0.85-0.791C82.259,37.219,82.581,37.575,83.012,38.01 M30.325,37.447
		c0.237,0.029,0.592,0.028,0.79-0.002c0.199-0.03,0.005-0.054-0.431-0.053C30.25,37.393,30.087,37.417,30.325,37.447 M57.408,37.445
		c0.2,0.03,0.525,0.03,0.726,0c0.198-0.03,0.036-0.055-0.363-0.055S57.209,37.415,57.408,37.445 M72.427,37.449
		c0.775,0.023,2.08,0.023,2.899,0c0.82-0.023,0.186-0.042-1.409-0.042S71.65,37.426,72.427,37.449 M92.535,37.444
		c0.164,0.031,0.402,0.03,0.527-0.003c0.127-0.033-0.008-0.059-0.297-0.058C92.475,37.385,92.372,37.413,92.535,37.444
		 M45.15,38.101c0.127,0.033,0.335,0.033,0.461,0c0.127-0.033,0.023-0.06-0.23-0.06S45.023,38.067,45.15,38.101 M58.851,41.198
		c-0.014,1.499,0.019,2.755,0.073,2.789c0.054,0.033,0.083-0.778,0.064-1.805C58.927,38.786,58.878,38.436,58.851,41.198
		 M72.982,40.712c0,1.231,0.02,1.755,0.044,1.159c0.024-0.595,0.024-1.603,0-2.24C73.003,38.993,72.982,39.479,72.982,40.712
		 M91.938,39.328c0,0.254,0.027,0.357,0.061,0.23s0.033-0.334,0-0.461S91.938,39.074,91.938,39.328 M93.531,39.657
		c0,0.435,0.025,0.597,0.055,0.36c0.029-0.237,0.028-0.593-0.002-0.791C93.555,39.028,93.53,39.223,93.531,39.657 M109.214,39.789
		c0,0.362,0.025,0.495,0.056,0.295s0.029-0.497-0.001-0.659C109.237,39.263,109.212,39.427,109.214,39.789 M29.49,43.281
		c0,2.139,0.019,3.014,0.041,1.944s0.022-2.818,0-3.888S29.49,41.143,29.49,43.281 M81.541,40.448c0,0.58,0.023,0.801,0.051,0.49
		c0.028-0.31,0.028-0.784-0.001-1.055C81.562,39.614,81.54,39.868,81.541,40.448 M82.852,42.426
		c0.001,0.361,0.027,0.494,0.057,0.294c0.03-0.201,0.029-0.497-0.002-0.658C82.875,41.898,82.851,42.062,82.852,42.426
		 M89.074,44.072c0.94,0.943,1.739,1.715,1.775,1.715s-0.703-0.771-1.644-1.715c-0.94-0.941-1.739-1.713-1.775-1.713
		S88.134,43.131,89.074,44.072 M74.74,44.034c0.163,0.031,0.43,0.031,0.594,0c0.163-0.031,0.029-0.058-0.297-0.058
		S74.577,44.003,74.74,44.034 M92.079,44.6c0,0.399,0.025,0.562,0.056,0.363s0.03-0.526,0-0.726
		C92.104,44.039,92.079,44.201,92.079,44.6 M72.982,46.183c0,1.194,0.02,1.685,0.044,1.086c0.024-0.598,0.024-1.576,0-2.174
		C73.002,44.496,72.982,44.985,72.982,46.183 M58.872,46.379c0,0.652,0.022,0.937,0.05,0.631c0.027-0.307,0.027-0.84,0-1.187
		C58.895,45.476,58.872,45.727,58.872,46.379 M93.403,46.577c0,0.543,0.022,0.766,0.051,0.494c0.029-0.271,0.029-0.717,0-0.988
		C93.426,45.811,93.403,46.033,93.403,46.577 M87.954,46.224c0,0.021,0.193,0.215,0.429,0.427l0.428,0.388l-0.387-0.429
		C88.062,46.211,87.954,46.121,87.954,46.224 M82.981,46.972c0,0.327,0.025,0.46,0.058,0.297c0.031-0.163,0.031-0.43,0-0.593
		C83.007,46.513,82.981,46.646,82.981,46.972 M16.425,47.367c0,0.472,0.024,0.665,0.054,0.429c0.029-0.235,0.029-0.62,0-0.856
		C16.45,46.703,16.425,46.896,16.425,47.367 M19.319,47.367c0,0.327,0.026,0.461,0.057,0.297c0.032-0.163,0.032-0.43,0-0.593
		C19.345,46.908,19.319,47.041,19.319,47.367 M81.403,48.29c0,0.398,0.024,0.562,0.055,0.362c0.03-0.198,0.03-0.524,0-0.725
		C81.428,47.729,81.403,47.892,81.403,48.29 M17.342,50.496c0.347,0.027,0.881,0.027,1.187-0.001c0.306-0.026,0.022-0.05-0.63-0.05
		C17.247,50.446,16.996,50.469,17.342,50.496 M30.13,50.497c0.492,0.025,1.263,0.024,1.713,0c0.45-0.026,0.047-0.047-0.895-0.046
		C30.006,50.451,29.638,50.472,30.13,50.497 M57.079,50.496c0.309,0.027,0.812,0.027,1.121,0c0.308-0.027,0.056-0.051-0.561-0.051
		S56.771,50.469,57.079,50.496 M71.187,50.497c0.456,0.025,1.168,0.025,1.582,0c0.414-0.027,0.041-0.048-0.829-0.048
		S70.73,50.472,71.187,50.497 M81.86,50.494c0.237,0.03,0.593,0.029,0.791-0.001c0.198-0.029,0.004-0.054-0.431-0.053
		C81.786,50.44,81.623,50.465,81.86,50.494 M114.42,50.497c0.456,0.025,1.168,0.025,1.582,0c0.413-0.027,0.04-0.048-0.83-0.048
		C114.303,50.449,113.964,50.472,114.42,50.497 M45.35,50.759c0.237,0.029,0.593,0.028,0.791-0.002
		c0.198-0.029,0.004-0.055-0.431-0.053C45.275,50.704,45.113,50.729,45.35,50.759 M104.858,50.759c0.271,0.028,0.717,0.028,0.989,0
		c0.271-0.028,0.049-0.052-0.495-0.052S104.587,50.73,104.858,50.759 M106.06,53.562c0,0.688,0.021,0.971,0.049,0.627
		c0.027-0.345,0.027-0.908,0-1.253C106.081,52.593,106.06,52.874,106.06,53.562 M113.056,53.497l0.007,1.054l0.682,0.068
		c0.375,0.038,0.653,0.023,0.619-0.032c-0.036-0.056-0.324-0.101-0.644-0.101h-0.58l-0.046-1.022l-0.047-1.021L113.056,53.497
		 M108.431,53.694c0,0.616,0.022,0.868,0.051,0.561c0.027-0.309,0.027-0.812,0-1.121C108.453,52.826,108.431,53.078,108.431,53.694"
		/>
	<path id="path4" fill="#C6C7C9" d="M90.591,23.289c0,0.022,0.192,0.215,0.428,0.428l0.429,0.387l-0.388-0.429
		C90.699,23.276,90.591,23.187,90.591,23.289 M86.999,23.736c0.162,0.031,0.43,0.031,0.593,0s0.029-0.057-0.297-0.057
		S86.836,23.705,86.999,23.736 M90.722,25.29c0.246,0.254,0.477,0.462,0.514,0.462c0.036,0-0.136-0.208-0.382-0.462
		c-0.245-0.253-0.477-0.461-0.513-0.461S90.476,25.037,90.722,25.29 M49.104,27.161c0.126,0.033,0.334,0.033,0.461,0
		c0.127-0.033,0.023-0.06-0.23-0.06C49.081,27.101,48.978,27.127,49.104,27.161 M99.786,27.825c0.237,0.029,0.593,0.028,0.792-0.001
		c0.196-0.03,0.003-0.054-0.432-0.054C99.711,27.771,99.55,27.795,99.786,27.825 M46.601,28.354c0.489,0.026,1.29,0.026,1.779,0
		c0.49-0.025,0.089-0.046-0.89-0.046C46.511,28.308,46.111,28.329,46.601,28.354 M44.096,28.479c0.127,0.033,0.334,0.033,0.461,0
		c0.127-0.034,0.023-0.061-0.231-0.061C44.073,28.418,43.969,28.445,44.096,28.479 M103.104,29.805l-0.454,0.494l0.494-0.454
		c0.272-0.25,0.494-0.473,0.494-0.494C103.639,29.25,103.527,29.345,103.104,29.805 M101.003,32.145
		c-0.32,0.326-0.553,0.593-0.517,0.593s0.328-0.267,0.648-0.593c0.32-0.327,0.553-0.594,0.517-0.594
		C101.614,31.551,101.322,31.818,101.003,32.145 M99.941,32.309l-0.454,0.494l0.494-0.454c0.46-0.423,0.556-0.534,0.454-0.534
		C100.414,31.815,100.191,32.037,99.941,32.309 M63.673,32.044c0.383,0.026,0.977,0.026,1.318-0.001
		c0.342-0.027,0.028-0.049-0.696-0.049C63.571,31.995,63.291,32.017,63.673,32.044 M109.473,33.331
		c0.001,0.29,0.028,0.393,0.06,0.229c0.031-0.165,0.029-0.401-0.003-0.527C109.496,32.907,109.471,33.041,109.473,33.331
		 M71.446,33.753c0.164,0.032,0.401,0.03,0.527-0.002c0.127-0.033-0.008-0.059-0.298-0.058
		C71.386,33.695,71.283,33.722,71.446,33.753 M18.533,35.209c1.074,0.022,2.793,0.022,3.822,0s0.15-0.04-1.952-0.04
		S17.459,35.187,18.533,35.209 M115.667,35.208c0.997,0.022,2.627,0.022,3.624,0s0.182-0.041-1.812-0.041
		C115.485,35.168,114.67,35.186,115.667,35.208 M109.112,35.634c-0.13,0.143-0.287,0.229-0.351,0.19
		c-0.062-0.039-0.113-0.008-0.113,0.069c0,0.23,0.199,0.159,0.527-0.19c0.17-0.181,0.277-0.329,0.24-0.329
		S109.241,35.491,109.112,35.634 M22.414,36.521c0.163,0.032,0.43,0.032,0.593,0c0.163-0.031,0.029-0.057-0.297-0.057
		C22.383,36.464,22.251,36.49,22.414,36.521 M19.338,39.063c0,1.415,0.02,1.993,0.043,1.286c0.023-0.707,0.023-1.864,0-2.57
		C19.358,37.073,19.338,37.651,19.338,39.063 M81.539,38.537c0,0.544,0.023,0.767,0.052,0.494c0.029-0.271,0.029-0.716,0-0.988
		C81.562,37.771,81.539,37.993,81.539,38.537 M16.443,42.161c0,2.465,0.018,3.454,0.039,2.2c0.022-1.256,0.022-3.271,0-4.481
		C16.46,38.67,16.443,39.697,16.443,42.161 M59.583,38.366c0.163,0.032,0.429,0.032,0.593,0c0.163-0.031,0.03-0.057-0.297-0.057
		C59.554,38.31,59.42,38.335,59.583,38.366 M74.545,38.5c0.2,0.031,0.497,0.029,0.658-0.002c0.162-0.031-0.001-0.056-0.364-0.054
		C74.477,38.444,74.344,38.47,74.545,38.5 M56.483,38.933c0,0.253,0.028,0.357,0.061,0.23c0.033-0.127,0.033-0.334,0-0.461
		C56.511,38.576,56.483,38.679,56.483,38.933 M85.58,40.547c0.978,0.997,1.792,1.812,1.812,1.812c0.094,0-0.095-0.196-1.778-1.848
		l-1.812-1.777L85.58,40.547 M91.949,40.448c0.001,0.435,0.025,0.598,0.055,0.36s0.028-0.593-0.001-0.791
		C91.973,39.819,91.949,40.014,91.949,40.448 M93.533,41.238c0.001,0.508,0.025,0.7,0.053,0.426
		c0.029-0.273,0.028-0.689-0.001-0.922C93.557,40.508,93.533,40.731,93.533,41.238 M82.831,41.535
		c0.017,0.331,0.023,0.336,0.077,0.052l0.06-0.311l0.417,0.377l0.418,0.377l-0.388-0.429C82.942,41.078,82.808,41.062,82.831,41.535
		 M41.07,43.414c0,0.398,0.025,0.562,0.055,0.361c0.031-0.199,0.031-0.524,0-0.725C41.095,42.852,41.07,43.015,41.07,43.414
		 M19.336,44.864c0,1.123,0.021,1.582,0.045,1.021c0.025-0.562,0.025-1.481,0-2.043C19.356,43.279,19.336,43.739,19.336,44.864
		 M22.019,42.979c0.164,0.031,0.402,0.03,0.528-0.003c0.126-0.033-0.008-0.058-0.297-0.057
		C21.959,42.922,21.856,42.948,22.019,42.979 M73.752,42.984c0.417,0.025,1.1,0.025,1.516,0c0.417-0.026,0.076-0.048-0.758-0.048
		S73.335,42.958,73.752,42.984 M118.633,42.979c0.162,0.031,0.43,0.031,0.593,0s0.03-0.057-0.297-0.057
		C118.603,42.923,118.469,42.948,118.633,42.979 M63.499,43.578l-0.521,0.561l0.561-0.521c0.308-0.286,0.56-0.538,0.56-0.56
		C64.097,42.958,63.983,43.058,63.499,43.578 M96.824,43.809c0,0.399,0.024,0.562,0.056,0.363c0.03-0.2,0.03-0.526,0-0.725
		C96.849,43.247,96.824,43.411,96.824,43.809 M85.977,44.402c0.468,0.471,0.879,0.857,0.916,0.857c0.036,0-0.316-0.387-0.784-0.857
		c-0.467-0.471-0.878-0.856-0.914-0.856C85.157,43.546,85.51,43.932,85.977,44.402 M73.425,44.036
		c0.236,0.03,0.594,0.028,0.79-0.001c0.199-0.03,0.005-0.054-0.43-0.054C73.35,43.983,73.188,44.008,73.425,44.036 M82.982,45.852
		c0.002,0.363,0.027,0.496,0.058,0.295c0.03-0.199,0.03-0.496-0.001-0.659C83.007,45.325,82.982,45.49,82.982,45.852 M92.079,45.919
		c0,0.397,0.025,0.561,0.056,0.361c0.03-0.2,0.03-0.525,0-0.725S92.079,45.519,92.079,45.919 M81.409,46.643
		c0.001,0.58,0.023,0.801,0.052,0.491c0.027-0.311,0.027-0.785-0.001-1.055C81.431,45.81,81.409,46.063,81.409,46.643
		 M91.376,46.346c0.322,0.346,0.605,0.626,0.626,0.626c0.099,0-0.006-0.117-0.588-0.664l-0.626-0.588L91.376,46.346 M89.338,47.632
		c0.357,0.362,0.68,0.658,0.716,0.658s-0.228-0.296-0.584-0.658c-0.356-0.363-0.679-0.66-0.715-0.66S88.981,47.269,89.338,47.632
		 M56.492,47.896c0,0.398,0.024,0.562,0.055,0.362c0.03-0.199,0.03-0.526,0-0.726C56.517,47.333,56.492,47.496,56.492,47.896
		 M93.401,48.356c0.001,0.508,0.024,0.699,0.053,0.425c0.029-0.273,0.028-0.688,0-0.922C93.424,47.625,93.401,47.848,93.401,48.356
		 M70.454,48.423c0,0.253,0.027,0.357,0.061,0.229c0.033-0.126,0.033-0.334,0-0.46C70.481,48.064,70.454,48.168,70.454,48.423
		 M98.631,48.488c0.246,0.253,0.477,0.46,0.513,0.46s-0.135-0.207-0.382-0.46c-0.245-0.254-0.477-0.462-0.513-0.462
		S98.385,48.234,98.631,48.488 M40.241,48.752c0.246,0.253,0.476,0.46,0.512,0.46c0.037,0-0.135-0.207-0.38-0.46
		c-0.247-0.254-0.478-0.462-0.514-0.462S39.995,48.498,40.241,48.752 M66.075,48.464c0,0.022,0.192,0.215,0.429,0.428l0.429,0.388
		l-0.388-0.429C66.184,48.451,66.075,48.361,66.075,48.464 M34.148,49.441c0.311,0.027,0.785,0.027,1.055-0.001
		s0.016-0.051-0.564-0.051C34.059,49.392,33.837,49.413,34.148,49.441 M91.909,50.069c0.245,0.255,0.477,0.462,0.513,0.462
		s-0.136-0.207-0.382-0.462c-0.246-0.254-0.477-0.461-0.514-0.461C91.49,49.608,91.662,49.815,91.909,50.069 M35.594,50.625
		c0.163,0.03,0.43,0.03,0.593,0c0.164-0.032,0.03-0.058-0.297-0.058C35.564,50.567,35.432,50.593,35.594,50.625 M76.521,50.625
		c0.201,0.032,0.497,0.03,0.659-0.001s-0.001-0.057-0.364-0.055C76.454,50.569,76.321,50.596,76.521,50.625 M119.621,50.629
		c0.417,0.026,1.099,0.026,1.516,0c0.417-0.027,0.075-0.048-0.758-0.048S119.204,50.602,119.621,50.629 M107.63,52.342
		c0.347,0.027,0.88,0.026,1.188-0.001c0.306-0.027,0.021-0.05-0.631-0.05C107.534,52.292,107.284,52.314,107.63,52.342
		 M110.229,53.717c0,0.061,0.178,0.109,0.396,0.109c0.217,0,0.396-0.023,0.396-0.052c0-0.027-0.179-0.076-0.396-0.108
		C110.407,53.634,110.229,53.657,110.229,53.717"/>
</g>
</svg>
