<?xml version="1.0" encoding="utf-8"?>
<!-- Generator: Adobe Illustrator 16.0.0, SVG Export Plug-In . SVG Version: 6.00 Build 0)  -->
<!DOCTYPE svg PUBLIC "-//W3C//DTD SVG 1.1//EN" "http://www.w3.org/Graphics/SVG/1.1/DTD/svg11.dtd">
<svg version="1.1" id="Layer_1" xmlns="http://www.w3.org/2000/svg" xmlns:xlink="http://www.w3.org/1999/xlink" x="0px" y="0px"
	 width="137px" height="77px" viewBox="0 0 137 77" enable-background="new 0 0 137 77" xml:space="preserve">
<path id="path1" fill="#293d68" d="M40.91,20.694c-1.426,0.384-2.207,1.165-3.321,3.313c-0.824,1.592-1.694,2.883-2.365,3.511
	l-0.444,0.416L34.55,27.59c-0.754-1.132-1.646-1.788-2.952-2.169c-0.412-0.12-1.687-0.648-2.832-1.175
	c-1.503-0.69-2.344-0.994-3.02-1.089c-4.78-0.673-7.735,3.571-5.336,7.664c0.609,1.04,0.8,1.005,0.26-0.047
	c-1.779-3.468,0.312-6.815,4.277-6.849c2.406-0.02,3.322,0.748,4.365,3.661c0.882,2.463,1.446,2.925,3.743,3.065
	c3.655,0.224,5.333,2.998,3.371,5.575c-0.689,0.905-0.741,1.059-0.178,0.526c1.711-1.615,1.81-4.375,0.206-5.748
	c-0.64-0.547-1.274-0.734-2.879-0.847c-2.265-0.159-2.899-0.707-3.625-3.128c-0.171-0.573-0.403-1.219-0.516-1.437
	c-0.269-0.52-0.179-0.576,0.389-0.247c0.258,0.149,0.8,0.367,1.202,0.485c1.82,0.53,3.709,2.18,2.866,2.503
	c-0.479,0.184-1.179,0.064-1.953-0.334c-0.447-0.229-0.688-0.316-0.535-0.192c2.093,1.689,4.392,0.619,6.176-2.877
	c2.313-4.531,4.229-4.594,13.612-0.442c5.124,2.268,6.357,2.316,11.158,0.445c4.918-1.916,8.09-1.268,16.684,3.41
	c3.162,1.721,4.885,2.182,9.096,2.436c4.49,0.271,6.383,0.645,9.256,1.825c2.256,0.927,2.518,1.158,0.744,0.659
	c-3.221-0.908-6.193-1.04-9.275-0.414c-2.043,0.415-3.252,0.376-6.055-0.192c-4.209-0.854-8.406-1.155-10.557-0.758
	c-0.988,0.183-0.986,0.185-0.621-0.639c0.34-0.771,0.307-1.859-0.096-3.023c-0.314-0.911-0.391-0.741-0.127,0.283
	c0.332,1.298,0.012,2.425-0.953,3.353l-0.486,0.468l0.396,0.334c0.746,0.629,1.037,2.482,0.637,4.075
	c-0.047,0.191,0.066,0.042,0.252-0.33c0.443-0.892,0.564-2.031,0.316-2.971c-0.188-0.707-0.186-0.732,0.098-0.797
	c2.545-0.572,6.271-0.414,11.545,0.492c2.758,0.473,3.5,0.496,6.217,0.188c4.053-0.457,8.492,0.111,13.359,1.71
	c2.188,0.719,4.385,0.538,6.736-0.555c1.17-0.544,1.871-0.553,2.654-0.035c0.525,0.348,0.666,0.379,1.383,0.305
	c1.205-0.127,1.451,0.123,1.434,1.459c-0.01,0.875,0.006,0.95,0.117,0.533c0.453-1.683-0.025-2.639-1.324-2.639
	c-0.609,0-0.924-0.074-1.229-0.292c-0.734-0.522-1.4-0.509-2.309,0.05c-2.689,1.648-4.537,1.594-8.443-0.251
	c-6.324-2.985-6.877-3.136-11.725-3.173c-4.75-0.036-5.551-0.273-10.902-3.236c-8.027-4.442-10.416-4.843-16.129-2.709
	c-2.47,0.922-2.539,0.942-3.916,1.138c-2.004,0.284-3.365-0.091-8.239-2.271C45.248,20.847,42.789,20.188,40.91,20.694
	 M43.903,31.336c1.575,0.516,5.156,0.695,11.109,0.559c1.527-0.035,3.214-0.014,3.749,0.05c1.668,0.195,0.926-0.015-0.973-0.274
	c-1.41-0.193-2.85-0.252-6.596-0.266c-2.635-0.01-5.447-0.061-6.249-0.111C43.916,31.228,43.609,31.241,43.903,31.336
	 M30.918,31.735c-0.42,0.135-1.661,0.608-2.759,1.052c-2.571,1.039-3.199,1.104-4.948,0.515c-3.659-1.235-5.532-0.728-5.53,1.498
	c0,0.886,0.28,2.188,0.499,2.323c0.1,0.062,0.111,0.004,0.036-0.174c-0.24-0.562-0.25-1.942-0.016-2.394
	c0.605-1.172,2.5-1.252,5.492-0.234c1.729,0.588,2.403,0.475,5.403-0.903c2.783-1.278,3.57-1.347,4.854-0.417
	c1.086,0.787,1.377,1.881,0.854,3.209c-0.395,1-0.217,1.041,0.221,0.052C36.543,32.824,34.511,30.583,30.918,31.735 M116.754,38.219
	c-1.062,0.892-0.432,2.7,0.939,2.698c1.123-0.001,1.881-0.989,1.545-2.01C118.893,37.858,117.605,37.501,116.754,38.219
	 M118.693,38.409c0.863,0.863,0.283,2.371-0.914,2.371c-1.217,0-1.82-1.638-0.893-2.417
	C117.484,37.859,118.16,37.875,118.693,38.409 M117.154,39.391c0,0.463,0.062,0.833,0.139,0.833s0.139-0.188,0.139-0.417
	c0-0.555,0.342-0.547,0.633,0.014c0.121,0.236,0.256,0.394,0.299,0.351c0.043-0.042-0.021-0.229-0.143-0.415
	c-0.207-0.316-0.203-0.341,0.062-0.41c0.33-0.087,0.318-0.655-0.018-0.765c-0.178-0.058-0.18-0.033-0.023,0.156
	c0.252,0.306,0.09,0.515-0.402,0.515c-0.342,0-0.408-0.057-0.408-0.347c0-0.191-0.062-0.348-0.139-0.348
	S117.154,38.928,117.154,39.391 M18.282,40.779v1.666h2.083h2.083v6.874v6.874h2.292h2.291v-6.874v-6.874h2.083h2.083v-1.666v-1.667
	h-6.458h-6.458V40.779 M32.585,47.652v8.541h6.109h6.11v-1.598V53h-3.892h-3.893l0.039-1.98l0.038-1.979l3.507-0.037l3.506-0.036
	v-1.523v-1.522l-3.506-0.037l-3.507-0.037l-0.039-1.771l-0.038-1.771h3.753h3.754v-1.598v-1.597h-5.972h-5.971V47.652 M46.611,47.65
	v8.543h2.15h2.151l0.036-6.599l0.036-6.598l2.083,6.602l2.082,6.601l2.084-0.037l2.083-0.039l2.148-6.492
	c1.181-3.569,2.192-6.491,2.247-6.491s0.062,2.937,0.018,6.526l-0.083,6.527h2.243h2.245v-8.541v-8.54h-3.46h-3.46l-1.834,5.52
	c-1.009,3.037-1.883,5.573-1.942,5.639c-0.06,0.064-0.515-1.153-1.012-2.708c-0.498-1.555-1.304-4.075-1.792-5.604l-0.887-2.777
	l-3.568-0.036l-3.568-0.037V47.65 M70.635,47.652v8.541h2.291h2.291v-2.965v-2.964l1.65-0.089c4.914-0.264,7.012-2.134,6.789-6.048
	c-0.221-3.856-2.379-5.001-9.447-5.011l-3.574-0.005V47.652 M85.215,45.055c0,6.457,0.039,6.867,0.793,8.25
	c2.293,4.213,10.98,4.212,13.275-0.002c0.729-1.342,0.787-1.938,0.789-8.323l0.002-5.867h-2.223h-2.221v5.258
	c0,5.432-0.068,6.303-0.574,7.349c-0.961,1.984-3.918,1.861-4.934-0.205l-0.395-0.807l-0.043-5.797l-0.043-5.798H87.43h-2.215
	V45.055 M102.018,47.652v8.541h2.223h2.221v-3.402v-3.402h0.838c1.98,0,2.479,0.635,3.807,4.853l0.594,1.882l2.367,0.039
	l2.367,0.037l-0.529-1.496c-1.93-5.471-2.359-6.418-3.053-6.725c-0.553-0.244-0.535-0.289,0.24-0.566
	c3.234-1.155,3.412-6.181,0.273-7.651c-1.244-0.582-1.934-0.648-6.771-0.648h-4.576V47.652 M77.99,42.619
	c0.908,0.463,1.186,0.922,1.182,1.954c-0.006,1.603-0.842,2.31-2.869,2.428l-1.086,0.062v-2.378v-2.379h1.082
	C77.146,42.307,77.512,42.374,77.99,42.619 M110.146,42.682c0.902,0.474,1.188,1.364,0.768,2.383
	c-0.312,0.755-1.055,1.039-2.891,1.104l-1.562,0.056v-1.974v-1.975l1.562,0.056C109.27,42.377,109.699,42.448,110.146,42.682"/>
</svg>
