<?xml version="1.0" encoding="utf-8"?>
<!-- Generator: Adobe Illustrator 16.0.0, SVG Export Plug-In . SVG Version: 6.00 Build 0)  -->
<!DOCTYPE svg PUBLIC "-//W3C//DTD SVG 1.1//EN" "http://www.w3.org/Graphics/SVG/1.1/DTD/svg11.dtd">
<svg version="1.1" id="Layer_1" xmlns="http://www.w3.org/2000/svg" xmlns:xlink="http://www.w3.org/1999/xlink" x="0px" y="0px"
	 width="137px" height="77px" viewBox="0 0 137 77" enable-background="new 0 0 137 77" xml:space="preserve">
<g id="svgg">
	<path id="path1" fill="#293d68" d="M47.959,12.396c-6.679,0.521-10.348,2.229-11.98,5.574
		C29.53,31.193,46.043,62.018,60.906,64.504c16.686,2.79,45.759-21.071,41.039-33.683C98.411,21.371,67.615,10.861,47.959,12.396
		 M54.16,13.479c2.542,0.249,8.543,1.366,8.819,1.64c0.185,0.185-0.524,0.245-3.696,0.313c-10.131,0.217-13.536,1.07-16.831,4.218
		c-2.988,2.854-3.835,5.736-3.861,13.134c-0.015,4.273-0.052,4.344-0.91,1.811c-2.668-7.875-2.404-15.117,0.66-18.135
		C41.006,13.835,46.752,12.753,54.16,13.479 M81.96,25.583c0.116,0.073-0.042,0.565-0.727,2.275
		c-1.434,3.589-2.387,6.621-3.147,10.014c-0.202,0.91-0.403,1.706-0.439,1.769c-0.093,0.148-0.749,0.146-0.9-0.005
		c-0.375-0.378,1.899-8.306,3.398-11.844c1.053-2.484,0.949-2.306,1.326-2.303C81.661,25.49,81.881,25.533,81.96,25.583
		 M84.516,26.792c1.013,1.011,0.276,2.625-1.142,2.503c-1.077-0.093-1.705-1.207-1.204-2.138
		C82.659,26.25,83.797,26.072,84.516,26.792 M82.787,26.889c-0.873,0.707-0.412,2.11,0.692,2.11c1.129,0,1.611-1.387,0.727-2.083
		C83.853,26.637,83.114,26.623,82.787,26.889 M84.035,27.161c0.178,0.224,0.145,1.509-0.036,1.509c-0.085,0-0.154-0.089-0.154-0.197
		c0-0.231-0.203-0.461-0.405-0.461c-0.088,0-0.144,0.132-0.144,0.329c0,0.257-0.05,0.33-0.22,0.33c-0.199,0-0.219-0.073-0.219-0.824
		v-0.822h0.535C83.688,27.023,83.976,27.084,84.035,27.161 M83.296,27.517c0,0.315,0.091,0.341,0.392,0.112
		c0.184-0.141,0.188-0.178,0.048-0.272C83.457,27.17,83.296,27.229,83.296,27.517 M99.627,29.388
		c2.87,3.091,2.379,7.254-1.498,12.697c-0.798,1.12-0.832,1.078-0.336-0.385c2.093-6.165,2.027-10.363-0.219-13.669
		c-0.247-0.367-0.452-0.697-0.452-0.735C97.122,27.136,98.957,28.667,99.627,29.388 M58.118,28.038
		c-0.104,0.649-0.361,2.438-0.446,3.115l-0.072,0.564l1.428-0.058l1.426-0.058l0.077,0.406c0.042,0.223,0.042,0.662,0,0.975
		l-0.076,0.569l0.317-0.438c0.756-1.043,1.687-1.598,2.814-1.678l0.758-0.054l-0.062,0.458c-0.089,0.666-0.227,0.78-0.945,0.782
		c-0.788,0.002-1.345,0.307-1.906,1.042c-0.764,1.003-1.351,2.489-0.918,2.324c0.104-0.041,0.164-0.032,0.132,0.018
		c-0.066,0.108,1.739,0.397,1.891,0.303c0.057-0.036,0.137-0.236,0.176-0.448c0.716-3.812,6.543-6.685,6.536-3.223
		c-0.002,2.237-2.421,3.669-5.062,3.001c-0.261-0.066-0.299-0.038-0.373,0.292c-0.137,0.605-0.147,0.864-0.033,0.795
		c0.137-0.085,1.503,0.169,1.58,0.292c0.031,0.05,0.117,0.07,0.189,0.044c0.074-0.027,0.802,0.125,1.616,0.34
		c1.909,0.502,2.077,0.537,1.865,0.386c-0.09-0.063-0.108-0.117-0.041-0.117c0.067-0.001,0.184,0.072,0.26,0.163
		c0.075,0.09,0.207,0.164,0.295,0.164c0.086,0,0.126,0.05,0.09,0.109c-0.046,0.071,0.032,0.071,0.226-0.003
		c0.233-0.089,0.28-0.081,0.236,0.038c-0.032,0.081,0.01,0.148,0.091,0.148c0.082,0,0.122-0.045,0.089-0.1
		c-0.034-0.055,0.046-0.034,0.176,0.046c0.212,0.13,0.264,0.114,0.458-0.124c0.307-0.375,0.217-0.756-0.588-2.461
		c-0.586-1.238-0.668-1.492-0.662-2.05c0.018-1.931,1.839-3.201,3.689-2.572c0.474,0.161,0.502,0.157,1.089-0.153
		c1.71-0.898,4.542-0.029,3.368,1.034c-0.217,0.197-0.236,0.195-0.74-0.05c-1.448-0.705-2.803-0.142-2.958,1.229
		c-0.067,0.596,0.05,0.981,0.773,2.549c0.809,1.752,0.847,2.769,0.14,3.696c-0.284,0.374-0.328,0.484-0.188,0.489
		c0.098,0.004,0.253,0.026,0.343,0.052c0.095,0.024,0.151-0.019,0.136-0.102c-0.018-0.08,0.021-0.113,0.083-0.075
		c0.062,0.039,0.09,0.109,0.062,0.156c-0.058,0.094,1.775,0.839,2.005,0.814c0.079-0.008,0.12,0.009,0.09,0.039
		c-0.03,0.029,0.691,0.432,1.604,0.894c1.91,0.97,2.201,1.125,2.277,1.215c0.03,0.036,0.227,0.159,0.439,0.274
		c0.6,0.325,1.766,1.212,2.243,1.703c0.238,0.244,0.511,0.446,0.604,0.446c0.15-0.004,0.15-0.016,0.006-0.108
		c-0.09-0.06-0.111-0.108-0.047-0.108c0.207-0.002,0.27,0.138,0.133,0.301c-0.113,0.135-0.044,0.147,0.481,0.082
		c0.993-0.124,1.812,0.1,2.34,0.643l0.438,0.454l-0.878,0.062c-0.482,0.034-0.753,0.073-0.603,0.085
		c2.106,0.172,1.746,2.42-0.389,2.429c-0.306,0.001-0.621,0.065-0.702,0.14c-0.118,0.109-0.134,0.109-0.071,0
		c0.043-0.074,0.052-0.137,0.019-0.137c-0.031,0-0.134,0.147-0.229,0.33c-0.093,0.18-0.139,0.328-0.1,0.328
		c0.04,0,0.022,0.062-0.036,0.136c-0.091,0.117-0.222,0.525-0.265,0.823c-0.005,0.046-0.124,0.221-0.264,0.385
		c-0.139,0.166-0.284,0.4-0.323,0.521c-0.038,0.121-0.116,0.219-0.171,0.219c-0.058,0-0.104,0.076-0.104,0.166
		s-0.049,0.166-0.109,0.166c-0.06,0-0.109,0.048-0.109,0.105c0,0.102-0.104,0.223-0.906,1.068c-0.226,0.238-0.411,0.491-0.411,0.563
		c0,0.069-0.04,0.126-0.09,0.126s-0.396,0.286-0.771,0.632c-0.374,0.348-0.829,0.767-1.01,0.933
		c-0.181,0.167-0.375,0.303-0.437,0.303c-0.058,0-0.105,0.045-0.105,0.102c0,0.058-0.088,0.13-0.193,0.163
		c-0.106,0.034-0.315,0.175-0.467,0.309c-0.151,0.139-0.692,0.521-1.208,0.854c-0.513,0.331-1.027,0.689-1.145,0.794
		c-0.118,0.106-0.259,0.193-0.317,0.193c-0.058,0-0.728,0.315-1.488,0.7c-0.761,0.387-1.655,0.816-1.987,0.956
		c-0.331,0.139-0.628,0.281-0.658,0.316c-0.186,0.208-4.955,1.559-6.036,1.707c-2.476,0.339-4.632,0.295-6.048-0.128
		c-0.325-0.098-0.639-0.188-0.701-0.201c-0.391-0.09-3.086-1.425-3.237-1.604c-0.03-0.038-0.375-0.283-0.768-0.548
		c-0.393-0.264-0.764-0.531-0.824-0.598c-0.061-0.066-0.356-0.311-0.659-0.544c-0.598-0.463-3.469-3.295-3.631-3.581
		c-0.124-0.216-0.781-1.034-1.114-1.386c-0.137-0.142-0.248-0.307-0.248-0.364s-0.05-0.104-0.11-0.104s-0.109-0.052-0.109-0.115
		c0-0.105-0.828-1.397-0.979-1.529c-0.036-0.03-0.16-0.229-0.275-0.439c-0.116-0.212-0.241-0.409-0.275-0.438
		c-0.129-0.108-2.065-4.116-1.989-4.116c0.007,0-0.092-0.294-0.22-0.658c-0.236-0.668-0.542-1.751-0.566-2.003
		c-0.006-0.075-0.072-0.137-0.145-0.137c-0.072,0-0.482-0.176-0.911-0.391c-1.345-0.673-1.897-1.627-1.353-2.335l0.197-0.255
		l0.76,0.759c1.113,1.107,1.21,1.102,1.166-0.069c-0.039-1.011,0.171-2.141,0.541-2.915c0.114-0.238,0.208-0.496,0.208-0.576
		c0-0.078,0.072-0.145,0.16-0.145c0.085,0,0.245-0.148,0.353-0.331c0.108-0.182,0.419-0.441,0.693-0.576l0.496-0.244l-1.482-0.07
		c-6.345-0.296-5.329-5.989,1.418-7.953c2.781-0.809,7.706-0.988,8.21-0.298c0.291,0.395,0.178,1.057-0.164,0.97
		c-1.856-0.47-5.125-0.371-7.48,0.226c-4.352,1.104-6.565,4.334-3.905,5.698l0.642,0.329l3.711,0.01
		c2.611,0.008,3.713-0.026,3.714-0.109c0-0.073,0.035-0.067,0.087,0.016c0.048,0.075,0.355,0.166,0.684,0.203
		c0.33,0.036,0.631,0.087,0.673,0.113c0.041,0.025,0.098,0.009,0.126-0.038c0.029-0.046,0.637-0.051,1.352-0.01
		c1.667,0.097,1.731,0.047,1.823-1.406c0.072-1.164,0.262-1.047-1.212-0.747c-2.647,0.539-3.403,0.489-3.271-0.214l0.066-0.358
		l1.308-0.184c1.678-0.235,3.306-0.61,3.348-0.771c0.02-0.069,0.146-0.888,0.281-1.819c0.354-2.433,0.352-2.421,0.897-2.421h0.448
		L58.118,28.038 M85.264,31.628c1.332,0.68,0.517,2.833-1.403,3.713c-0.874,0.398-2.154,0.47-2.698,0.149l-0.388-0.229l-0.191,0.352
		c-0.341,0.634-0.273,2.114,0.113,2.447c0.514,0.442,1.143,0.27,1.946-0.534c0.719-0.719,1.216,0.071,0.533,0.849
		c-1.562,1.779-3.758,1.267-3.914-0.913C79.019,34.064,82.811,30.377,85.264,31.628 M94.441,31.75
		c1.064,0.194,1.403,0.585,0.99,1.148c-0.148,0.206-0.167,0.207-0.707,0.012c-1.664-0.598-3.085,0.13-3.421,1.752
		c-0.149,0.723-0.088,1.365,0.297,3.061c0.596,2.608,0.203,4.014-1.297,4.66c-1.703,0.73-4.147-0.485-2.776-1.384
		c0.266-0.174,0.289-0.17,0.575,0.096c0.754,0.702,1.56,0.713,2.243,0.026c0.594-0.594,0.609-0.933,0.144-3.117
		c-0.465-2.169-0.506-3.437-0.135-4.147c0.4-0.764-1.431-1.167-2.403-0.529c-0.882,0.578-0.89,1.217-0.029,2.904
		c1.143,2.239,0.858,3.521-0.821,3.71c-1.604,0.181-3.368-1.698-2.241-2.387c0.411-0.249,0.632-0.277,0.633-0.08
		c0.005,0.746,0.967,1.735,1.502,1.545c0.729-0.259,0.771-0.871,0.133-1.959c-1.103-1.877-1.16-2.866-0.236-4.099
		c0.691-0.922,2.514-1.235,3.778-0.65c0.521,0.24,0.646,0.264,0.75,0.139c0.271-0.325,1.438-0.754,2.199-0.808
		C93.714,31.638,94.083,31.685,94.441,31.75 M71.718,32.017c-1.286,0.455-1.385,1.3-0.395,3.356
		c0.667,1.385,0.859,2.188,0.688,2.866c-0.088,0.341-0.086,0.5,0.001,0.58c0.086,0.078,0.097,0.067,0.039-0.035
		c-0.063-0.111-0.035-0.12,0.12-0.035c1.997,1.074,2.876-0.261,1.768-2.683c-0.857-1.871-1.056-2.74-0.818-3.588
		C73.263,31.968,72.534,31.728,71.718,32.017 M66.324,32.397c-0.572,0.328-1.085,0.878-1.614,1.729
		c-0.363,0.582-0.379,0.53,0.219,0.68c1.325,0.334,3.065-0.626,3.288-1.815C68.392,32.055,67.44,31.757,66.324,32.397
		 M83.499,32.439c-0.915,0.336-1.664,0.911-2.116,1.627c-0.425,0.667,1.117,0.883,2.28,0.318
		C85.266,33.607,85.116,31.845,83.499,32.439 M58.172,32.745c-0.749,0.124-0.663-0.039-0.817,1.56l-0.132,1.373l0.882,0.072
		c0.487,0.042,0.933,0.082,0.993,0.091c0.107,0.015,0.157-0.348,0.324-2.315l0.076-0.905l-0.365,0.012
		C58.933,32.64,58.501,32.69,58.172,32.745 M89.305,45.219c0.498,0.634-0.382,1.479-0.98,0.938c-0.35-0.317-0.209-1.011,0.238-1.169
		C88.798,44.905,89.144,45.014,89.305,45.219 M88.632,45.953c-0.043,0.116,0.008,0.164,0.167,0.164c0.193,0,0.207-0.027,0.094-0.164
		c-0.075-0.09-0.15-0.163-0.167-0.163S88.668,45.863,88.632,45.953 M85.308,46.184c-0.084,0.216,0.138,0.369,0.539,0.372
		c0.318,0,0.397-0.189,0.17-0.415C85.827,45.951,85.386,45.979,85.308,46.184 M85.425,48.001c-0.051,0.083-0.03,0.095,0.067,0.037
		c0.107-0.066,0.127-0.039,0.07,0.104c-0.057,0.147-0.032,0.179,0.097,0.129c0.095-0.035,0.145-0.02,0.109,0.035
		c-0.034,0.057-0.018,0.129,0.038,0.163c0.15,0.093,0.609-0.319,0.518-0.467C86.223,47.837,85.527,47.837,85.425,48.001"/>
	<path id="path2" fill="#3E4C77" d="M47.795,13.303c-4.34,0.277-7.654,1.385-9.455,3.157c-3.064,3.018-3.328,10.26-0.66,18.135
		c0.858,2.533,0.895,2.463,0.91-1.811c0.026-7.398,0.873-10.28,3.861-13.134c3.295-3.147,6.7-4,16.831-4.218
		c4.529-0.097,4.639-0.149,1.723-0.808C56.216,13.541,51.486,13.068,47.795,13.303 M52.02,14.074
		c4.455,0.327,5.162,0.562,2.141,0.712c-6.977,0.346-10.789,1.375-12.905,3.484c-2.727,2.718-3.714,5.805-3.719,11.627
		c-0.003,3.132-0.129,3.128-0.77-0.021c-1.088-5.353-0.474-9.678,1.78-12.529C40.503,14.873,45.7,13.609,52.02,14.074
		 M97.122,27.296c0,0.038,0.205,0.368,0.452,0.735c2.246,3.306,2.312,7.504,0.219,13.669c-0.496,1.463-0.462,1.505,0.336,0.385
		c3.204-4.497,4.172-8.67,2.613-11.271C100.125,29.785,97.122,26.867,97.122,27.296 M83.211,28.34c0,0.212,0.022,0.298,0.051,0.192
		c0.028-0.106,0.028-0.279,0-0.384C83.233,28.043,83.211,28.128,83.211,28.34 M51.28,28.75c0.286,0.022,0.756,0.022,1.042,0
		c0.287-0.023,0.053-0.041-0.521-0.041C51.227,28.709,50.993,28.727,51.28,28.75 M99.205,29.246c2.766,2.7,2.746,6.084-0.062,10.953
		c-0.653,1.133-0.711,1.046-0.221-0.333c1.694-4.767,1.62-8.384-0.226-10.84C98.293,28.49,98.541,28.597,99.205,29.246
		 M93.528,31.708c0.104,0.028,0.278,0.028,0.385,0c0.104-0.028,0.02-0.05-0.192-0.05C93.51,31.658,93.423,31.68,93.528,31.708
		 M60.503,32.51c0,0.332,0.02,0.468,0.045,0.301c0.025-0.166,0.025-0.438,0-0.603S60.503,32.178,60.503,32.51 M88.975,32.039
		c0.136,0.026,0.357,0.026,0.493,0c0.136-0.025,0.024-0.048-0.246-0.048C88.95,31.991,88.838,32.014,88.975,32.039 M63.242,32.589
		c0.167,0.025,0.414,0.025,0.549-0.002c0.135-0.026-0.002-0.046-0.304-0.046C63.187,32.542,63.076,32.563,63.242,32.589
		 M82.007,34.781c0.104,0.027,0.278,0.027,0.384,0c0.105-0.028,0.02-0.05-0.191-0.05C81.987,34.73,81.901,34.753,82.007,34.781
		 M56.041,35.329c-0.179,0.24-0.265,0.267-0.658,0.212c-0.25-0.035-0.85-0.07-1.332-0.08s-0.949-0.073-1.036-0.14
		c-0.119-0.092-0.14-0.09-0.082,0.006c0.045,0.075-0.004,0.152-0.115,0.184c-0.16,0.047-0.153,0.054,0.025,0.044
		c0.604-0.035,1.702,0.7,2.042,1.367c1.685,3.301-4.938,7.992-9.529,6.749c-0.77-0.208-0.762-0.299-0.126,1.639
		c0.122,0.37,0.235,0.74,0.251,0.821c0.06,0.312,1.896,4.139,2.047,4.266c0.035,0.029,0.159,0.227,0.275,0.438
		c0.115,0.211,0.239,0.409,0.275,0.439c0.15,0.132,0.979,1.424,0.979,1.529c0,0.063,0.049,0.115,0.109,0.115s0.11,0.047,0.11,0.104
		s0.111,0.223,0.248,0.364c0.333,0.352,0.99,1.17,1.114,1.386c0.162,0.286,3.033,3.118,3.631,3.581
		c0.302,0.233,0.598,0.478,0.659,0.544c0.06,0.066,0.431,0.334,0.824,0.598c0.392,0.265,0.738,0.51,0.768,0.548
		c0.151,0.179,2.846,1.514,3.237,1.604c0.062,0.014,0.376,0.104,0.701,0.201c1.416,0.423,3.573,0.467,6.048,0.128
		c1.081-0.148,5.85-1.499,6.036-1.707c0.03-0.035,0.327-0.178,0.658-0.316c0.332-0.14,1.227-0.569,1.987-0.956
		c0.761-0.385,1.431-0.7,1.488-0.7c0.059,0,0.199-0.087,0.317-0.193c0.117-0.104,0.632-0.463,1.145-0.794
		c0.516-0.333,1.057-0.715,1.208-0.854c0.151-0.134,0.36-0.274,0.467-0.309c0.105-0.033,0.193-0.105,0.193-0.163
		c0-0.057,0.048-0.102,0.105-0.102c0.062,0,0.256-0.136,0.437-0.303c0.181-0.166,0.636-0.585,1.01-0.933
		c0.375-0.346,0.722-0.632,0.771-0.632s0.09-0.057,0.09-0.126c0-0.072,0.186-0.325,0.411-0.563c0.802-0.846,0.906-0.967,0.906-1.068
		c0-0.058,0.05-0.105,0.109-0.105c0.061,0,0.109-0.076,0.109-0.166s0.046-0.166,0.104-0.166c0.055,0,0.133-0.098,0.171-0.219
		c0.039-0.12,0.191-0.365,0.343-0.544c0.15-0.178,0.266-0.337,0.257-0.354c-0.024-0.055,0.14-0.687,0.21-0.802
		c0.035-0.06,0.068-0.134,0.072-0.164c0.032-0.243,0.194-0.541,0.271-0.493c0.051,0.03,0.119,0.016,0.151-0.036
		c0.031-0.051-0.002-0.093-0.075-0.093c-0.728-0.008-1.942-0.722-1.942-1.143c0-0.23,1.736-0.117,1.81,0.117
		c0.088,0.274,0.459,0.5,0.459,0.279c0-0.081-0.067-0.123-0.148-0.09c-0.104,0.039-0.125-0.003-0.073-0.14
		c0.058-0.146,0.037-0.172-0.081-0.105c-0.107,0.062-0.121,0.053-0.047-0.027c0.062-0.064,0.233-0.14,0.386-0.166
		c0.15-0.027,0.001-0.056-0.331-0.063c-1.852-0.046-2.668-1.503-1.183-2.107c0.532-0.216,0.79-0.655,0.382-0.649
		c-0.078,0-0.064,0.044,0.034,0.108c0.145,0.093,0.145,0.104-0.006,0.108c-0.093,0-0.365-0.202-0.604-0.446
		c-0.478-0.491-1.644-1.378-2.243-1.703c-0.213-0.115-0.409-0.238-0.439-0.274c-0.076-0.09-0.367-0.245-2.277-1.215
		c-0.912-0.462-1.634-0.864-1.604-0.894c0.03-0.03-0.011-0.047-0.09-0.039c-0.229,0.024-2.062-0.721-2.005-0.814
		c0.028-0.047,0-0.117-0.062-0.156c-0.062-0.038-0.101-0.005-0.083,0.075c0.016,0.083-0.041,0.126-0.136,0.102
		c-0.09-0.025-0.248-0.048-0.353-0.052c-0.177-0.006-0.177-0.019,0-0.223c0.104-0.119-0.015-0.057-0.265,0.14
		c-0.403,0.32-1.268,0.671-1.647,0.671c-0.568,0-0.549-0.929,0.022-1.036c0.473-0.088,0.419-0.196-0.193-0.39
		c-0.26-0.082-0.544-0.202-0.63-0.266c-0.126-0.094-0.139-0.084-0.062,0.048c0.081,0.139,0.069,0.142-0.081,0.02
		c-0.15-0.123-0.195-0.112-0.292,0.065c-0.424,0.794-1.751,0.936-2.619,0.282c-0.416-0.315-0.455-0.633-0.12-0.99l0.236-0.251
		l0.372,0.326c0.456,0.402,0.998,0.44,1.306,0.092c0.21-0.233,0.21-0.233-0.029-0.09c-0.199,0.124-0.269,0.123-0.431-0.011
		c-0.106-0.087-0.164-0.104-0.125-0.039c0.041,0.065,0.004,0.119-0.078,0.119c-0.081,0-0.128-0.054-0.103-0.119
		c0.024-0.067-0.099-0.123-0.286-0.131c-0.184-0.007-0.421-0.094-0.531-0.19c-0.109-0.101-0.245-0.181-0.3-0.18
		c-0.056,0-0.027,0.054,0.063,0.117c0.212,0.151,0.044,0.116-1.865-0.386c-0.814-0.215-1.542-0.367-1.616-0.34
		c-0.072,0.026-0.158,0.006-0.189-0.044c-0.086-0.138-1.451-0.373-1.606-0.277c-0.093,0.059-0.108,0.036-0.046-0.07
		c0.067-0.12,0.057-0.126-0.051-0.027c-0.095,0.089-0.125,0.387-0.095,0.972c0.093,1.851,1.552,2.161,2.953,0.628
		c0.756-0.826,1.312-0.359,0.697,0.582c-1.772,2.715-5.067,1.454-4.681-1.79c0.053-0.442,0.053-0.754-0.001-0.721
		c-0.166,0.102-1.945-0.208-1.873-0.325c0.041-0.066,0.012-0.075-0.071-0.024c-0.078,0.048-0.176,0.028-0.223-0.048
		c-0.105-0.172-0.287,1.057-0.445,3.013c-0.153,1.898-0.198,2.03-0.701,2.03c-0.208,0-0.409-0.047-0.445-0.104
		c-0.054-0.086,0.236-3.171,0.435-4.624c0.036-0.267,0.01-0.394-0.083-0.396c-0.073-0.001-0.537-0.039-1.026-0.083l-0.892-0.081
		l-0.067,0.916c-0.039,0.504-0.123,1.916-0.188,3.137c-0.153,2.833-0.149,2.816-0.753,2.861l-0.472,0.034l0.066-0.912
		c0.037-0.502,0.096-1.356,0.132-1.9c0.035-0.543,0.108-1.556,0.165-2.25c0.129-1.643,0.129-2.003-0.007-1.92
		c-0.061,0.038-0.111,0.018-0.111-0.042s0.081-0.156,0.179-0.21c0.099-0.055,0.161-0.151,0.138-0.215
		C56.265,35.106,56.153,35.179,56.041,35.329 M48.813,35.333c0.258,0.024,0.652,0.024,0.877,0c0.225-0.024,0.013-0.042-0.469-0.042
		C48.74,35.292,48.554,35.311,48.813,35.333 M47.356,36.309c-0.556,0.083-1.425,0.574-1.629,0.922
		c-0.107,0.179-0.266,0.326-0.352,0.326c-0.087,0-0.16,0.066-0.16,0.145c0,0.08-0.093,0.338-0.208,0.576
		c-0.371,0.775-0.58,1.904-0.541,2.918c0.03,0.796,0.008,0.937-0.13,0.9c-0.09-0.023,0.083,0.077,0.385,0.225
		c1.216,0.589,2.736,0.628,4.507,0.115c4.57-1.325,6.538-5.458,2.839-5.966C51.196,36.351,47.85,36.236,47.356,36.309
		 M43.241,41.345c0.205,0.211,0.397,0.383,0.427,0.383c0.03,0-0.113-0.172-0.317-0.383s-0.396-0.385-0.427-0.385
		C42.894,40.96,43.036,41.134,43.241,41.345 M42.363,42.093c0,0.019,0.16,0.179,0.356,0.355l0.358,0.323l-0.323-0.357
		C42.453,42.082,42.363,42.007,42.363,42.093 M88.838,45.26c0.12,0.069,0.256,0.181,0.3,0.245c0.055,0.083,0.081,0.077,0.082-0.014
		c0.002-0.073-0.095-0.187-0.21-0.246C88.721,45.089,88.562,45.105,88.838,45.26 M85.52,45.429c0.167,0.025,0.415,0.023,0.548-0.002
		c0.136-0.025-0.001-0.047-0.303-0.047C85.464,45.382,85.353,45.405,85.52,45.429 M68.097,45.664
		c1.565,0.711,1.625,2.543,0.108,3.344c-0.194,0.104-0.255,0.176-0.15,0.179c0.098,0.003,0.238,0.075,0.312,0.162
		c0.072,0.087,0.195,0.133,0.276,0.103c0.463-0.178,2.733,1.736,2.861,2.41c0.1,0.532-0.283,1.938-0.526,1.938
		c-0.045,0-0.083,0.071-0.083,0.159c0,0.085-0.099,0.188-0.22,0.226c-0.123,0.039-0.196,0.112-0.165,0.162
		c0.032,0.051-0.096,0.219-0.281,0.377c-0.187,0.156-0.302,0.284-0.258,0.284s-0.089,0.12-0.294,0.27
		c-3.459,2.509-6.493,3.254-8.811,2.166c-3.34-1.569-6.453-7.174-5.077-9.138c0.143-0.206,0.181-0.524,0.181-1.497v-1.238h1.977
		h1.975v0.439v0.438h-1.153h-1.151v0.273c0,0.274,0.004,0.274,1.03,0.274c0.915,0,1.034,0.023,1.083,0.207
		c0.041,0.156,0.123,0.193,0.342,0.153c0.282-0.054,0.288-0.075,0.288-0.92v-0.866h0.822h0.824v0.557v0.559l0.701-0.559
		c0.655-0.521,0.742-0.557,1.317-0.557c0.756,0,0.759,0.039,0.048,0.665l-0.566,0.502l0.484,0.644l0.485,0.643l0.056-0.65
		C64.66,45.841,66.522,44.948,68.097,45.664 M73.257,45.743c0.722,0.34,0.886,1.287,0.321,1.826c-0.326,0.309-0.334,0.432-0.038,0.7
		c0.128,0.114,0.329,0.343,0.447,0.51l0.214,0.302l-0.966-0.006l-0.968-0.005l-0.329-0.428c-0.447-0.582-0.715-0.582-0.715,0v0.438
		h-0.821h-0.824v-1.756v-1.756h1.656C72.518,45.569,72.976,45.608,73.257,45.743 M76.877,46.421l0.815,0.851l0.004-0.778
		c0.004-0.927-0.027-0.881,0.599-0.831l0.501,0.04v1.689v1.689H77.93h-0.867l-0.779-0.835l-0.779-0.834v0.834v0.835H74.9h-0.603
		v-1.683c0-1.964-0.071-1.829,0.954-1.829h0.81L76.877,46.421 M83.296,46.062v0.385h-1.152h-1.152v0.273
		c0,0.274,0.004,0.274,1.042,0.274h1.043v0.385v0.385h-1.043c-1.038,0-1.042,0-1.042,0.273v0.274h1.208h1.207v0.384v0.385h-2.03
		h-2.031V47.38v-1.702h1.975h1.977V46.062 M66.639,46.288c-0.496,0.35-0.301,2.243,0.233,2.243c0.421,0,0.511-0.204,0.511-1.166
		C67.383,46.218,67.174,45.914,66.639,46.288 M71.224,46.832v0.396l0.468-0.034c0.437-0.031,0.466-0.055,0.466-0.361
		c0-0.31-0.029-0.334-0.466-0.364l-0.468-0.032V46.832 M93.5,49.933l-1.041,1.069l1.069-1.039c0.995-0.97,1.119-1.102,1.041-1.102
		C94.554,48.861,94.071,49.343,93.5,49.933 M49.276,57.587c0.511,0.513,0.953,0.931,0.983,0.931c0.03,0-0.363-0.418-0.874-0.931
		c-0.51-0.516-0.953-0.935-0.983-0.935C48.373,56.652,48.767,57.071,49.276,57.587 M63.077,64.742c0.196,0.025,0.517,0.025,0.712,0
		c0.197-0.023,0.037-0.043-0.356-0.043C63.041,64.699,62.88,64.719,63.077,64.742"/>
	<path id="path3" fill="#8A93BB" d="M51.011,12.291c0.622,0.02,1.61,0.02,2.194,0c0.585-0.02,0.077-0.036-1.13-0.036
		C50.868,12.255,50.388,12.271,51.011,12.291 M47.411,14.041c-4.033,0.238-7.444,1.512-8.864,3.308
		c-2.253,2.851-2.868,7.176-1.78,12.529c0.641,3.149,0.767,3.153,0.77,0.021c0.004-5.822,0.992-8.91,3.719-11.627
		c2.117-2.109,5.929-3.139,12.905-3.484c3.021-0.15,2.314-0.386-2.141-0.712C50.632,13.971,48.8,13.959,47.411,14.041
		 M82.904,27.783c0.006,0.626,0.046,0.824,0.172,0.859c0.116,0.031,0.126,0.018,0.034-0.049c-0.074-0.052-0.151-0.435-0.175-0.858
		l-0.04-0.765L82.904,27.783 M98.696,29.026c1.846,2.456,1.92,6.074,0.226,10.84c-0.49,1.379-0.433,1.466,0.221,0.333
		c2.809-4.869,2.828-8.253,0.062-10.953C98.541,28.597,98.293,28.49,98.696,29.026 M72.24,30.94c0.105,0.027,0.278,0.027,0.383,0
		c0.105-0.027,0.02-0.05-0.191-0.05S72.133,30.913,72.24,30.94 M81.039,32.977l-0.322,0.356l0.356-0.322
		c0.334-0.3,0.407-0.391,0.323-0.391C81.377,32.62,81.217,32.781,81.039,32.977 M52.104,33.685c0.137,0.026,0.334,0.025,0.439-0.002
		s-0.006-0.048-0.248-0.048C52.053,33.637,51.967,33.658,52.104,33.685 M45.577,36.323c0.411,0.021,1.052,0.021,1.428-0.001
		c0.374-0.021,0.039-0.038-0.746-0.038C45.475,36.285,45.168,36.301,45.577,36.323 M49.797,36.319c0.136,0.026,0.358,0.026,0.495,0
		c0.135-0.026,0.023-0.048-0.249-0.048S49.663,36.293,49.797,36.319 M80.251,36.954c0.002,0.242,0.023,0.328,0.05,0.19
		c0.026-0.136,0.025-0.333-0.001-0.438C80.271,36.602,80.25,36.713,80.251,36.954 M62.472,37.724c0.002,0.24,0.024,0.326,0.05,0.19
		c0.027-0.137,0.026-0.335-0.001-0.438C62.494,37.37,62.471,37.48,62.472,37.724 M56.876,40.357c0.001,0.24,0.023,0.327,0.049,0.19
		c0.027-0.138,0.025-0.335-0.002-0.438C56.896,40.004,56.875,40.115,56.876,40.357 M58.714,40.515c0,0.178,0.039,0.347,0.087,0.377
		c0.047,0.029,0.066-0.116,0.042-0.324C58.79,40.106,58.714,40.075,58.714,40.515 M55.783,42.112c0,0.302,0.021,0.413,0.046,0.245
		c0.026-0.167,0.024-0.413-0.001-0.549C55.803,41.674,55.782,41.811,55.783,42.112 M88.48,45.432
		c-0.017,0.216-0.078,0.451-0.139,0.522c-0.059,0.07-0.075,0.159-0.037,0.198c0.14,0.139,0.258-0.056,0.258-0.427
		c0-0.246,0.054-0.375,0.152-0.375c0.083,0,0.218-0.088,0.301-0.192c0.137-0.175,0.133-0.18-0.041-0.043
		c-0.136,0.105-0.232,0.117-0.328,0.038C88.54,45.066,88.501,45.134,88.48,45.432 M56.931,45.651c0.559,0.021,1.471,0.021,2.03,0
		c0.558-0.021,0.101-0.036-1.014-0.036C56.83,45.615,56.373,45.63,56.931,45.651 M60.775,45.649c0.257,0.024,0.653,0.022,0.878,0
		c0.224-0.025,0.012-0.044-0.471-0.044C60.7,45.607,60.517,45.627,60.775,45.649 M63.911,45.651l0.644,0.039l-0.205,0.24
		l-0.205,0.244l0.247-0.212c0.385-0.324,0.302-0.396-0.439-0.371l-0.684,0.019L63.911,45.651 M70.435,45.651
		c0.501,0.021,1.29,0.021,1.755,0c0.466-0.021,0.056-0.038-0.91-0.036C70.313,45.615,69.933,45.63,70.435,45.651 M74.347,45.711
		c-0.03,0.079-0.041,0.881-0.021,1.782l0.033,1.643l0.024-1.724l0.023-1.724l0.851-0.037l0.852-0.038l-0.854-0.021
		C74.64,45.576,74.386,45.608,74.347,45.711 M77.756,45.705c-0.083,0.244-0.114,1.62-0.038,1.62c0.041,0,0.091-0.396,0.11-0.878
		C77.861,45.585,77.849,45.432,77.756,45.705 M71.36,46.413c0.107,0.028,0.279,0.028,0.385,0c0.105-0.027,0.02-0.05-0.191-0.05
		C71.341,46.363,71.255,46.386,71.36,46.413 M81.623,46.417c0.316,0.024,0.834,0.024,1.152,0c0.316-0.021,0.056-0.039-0.576-0.039
		C81.564,46.378,81.307,46.396,81.623,46.417 M59.759,47.305c-0.032,0.029-0.057,0.146-0.057,0.258c0,0.182-0.105,0.202-1.043,0.202
		c-1.038,0-1.042,0-1.042,0.273v0.274h1.151h1.153v0.384v0.385h-1.975H55.97v-0.52c0-0.513-0.002-0.514-0.181-0.257
		c-1.376,1.964,1.736,7.568,5.077,9.138c2.318,1.088,5.352,0.343,8.811-2.166c0.205-0.149,0.338-0.27,0.294-0.27
		s0.071-0.128,0.258-0.284c0.186-0.158,0.313-0.326,0.281-0.377c-0.031-0.05,0.042-0.123,0.165-0.162
		c0.121-0.038,0.22-0.141,0.22-0.226c0-0.088,0.038-0.159,0.083-0.159c0.243,0,0.626-1.405,0.526-1.938
		c-0.129-0.679-2.399-2.588-2.865-2.409c-0.083,0.031-0.182,0.008-0.22-0.055c-0.137-0.22-0.567-0.301-1.008-0.19
		c-0.949,0.243-2.297-0.323-2.692-1.127c-0.101-0.204-0.183-0.307-0.187-0.229c0,0.088-0.055,0.111-0.14,0.061
		c-0.075-0.046,0.033,0.136,0.24,0.405c0.208,0.268,0.424,0.551,0.48,0.625c0.081,0.108-0.121,0.139-0.925,0.136l-1.03-0.003
		l-0.475-0.657c-0.555-0.762-0.677-0.751-0.677,0.065v0.598h-0.824H60.36v-0.865C60.36,47.379,60.092,46.971,59.759,47.305
		 M75.433,48.203c0,0.513,0.019,0.723,0.042,0.467c0.023-0.257,0.023-0.677,0-0.933C75.451,47.479,75.433,47.689,75.433,48.203
		 M76.218,48.203c0.236,0.241,0.453,0.439,0.482,0.439c0.03,0-0.137-0.198-0.372-0.439c-0.236-0.241-0.454-0.438-0.484-0.438
		S75.982,47.962,76.218,48.203 M83.323,48.696c0.001,0.242,0.024,0.328,0.05,0.191c0.027-0.137,0.025-0.335-0.002-0.438
		C83.344,48.345,83.322,48.456,83.323,48.696"/>
	<path id="path4" fill="#CED0D1" d="M49.249,12.286c0.136,0.026,0.358,0.026,0.494,0c0.136-0.026,0.024-0.047-0.248-0.047
		C49.225,12.238,49.114,12.259,49.249,12.286 M54.462,12.287c0.166,0.025,0.438,0.025,0.603,0c0.167-0.025,0.03-0.045-0.3-0.045
		C54.432,12.242,54.295,12.262,54.462,12.287 M63.816,31.49c0.182,0.029,0.37,0.11,0.421,0.18c0.06,0.086,0.075,0.074,0.045-0.038
		c-0.027-0.101-0.188-0.17-0.419-0.179C63.519,31.438,63.516,31.441,63.816,31.49 M59.344,31.711c0.197,0.025,0.517,0.025,0.714,0
		c0.197-0.024,0.036-0.043-0.356-0.043C59.31,31.668,59.149,31.688,59.344,31.711 M59.229,32.581
		c0.132,0.029,0.264,0.136,0.294,0.238c0.041,0.133,0.05,0.124,0.035-0.035c-0.016-0.148-0.111-0.226-0.296-0.237
		C59.033,32.532,59.027,32.537,59.229,32.581 M45.357,35.444c0.287,0.023,0.732,0.023,0.987,0c0.254-0.023,0.018-0.042-0.524-0.042
		C45.276,35.403,45.068,35.421,45.357,35.444 M64.448,40.268c0.107,0.028,0.278,0.028,0.383,0c0.106-0.027,0.02-0.05-0.191-0.05
		C64.428,40.218,64.343,40.24,64.448,40.268 M60.385,47.353l-0.024,1.729l0.849-0.021l0.851-0.021L61.269,49l-0.794-0.039
		l-0.033-1.669l-0.033-1.668L60.385,47.353 M78.71,47.299l-0.024,1.671h-0.786c-0.588,0-0.844-0.047-1.015-0.19
		c-0.229-0.192-0.229-0.191-0.02,0.055c0.249,0.292,1.779,0.378,1.882,0.104c0.03-0.077,0.041-0.855,0.021-1.729l-0.033-1.586
		L78.71,47.299 M79.396,47.353l0.004,1.673l1.92,0.005l1.922,0.002L81.351,49l-1.89-0.033l-0.035-1.645l-0.035-1.645L79.396,47.353
		 M58.196,46.417c0.35,0.024,0.893,0.024,1.208,0c0.314-0.021,0.029-0.039-0.636-0.039C58.104,46.378,57.848,46.396,58.196,46.417
		 M87.027,46.447l-0.824,0.069l0.851,0.021c0.507,0.013,0.852-0.024,0.852-0.09c0-0.06-0.013-0.102-0.029-0.09
		C87.862,46.368,87.48,46.408,87.027,46.447 M77.149,46.832c0.206,0.211,0.396,0.384,0.429,0.384c0.03,0-0.113-0.173-0.319-0.384
		c-0.203-0.213-0.396-0.385-0.427-0.385C76.803,46.447,76.946,46.619,77.149,46.832 M66.322,47.38c0,0.423,0.02,0.583,0.043,0.354
		c0.024-0.229,0.024-0.574,0-0.768C66.342,46.771,66.322,46.957,66.322,47.38 M67.421,47.489c0,0.482,0.02,0.666,0.042,0.408
		c0.024-0.258,0.024-0.653,0-0.878C67.439,46.797,67.421,47.007,67.421,47.489 M71.418,47.292c0.137,0.027,0.334,0.027,0.438-0.001
		c0.105-0.028-0.007-0.05-0.249-0.048C71.367,47.244,71.281,47.267,71.418,47.292 M58.142,47.734c0.319,0.023,0.813,0.022,1.098,0
		c0.284-0.023,0.024-0.04-0.581-0.039C58.056,47.695,57.823,47.714,58.142,47.734 M81.517,47.734c0.318,0.023,0.812,0.022,1.097,0
		c0.284-0.023,0.022-0.04-0.58-0.039C81.431,47.695,81.198,47.714,81.517,47.734 M58.196,48.395c0.35,0.022,0.893,0.022,1.208-0.001
		c0.314-0.022,0.029-0.039-0.636-0.039C58.104,48.354,57.848,48.371,58.196,48.395 M81.57,48.395
		c0.351,0.022,0.894,0.022,1.208-0.001c0.315-0.022,0.029-0.039-0.635-0.039C81.48,48.354,81.222,48.371,81.57,48.395
		 M56.931,49.052c0.559,0.02,1.471,0.02,2.03,0c0.558-0.02,0.101-0.035-1.014-0.035C56.83,49.017,56.373,49.032,56.931,49.052
		 M63.628,49.051c0.318,0.024,0.813,0.023,1.097,0c0.284-0.022,0.024-0.04-0.58-0.039C63.542,49.012,63.31,49.03,63.628,49.051
		 M69.992,49.051c0.26,0.024,0.653,0.024,0.878,0c0.225-0.023,0.015-0.043-0.468-0.042C69.919,49.009,69.734,49.028,69.992,49.051
		 M72.734,49.051c0.257,0.024,0.676,0.024,0.931,0c0.258-0.022,0.049-0.042-0.466-0.042C72.688,49.009,72.476,49.028,72.734,49.051
		 M74.655,49.051c0.166,0.024,0.414,0.024,0.55-0.003c0.134-0.027-0.002-0.047-0.305-0.045C74.6,49.003,74.487,49.024,74.655,49.051
		 M66.752,49.268c0.107,0.027,0.28,0.027,0.385,0c0.105-0.03,0.018-0.051-0.192-0.051C66.732,49.217,66.647,49.237,66.752,49.268"/>
</g>
</svg>
