<?xml version="1.0" encoding="utf-8"?>
<!-- Generator: Adobe Illustrator 16.0.0, SVG Export Plug-In . SVG Version: 6.00 Build 0)  -->
<!DOCTYPE svg PUBLIC "-//W3C//DTD SVG 1.1//EN" "http://www.w3.org/Graphics/SVG/1.1/DTD/svg11.dtd">
<svg version="1.1" id="Layer_1" xmlns="http://www.w3.org/2000/svg" xmlns:xlink="http://www.w3.org/1999/xlink" x="0px" y="0px"
	 width="137px" height="77px" viewBox="0 0 137 77" enable-background="new 0 0 137 77" xml:space="preserve">
<g id="svgg">
	<path id="path1" fill="#293d68" d="M23.35,12.943c-0.62,0.289-1.125,0.811-1.387,1.437c-0.301,0.718-0.301,47.522,0,48.241
		c0.25,0.597,0.74,1.117,1.387,1.466l0.508,0.273h44.431c24.436,0,44.634-0.044,44.885-0.098c0.573-0.121,1.442-0.856,1.768-1.496
		c0.347-0.679,0.397-47.561,0.053-48.387c-0.249-0.595-0.747-1.123-1.352-1.434C112.917,12.572,24.158,12.57,23.35,12.943
		 M49.654,16.744c0,0.062-0.036,0.289-0.079,0.507l-0.08,0.397H48.63h-0.866l-0.075,0.411c-0.208,1.145-0.921,5.485-0.904,5.505
		c0.147,0.167,7.237-4.897,7.618-5.441c0.315-0.449,0.257-0.475-1.072-0.475c-1.256,0-1.268-0.003-1.268-0.308
		c0-0.738-0.166-0.707,3.826-0.707h3.673l-0.088,0.412c-0.129,0.602-0.13,0.603-0.989,0.603c-0.867,0-0.683-0.099-2.759,1.47
		c-1.027,0.776-4.246,2.966-4.897,3.329c-0.187,0.105-0.076,0.27,0.794,1.18c0.556,0.581,1.815,1.97,2.796,3.085
		c2.828,3.212,3.8,3.992,4.972,3.992c0.564,0,0.621,0.094,0.448,0.739l-0.078,0.294l-3.184-0.041l-3.183-0.041l-0.677-0.375
		c-0.882-0.488-1.533-1.216-3.634-4.061c-1.785-2.415-1.879-2.501-2.329-2.125c-0.494,0.412-1.063,4.993-0.669,5.388
		c0.095,0.095,0.611,0.177,1.294,0.202c0.624,0.025,1.134,0.089,1.134,0.144s-0.036,0.276-0.08,0.494l-0.079,0.396h-4.737
		c-2.624,0-4.739-0.05-4.739-0.111c0-0.757,0.142-0.903,0.872-0.904c1.098-0.004,0.983,0.319,1.936-5.471
		c1.232-7.485,1.229-7.584-0.266-7.584c-1,0-0.985,0.008-0.918-0.567l0.052-0.447h4.55C47.62,16.634,49.654,16.684,49.654,16.744
		 M104.605,19.324l0.888,0.162l-0.031,0.811c-0.048,1.204-0.776,1.662-1.235,0.775c-0.543-1.052-3.676-1.35-6.088-0.58
		c-6.611,2.109-6.604,10.402,0.008,10.402c1.91,0,1.989-0.056,2.188-1.554c0.301-2.265,0.236-2.439-0.903-2.439
		c-0.716,0-0.746-0.013-0.673-0.285c0.041-0.157,0.077-0.356,0.078-0.443c0.001-0.123,0.848-0.159,3.807-0.159h3.805l-0.082,0.349
		c-0.128,0.532-0.14,0.539-0.93,0.539c-0.842,0-0.762-0.119-1.035,1.549c-0.146,0.897-0.142,0.997,0.069,1.23
		c1.159,1.281-6.777,2.874-10.576,2.122c-7.12-1.41-6.733-9.074,0.592-11.737C97.136,19.103,101.595,18.776,104.605,19.324
		 M69.764,19.708c-0.043,0.156-0.078,0.327-0.079,0.38c-0.001,0.052-0.198,0.095-0.438,0.095c-1.055,0-0.949-0.285-1.756,4.772
		c-0.975,6.108-0.993,5.876,0.457,5.876c0.747,0,0.863,0.029,0.799,0.2c-0.043,0.11-0.078,0.311-0.078,0.444
		c0,0.233-0.14,0.243-3.866,0.243c-3.727,0-3.867-0.01-3.867-0.243c0-0.534,0.133-0.645,0.777-0.645
		c0.809,0,0.732,0.234,1.509-4.563c1.002-6.188,1.021-5.907-0.408-6.041c-0.812-0.075-0.814-0.077-0.761-0.44l0.053-0.363h3.867
		h3.866L69.764,19.708 M81.604,23.356l4.028,3.934l0.147-0.67c0.237-1.081,0.757-4.802,0.76-5.439
		c0.004-0.742-0.141-0.858-1.187-0.956c-0.819-0.076-0.838-0.087-0.838-0.44v-0.361h2.702h2.704l-0.054,0.365
		c-0.05,0.344-0.096,0.368-0.749,0.423c-0.894,0.074-0.705-0.486-1.927,5.76c-0.584,2.987-1.11,5.56-1.17,5.716
		c-0.271,0.721-0.529,0.517-5.604-4.459l-4.84-4.745l-0.156,0.605c-0.268,1.042-1.051,5.483-1.131,6.418
		c-0.102,1.186,0.028,1.325,1.233,1.325c0.923,0,1.029,0.091,0.801,0.687c-0.103,0.268-5.501,0.309-5.498,0.043
		c0.006-0.611,0.141-0.729,0.828-0.729c0.371,0,0.707-0.052,0.747-0.114c0.144-0.235,1.971-8.428,1.971-8.844
		c0-0.806-1.167-1.69-2.233-1.69c-0.25,0-0.302-0.064-0.302-0.38v-0.38h2.869h2.867L81.604,23.356 M59.288,34.891
		c6.466,0.445,10.11,1.357,18.888,4.723c16.542,6.343,24.124,7.116,31.927,3.256c1.753-0.866,2.51-1.123,1.386-0.47
		c-5.847,3.404-12.68,4.094-20.984,2.122c-0.597-0.143-1.107-0.234-1.136-0.205c-0.084,0.084,3.578,0.942,5.16,1.21
		c6.293,1.062,11.252,0.47,16.003-1.909c0.682-0.341,1.237-0.562,1.237-0.491c0,0.161-3.051,1.644-4.266,2.074
		c-4.087,1.447-9.935,1.616-15.685,0.457c-2.245-0.453-2.593-0.413-0.563,0.063c7.986,1.879,14.295,1.426,19.795-1.423
		c1.167-0.605,1.099-0.578,1.099-0.428c0,0.167-2.797,1.541-4.129,2.029c-4.536,1.661-10.916,1.807-17.285,0.397
		c-0.936-0.207-1.725-0.355-1.751-0.328C88.9,46.05,92.59,46.9,94.212,47.172c6.356,1.067,11.583,0.526,16.34-1.688
		c1.271-0.594,1.702-0.697,0.938-0.226c-4.848,2.98-13.431,3.672-21.511,1.731c-0.727-0.176-1.342-0.295-1.37-0.266
		c-0.078,0.077,4.051,1.06,5.35,1.271c6.875,1.123,11.646,0.604,17.209-1.872c0.987-0.438,0.425,0.027-0.636,0.526
		c-8.217,3.868-18.308,2.958-34.193-3.085c-9.023-3.434-13.893-4.494-20.631-4.494c-6.3,0-11.444,0.9-16.574,2.901
		c-1.483,0.576-2.269,0.725-1.716,0.319c0.882-0.646,4.751-2.084,7.483-2.782c2.188-0.56,2.486-0.673,1.132-0.43
		c-2.762,0.494-4.546,1.048-8.533,2.644c-1.559,0.627-1.904,0.618-0.768-0.017c2.375-1.326,6.86-2.917,9.595-3.4
		c0.505-0.089,0.894-0.188,0.862-0.22c-0.081-0.08-2.121,0.299-3.938,0.732c-1.411,0.336-3.159,0.945-5.95,2.075
		c-1.204,0.488-1.338,0.522-1.338,0.349c0-0.558,7.641-3.378,10.194-3.761c0.326-0.049,0.564-0.117,0.528-0.152
		c-0.083-0.084-1.405,0.159-3.435,0.632c-1.54,0.359-3.393,0.997-6.499,2.238c-1.954,0.78-1.966,0.604-0.026-0.37
		c2.457-1.232,4.559-1.999,7.666-2.795c2.078-0.533,2.192-0.645,0.25-0.244c-2.463,0.506-3.433,0.791-5.687,1.669
		c-2.528,0.985-2.867,1.09-2.867,0.883c0-0.188,0.991-0.679,3.015-1.491C45.004,35.481,52.317,34.409,59.288,34.891 M37.115,45.885
		l-0.077,0.475l-0.779,0.037c-0.429,0.021-0.839,0.109-0.912,0.196c-0.133,0.161-1.071,5.477-1.002,5.684
		c0.047,0.14,5.287-3.373,6.537-4.382c1.578-1.276,1.562-1.471-0.114-1.471c-1.116,0-1.272-0.027-1.205-0.2
		c0.043-0.11,0.077-0.339,0.077-0.508v-0.307h3.676h3.676v0.307c0,0.608-0.113,0.708-0.811,0.708c-0.79,0-1.316,0.262-2.701,1.343
		c-0.945,0.74-4.461,3.131-5.093,3.468c-0.299,0.156-0.293,0.165,0.709,1.192c0.557,0.568,1.895,2.03,2.974,3.25
		c2.871,3.243,3.609,3.832,4.807,3.832c0.508,0,0.623,0.038,0.566,0.186c-0.04,0.103-0.071,0.324-0.071,0.493v0.308h-3.083
		c-4.458,0-4.331,0.07-7.611-4.343c-1.022-1.376-1.912-2.504-1.977-2.504c-0.5,0-0.742,0.576-1.009,2.408
		c-0.486,3.335-0.452,3.423,1.279,3.423c0.993,0,1.135,0.027,1.068,0.2c-0.042,0.111-0.076,0.339-0.076,0.508v0.308h-4.754h-4.752
		v-0.308c0-0.633,0.101-0.708,0.957-0.708c1.003,0,0.797,0.625,1.774-5.334c1.269-7.738,1.27-7.722-0.415-7.722
		c-0.438,0-0.795-0.05-0.795-0.112c0-0.061,0.035-0.288,0.079-0.506l0.08-0.396h4.528h4.527L37.115,45.885 M60.492,48.143
		c3.588,0.723,5.315,3.82,4.007,7.183c-2.62,6.731-15.952,7.688-16.993,1.22C46.633,51.125,53.439,46.721,60.492,48.143
		 M74.524,48.643l-0.053,0.442h-0.676c-0.858,0-0.71-0.449-1.522,4.584c-0.988,6.113-0.998,5.938,0.332,5.938h0.88v0.442v0.445
		h-3.913h-3.914l0.083-0.414c0.08-0.391,0.116-0.413,0.713-0.451c0.846-0.052,0.729,0.293,1.513-4.463
		c0.996-6.027,0.991-6.082-0.464-6.082c-0.732,0-0.763-0.013-0.689-0.284c0.042-0.158,0.077-0.357,0.079-0.444
		c0.001-0.124,0.855-0.159,3.843-0.159h3.84L74.524,48.643 M84.211,48.397c-0.043,0.111-0.077,0.312-0.077,0.445
		c0,0.219-0.1,0.242-1.006,0.242c-0.848,0-1.016,0.035-1.071,0.222c-0.447,1.495-1.559,9.714-1.357,10.031
		c0.44,0.697,5.674,0.035,6.427-0.811c0.867-0.974,1.309-0.489,0.843,0.93l-0.339,1.038h-6.376c-6.198,0-6.374-0.009-6.374-0.245
		c0-0.543,0.13-0.643,0.827-0.643c0.633,0,0.679-0.021,0.748-0.35c0.173-0.833,1.335-8.157,1.411-8.911
		c0.11-1.069-0.047-1.262-1.03-1.262c-0.594,0-0.688-0.033-0.688-0.242c0-0.669-0.152-0.646,4.146-0.646
		C83.884,48.197,84.279,48.218,84.211,48.397 M55.647,49.016c-4.184,1.308-5.463,9.398-1.683,10.654
		c3.508,1.165,6.509-1.809,6.522-6.464C60.497,49.734,58.602,48.093,55.647,49.016 M90.092,58.885c0,0.749,0.227,1.188,0.552,1.062
		c0.164-0.062,0.209-0.257,0.209-0.908c0-0.741,0.025-0.827,0.254-0.827c0.403,0,0.38,1.798-0.029,2.084
		c-0.389,0.271-0.885,0.247-1.216-0.061c-0.4-0.373-0.42-2.023-0.023-2.023C90.06,58.212,90.092,58.298,90.092,58.885
		 M93.155,58.423c0.328,0.297,0.29,0.549-0.085,0.549c-0.175,0-0.317-0.056-0.317-0.125c0-0.071-0.114-0.127-0.253-0.127
		c-0.399,0-0.295,0.213,0.146,0.301c0.546,0.11,0.741,0.298,0.741,0.72c0,0.684-1.009,1.014-1.521,0.5
		c-0.499-0.5-0.126-0.902,0.396-0.429c0.139,0.126,0.316,0.172,0.455,0.119c0.276-0.108-0.096-0.451-0.488-0.451
		c-0.482,0-0.678-0.658-0.328-1.108C92.077,58.143,92.884,58.174,93.155,58.423 M95.175,59.125c0.556,1.359,0.557,1.37,0.2,1.37
		c-0.203,0-0.333-0.088-0.376-0.255c-0.048-0.182-0.173-0.253-0.45-0.253c-0.272,0-0.407,0.073-0.465,0.253
		c-0.075,0.235-0.437,0.347-0.601,0.182c-0.038-0.04,0.072-0.424,0.248-0.856c0.176-0.431,0.369-0.915,0.432-1.076
		C94.379,57.924,94.788,58.181,95.175,59.125 M94.401,59.29c0,0.104,0.057,0.189,0.127,0.189c0.069,0,0.127-0.086,0.127-0.189
		c0-0.104-0.058-0.19-0.127-0.19C94.458,59.1,94.401,59.186,94.401,59.29"/>
	<path id="path2" fill="#656669" d="M46.337,12.672c12.224,0.019,32.188,0.019,44.367,0c12.177-0.018,2.176-0.032-22.226-0.032
		C44.076,12.64,34.112,12.654,46.337,12.672 M115.253,38.563c0,12.865,0.015,18.126,0.032,11.695c0.019-6.433,0.019-16.957,0-23.389
		C115.268,20.438,115.253,25.7,115.253,38.563 M21.701,38.501c0,12.758,0.015,17.959,0.034,11.558
		c0.018-6.404,0.018-16.842,0-23.199C21.716,20.503,21.701,25.741,21.701,38.501 M40.516,17.561c0.057,0.058,0.354,0.085,0.66,0.062
		l0.556-0.042l-0.66-0.062C40.709,17.485,40.459,17.504,40.516,17.561 M48.484,17.612c0.228,0.028,0.57,0.028,0.76-0.001
		c0.191-0.029,0.004-0.052-0.414-0.051C48.412,17.562,48.256,17.585,48.484,17.612 M52.602,17.614c0.331,0.026,0.873,0.026,1.204,0
		s0.061-0.048-0.602-0.048C52.541,17.566,52.271,17.588,52.602,17.614 M58.497,17.61c0.156,0.03,0.413,0.03,0.57,0
		s0.028-0.055-0.285-0.055C58.467,17.556,58.34,17.58,58.497,17.61 M77.985,19.93c0.272,0.278,0.523,0.507,0.559,0.507
		s-0.159-0.229-0.431-0.507c-0.272-0.279-0.524-0.507-0.56-0.507S77.713,19.65,77.985,19.93 M82.101,23.891
		c0.311,0.331,0.581,0.603,0.602,0.603c0.096,0-0.005-0.114-0.565-0.64l-0.602-0.565L82.101,23.891 M78.303,25.19
		c0.659,0.662,1.228,1.204,1.263,1.204s-0.477-0.542-1.136-1.204c-0.66-0.662-1.229-1.204-1.263-1.204
		C77.132,23.986,77.644,24.528,78.303,25.19 M98.999,26.866c0.191,0.029,0.478,0.027,0.634-0.002
		c0.155-0.03-0.002-0.054-0.352-0.054C98.934,26.812,98.806,26.837,98.999,26.866 M105.208,26.865c0.191,0.029,0.506,0.029,0.697,0
		c0.191-0.028,0.035-0.053-0.349-0.053C105.174,26.812,105.016,26.837,105.208,26.865 M41.265,31.687
		c1.347,0.021,3.514,0.021,4.817,0c1.302-0.02,0.201-0.037-2.449-0.037S39.917,31.667,41.265,31.687 M55.334,31.687
		c0.857,0.021,2.226,0.021,3.042,0c0.815-0.022,0.114-0.04-1.561-0.04C55.143,31.646,54.476,31.664,55.334,31.687 M62.877,31.687
		c1.103,0.021,2.871,0.021,3.93,0c1.059-0.021,0.157-0.039-2.004-0.039C62.641,31.647,61.774,31.666,62.877,31.687 M72.116,31.687
		c0.745,0.021,2,0.022,2.789,0c0.787-0.022,0.178-0.041-1.356-0.041C72.016,31.646,71.37,31.664,72.116,31.687 M96.335,32.06
		c0.122,0.032,0.321,0.032,0.443,0c0.121-0.032,0.022-0.058-0.221-0.058C96.312,32.002,96.213,32.027,96.335,32.06 M54.693,34.855
		c0.645,0.022,1.7,0.022,2.345,0c0.645-0.023,0.117-0.042-1.173-0.042C54.576,34.813,54.048,34.832,54.693,34.855 M51.905,34.977
		c0.159,0.03,0.387,0.029,0.508-0.002s-0.007-0.056-0.286-0.055S51.748,34.946,51.905,34.977 M59.573,34.975
		c0.122,0.032,0.321,0.032,0.443,0c0.123-0.031,0.022-0.058-0.221-0.058C59.551,34.917,59.452,34.943,59.573,34.975 M48.995,36.02
		c-0.544,0.075-1.023,0.277-0.598,0.251c0.711-0.044,2.256-0.339,1.764-0.337C49.848,35.935,49.322,35.974,48.995,36.02
		 M47.499,36.282c0,0.069,0.114,0.127,0.254,0.127c0.139,0,0.254-0.058,0.254-0.127c0-0.07-0.115-0.127-0.254-0.127
		C47.613,36.155,47.499,36.212,47.499,36.282 M46.801,36.409c0.044,0.069,0.164,0.126,0.269,0.126c0.105,0,0.156-0.057,0.113-0.126
		c-0.044-0.07-0.164-0.127-0.269-0.127C46.809,36.282,46.759,36.339,46.801,36.409 M46.105,36.535
		c0.104,0.067,0.276,0.123,0.38,0.123c0.169,0,0.169-0.014,0-0.123c-0.104-0.067-0.275-0.122-0.38-0.122
		C45.936,36.413,45.936,36.427,46.105,36.535 M45.407,36.662c0.14,0.06,0.339,0.109,0.444,0.109c0.12,0,0.096-0.041-0.063-0.109
		c-0.139-0.06-0.339-0.108-0.444-0.108C45.225,36.554,45.248,36.594,45.407,36.662 M50.637,36.752c0.157,0.03,0.414,0.03,0.57,0
		c0.156-0.03,0.028-0.055-0.285-0.055C50.608,36.697,50.479,36.722,50.637,36.752 M49.084,36.92
		c-0.166,0.074-0.013,0.087,0.442,0.037c0.384-0.041,0.722-0.096,0.751-0.122C50.39,36.737,49.323,36.812,49.084,36.92
		 M48.197,37.043c-0.101,0.161,0.194,0.161,0.444,0c0.154-0.101,0.138-0.124-0.088-0.126C48.399,36.917,48.239,36.973,48.197,37.043
		 M47.309,37.17c0.043,0.069,0.161,0.126,0.261,0.126c0.1,0,0.183-0.057,0.183-0.126c0-0.07-0.118-0.127-0.261-0.127
		C47.348,37.043,47.266,37.1,47.309,37.17 M46.611,37.296c0.104,0.068,0.277,0.123,0.38,0.123c0.169,0,0.169-0.014,0-0.123
		c-0.104-0.067-0.276-0.123-0.38-0.123C46.442,37.173,46.442,37.188,46.611,37.296 M45.915,37.423
		c0.139,0.061,0.338,0.109,0.444,0.109c0.119,0,0.096-0.04-0.064-0.109c-0.14-0.06-0.339-0.108-0.444-0.108
		C45.731,37.314,45.755,37.354,45.915,37.423 M45.281,37.55c0.139,0.06,0.339,0.109,0.444,0.109c0.119,0,0.096-0.041-0.064-0.109
		c-0.14-0.06-0.339-0.109-0.444-0.109C45.097,37.44,45.121,37.481,45.281,37.55 M49.44,37.666c-0.362,0.044-0.7,0.121-0.75,0.172
		c-0.118,0.117,0.024,0.107,1.344-0.095C51.125,37.577,50.664,37.517,49.44,37.666 M47.879,37.931c0,0.069,0.083,0.126,0.183,0.126
		S48.28,38,48.323,37.931c0.042-0.07-0.039-0.128-0.183-0.128C47.997,37.803,47.879,37.86,47.879,37.931 M47.119,38.057
		c0.25,0.162,0.543,0.162,0.444,0c-0.044-0.069-0.204-0.126-0.356-0.125C46.98,37.934,46.964,37.957,47.119,38.057 M51.082,38.401
		c0.192,0.029,0.478,0.028,0.634-0.002s-0.002-0.054-0.351-0.053C51.017,38.347,50.889,38.372,51.082,38.401 M49.464,38.562
		c-0.159,0.067,0.009,0.081,0.443,0.037c0.384-0.039,0.722-0.092,0.751-0.117C50.767,38.389,49.707,38.459,49.464,38.562
		 M48.449,38.69c-0.042,0.069,0.037,0.128,0.176,0.128c0.14,0,0.289-0.059,0.332-0.128c0.042-0.069-0.036-0.127-0.176-0.127
		C48.643,38.563,48.493,38.621,48.449,38.69 M47.689,38.818c0.043,0.068,0.161,0.126,0.261,0.126s0.183-0.058,0.183-0.126
		c0-0.07-0.118-0.128-0.261-0.128S47.646,38.748,47.689,38.818 M46.929,38.944c0.043,0.07,0.164,0.126,0.269,0.126
		s0.155-0.056,0.112-0.126s-0.164-0.126-0.269-0.126S46.886,38.874,46.929,38.944 M55.137,39.037c0.331,0.027,0.873,0.027,1.204,0
		c0.331-0.025,0.061-0.047-0.603-0.047C55.076,38.99,54.805,39.012,55.137,39.037 M52.158,39.16c0.157,0.031,0.414,0.031,0.57,0
		c0.157-0.029,0.029-0.055-0.285-0.055C52.129,39.105,52.001,39.131,52.158,39.16 M58.623,39.16c0.157,0.031,0.414,0.031,0.57,0
		c0.157-0.029,0.029-0.055-0.285-0.055S58.466,39.131,58.623,39.16 M50.573,39.285c0.121,0.031,0.322,0.031,0.444,0
		c0.123-0.031,0.022-0.059-0.222-0.059C50.551,39.227,50.451,39.254,50.573,39.285 M111.573,42.122
		c-0.046,0.075-0.05,0.169-0.008,0.211c0.042,0.041,0.076,0.006,0.076-0.08c0-0.085,0.054-0.121,0.117-0.081
		c0.065,0.04,0.154,0.015,0.198-0.057s-0.006-0.129-0.11-0.129S111.619,42.047,111.573,42.122 M85.836,43.327
		c0.692,0.235,1.285,0.404,1.317,0.371c0.068-0.066,0.039-0.079-1.309-0.503C84.371,42.733,84.365,42.819,85.836,43.327
		 M85.455,44.087c0.692,0.238,1.286,0.405,1.318,0.374c0.067-0.069,0.037-0.082-1.309-0.504
		C83.991,43.494,83.985,43.582,85.455,44.087 M85.042,44.837c1.258,0.438,1.456,0.493,1.311,0.349
		c-0.126-0.123-1.845-0.673-2.049-0.653C84.245,44.536,84.577,44.674,85.042,44.837 M97.222,45.116c0.122,0.032,0.322,0.032,0.443,0
		c0.122-0.033,0.023-0.058-0.222-0.058C97.2,45.059,97.101,45.083,97.222,45.116 M99.377,45.25c0.4,0.025,1.057,0.025,1.458,0
		c0.4-0.026,0.072-0.046-0.729-0.046S98.976,45.224,99.377,45.25 M84.872,45.666c1.492,0.516,1.629,0.554,1.48,0.405
		c-0.125-0.125-2.217-0.798-2.427-0.779C83.866,45.296,84.291,45.466,84.872,45.666 M96.335,45.497c0.122,0.031,0.321,0.031,0.443,0
		c0.121-0.031,0.022-0.059-0.221-0.059C96.312,45.438,96.213,45.466,96.335,45.497 M101.532,45.497c0.121,0.031,0.321,0.031,0.442,0
		c0.123-0.031,0.023-0.059-0.221-0.059S101.41,45.466,101.532,45.497 M98.621,45.628c0.333,0.027,0.846,0.027,1.14,0
		c0.295-0.026,0.021-0.048-0.605-0.048C98.527,45.58,98.286,45.604,98.621,45.628 M97.667,46.007
		c0.158,0.028,0.386,0.028,0.507-0.005c0.121-0.031-0.008-0.056-0.286-0.054C97.608,45.95,97.51,45.975,97.667,46.007
		 M102.04,46.004c0.121,0.031,0.321,0.031,0.442,0c0.122-0.033,0.021-0.058-0.222-0.058
		C102.017,45.946,101.916,45.971,102.04,46.004 M96.844,46.387c0.192,0.029,0.478,0.029,0.634,0
		c0.155-0.031-0.003-0.055-0.351-0.055C96.778,46.334,96.651,46.357,96.844,46.387 M100.835,46.387c0.156,0.029,0.413,0.029,0.569,0
		c0.157-0.031,0.029-0.057-0.285-0.057C100.807,46.33,100.678,46.355,100.835,46.387 M98.423,46.896
		c0.226,0.026,0.625,0.026,0.888,0c0.264-0.027,0.079-0.051-0.409-0.051C98.414,46.844,98.199,46.867,98.423,46.896 M100.962,46.896
		c0.227,0.026,0.598,0.026,0.823,0c0.228-0.029,0.041-0.053-0.412-0.053S100.735,46.867,100.962,46.896 M90.282,47.185
		c-0.16,0.068-0.184,0.108-0.063,0.108c0.104,0,0.304-0.048,0.443-0.108c0.16-0.069,0.183-0.108,0.063-0.108
		C90.621,47.076,90.421,47.124,90.282,47.185 M95.828,47.145c0.121,0.031,0.321,0.031,0.443,0s0.022-0.059-0.222-0.059
		S95.706,47.113,95.828,47.145 M106.001,47.185c0.139,0.061,0.339,0.108,0.443,0.108c0.119,0,0.096-0.04-0.063-0.108
		c-0.139-0.061-0.34-0.108-0.444-0.108C105.816,47.076,105.841,47.115,106.001,47.185 M98.241,47.278c0.544,0.023,1.4,0.023,1.902,0
		c0.502-0.025,0.057-0.044-0.988-0.044C98.109,47.234,97.698,47.253,98.241,47.278 M97.222,47.652c0.122,0.031,0.322,0.031,0.443,0
		c0.122-0.033,0.023-0.059-0.222-0.059C97.2,47.594,97.101,47.619,97.222,47.652 M102.546,47.652c0.122,0.031,0.322,0.031,0.444,0
		c0.122-0.033,0.021-0.059-0.223-0.059C102.524,47.594,102.424,47.619,102.546,47.652 M99.504,47.784
		c0.331,0.026,0.873,0.026,1.204,0c0.331-0.025,0.06-0.049-0.603-0.049S99.172,47.759,99.504,47.784 M57.418,47.909
		c0.191,0.027,0.506,0.027,0.698,0c0.191-0.029,0.035-0.055-0.35-0.055C57.383,47.854,57.227,47.88,57.418,47.909 M96.399,48.034
		c0.158,0.029,0.386,0.029,0.508-0.002c0.12-0.033-0.009-0.057-0.287-0.057C96.341,47.978,96.242,48.003,96.399,48.034
		 M101.404,48.032c0.123,0.031,0.322,0.031,0.445,0c0.121-0.033,0.021-0.059-0.223-0.059
		C101.383,47.974,101.283,47.999,101.404,48.032 M105.873,48.072c0.14,0.059,0.34,0.108,0.444,0.108c0.12,0,0.096-0.042-0.063-0.108
		c-0.14-0.061-0.339-0.111-0.443-0.111C105.69,47.961,105.714,48.003,105.873,48.072 M98.871,48.162
		c0.193,0.029,0.479,0.029,0.634-0.002c0.156-0.029-0.001-0.053-0.35-0.053S98.679,48.133,98.871,48.162 M97.794,48.542
		c0.158,0.029,0.386,0.027,0.507-0.004s-0.008-0.057-0.287-0.055C97.735,48.485,97.636,48.511,97.794,48.542 M101.977,48.542
		c0.158,0.029,0.387,0.027,0.508-0.004s-0.008-0.057-0.287-0.055C101.919,48.485,101.819,48.511,101.977,48.542 M96.969,48.922
		c0.191,0.029,0.505,0.029,0.696,0c0.192-0.029,0.035-0.052-0.348-0.052S96.776,48.893,96.969,48.922 M100.646,48.922
		c0.192,0.029,0.479,0.029,0.634-0.002c0.155-0.029-0.001-0.052-0.351-0.052C100.582,48.87,100.453,48.893,100.646,48.922
		 M68.703,49.973c0,0.313,0.024,0.442,0.055,0.286c0.029-0.159,0.029-0.416,0-0.57C68.727,49.529,68.703,49.659,68.703,49.973
		 M49.584,50.892l-0.5,0.539l0.538-0.502c0.296-0.275,0.539-0.518,0.539-0.538C50.161,50.294,50.05,50.391,49.584,50.892
		 M62.767,57.863l-0.373,0.413l0.413-0.374c0.227-0.204,0.412-0.39,0.412-0.411C63.218,57.394,63.113,57.479,62.767,57.863
		 M65.833,59.707c-0.034,0.055,0.148,0.08,0.405,0.057c0.783-0.075,0.876-0.127,0.251-0.142
		C66.163,59.613,65.867,59.651,65.833,59.707 M72.441,59.699c0.229,0.027,0.57,0.027,0.762-0.002
		c0.189-0.029,0.003-0.053-0.415-0.051C72.369,59.646,72.215,59.67,72.441,59.699 M75.294,59.697
		c0.192,0.029,0.478,0.029,0.634-0.003c0.155-0.029-0.002-0.052-0.351-0.052C75.229,59.645,75.102,59.668,75.294,59.697"/>
	<path id="path3" fill="#4E6093" d="M79,20.944c0.272,0.278,0.524,0.506,0.559,0.506s-0.16-0.228-0.433-0.506
		c-0.271-0.279-0.523-0.508-0.558-0.508C78.533,20.437,78.728,20.665,79,20.944 M76.274,23.162c0.449,0.453,0.845,0.824,0.88,0.824
		c0.034,0-0.304-0.371-0.753-0.824c-0.45-0.453-0.846-0.824-0.88-0.824C75.486,22.338,75.825,22.709,76.274,23.162 M83.183,25
		c0.272,0.278,0.523,0.508,0.56,0.508c0.034,0-0.16-0.229-0.433-0.508c-0.271-0.279-0.523-0.507-0.559-0.507S82.91,24.721,83.183,25
		 M100.771,26.109c1.028,0.021,2.711,0.021,3.739,0s0.187-0.039-1.869-0.039C100.584,26.07,99.743,26.088,100.771,26.109
		 M61.349,30.922c0.193,0.029,0.479,0.028,0.634-0.002c0.156-0.029-0.001-0.053-0.35-0.052
		C61.285,30.868,61.157,30.893,61.349,30.922 M67.814,30.922c0.193,0.029,0.479,0.028,0.634-0.002
		c0.156-0.029-0.002-0.053-0.35-0.052C67.75,30.868,67.622,30.893,67.814,30.922 M71.235,30.922c0.192,0.029,0.505,0.029,0.696,0
		c0.192-0.029,0.036-0.053-0.348-0.053S71.043,30.893,71.235,30.922 M75.357,30.923c0.228,0.028,0.571,0.027,0.761-0.001
		c0.19-0.029,0.004-0.052-0.414-0.052C75.285,30.871,75.13,30.895,75.357,30.923 M84.515,31.275
		c0.236,0.243,0.457,0.443,0.493,0.443c0.035,0-0.13-0.2-0.367-0.443c-0.236-0.245-0.458-0.444-0.494-0.444
		C84.112,30.831,84.277,31.03,84.515,31.275 M52.126,34.973c-5.25,0.444-10.8,1.822-14.737,3.66
		c-1.248,0.584-1.637,1.001-0.507,0.546c2.208-0.889,4.48-1.694,5.536-1.963c2.416-0.614,7.366-1.403,8.021-1.278
		c0.228,0.044,0.204,0.06-0.107,0.073c-3.112,0.135-9.44,1.896-13.089,3.644c-1.606,0.77-2.286,1.254-0.949,0.678
		c1.792-0.773,5.062-1.956,6.307-2.278c2.36-0.614,7.431-1.437,7.63-1.236c0.036,0.035-0.293,0.104-0.731,0.152
		c-3.668,0.406-8.857,1.925-12.194,3.57c-1.815,0.895-1.395,0.819,1.341-0.244c4.011-1.554,9.715-2.84,12.121-2.729
		c0.189,0.008-0.026,0.065-0.479,0.129c-5.19,0.715-10.222,2.213-13.406,3.987c-1.141,0.638-0.991,0.619,0.76-0.092
		c4.646-1.886,8.363-2.831,12.074-3.068c0.558-0.035,0.843-0.038,0.634-0.006c-5.044,0.783-8.641,1.788-11.853,3.309
		c-1.82,0.862-1.187,0.783,1.266-0.159c10.431-4.002,22.396-3.578,34.989,1.241c8.648,3.311,14.765,5.056,20.123,5.75
		c5.546,0.718,12.595-0.272,16.005-2.246c0.573-0.332,0.334-0.248-1.118,0.387c-6.145,2.694-15.11,2.289-24.868-1.119
		c-1.321-0.462-1.196-0.51,0.19-0.073c10.25,3.221,18.618,3.248,25.446,0.081c0.61-0.284,1.11-0.547,1.11-0.589
		s-0.229,0.042-0.506,0.184c-6.488,3.311-14.354,3.305-24.814-0.021c-2.775-0.884-2.531-0.9,0.486-0.035
		c9.576,2.746,17.101,2.64,23.407-0.328c0.715-0.336,1.3-0.64,1.3-0.675s-0.598,0.218-1.327,0.562
		c-6.509,3.07-14.9,2.797-25.103-0.816c-1.287-0.455-0.921-0.403,0.787,0.115c10.259,3.109,17.997,3.063,24.407-0.148
		c0.609-0.307,1.108-0.585,1.108-0.62c0-0.033-0.499,0.188-1.108,0.492c-5.393,2.703-12.226,2.985-20.125,0.832
		c-1.815-0.495-5.526-1.669-5.466-1.728c0.026-0.027,0.726,0.159,1.554,0.409c8.319,2.533,15.263,2.889,20.772,1.062
		c1.083-0.359,4.247-1.803,4.247-1.937c0-0.035-0.698,0.271-1.553,0.683c-7.702,3.705-15.257,2.815-32.611-3.838
		C67.401,35.57,60.065,34.303,52.126,34.973 M51.208,36.752c-0.157,0.03-0.414,0.03-0.57,0c-0.158-0.03-0.029-0.055,0.285-0.055
		C51.235,36.697,51.364,36.722,51.208,36.752 M51.716,38.399c-0.156,0.03-0.442,0.031-0.634,0.002
		c-0.193-0.029-0.065-0.055,0.283-0.055C51.714,38.346,51.872,38.369,51.716,38.399 M30.418,45.503c1.237,0.021,3.262,0.021,4.5,0
		c1.238-0.019,0.226-0.037-2.25-0.037C30.192,45.466,29.18,45.484,30.418,45.503 M39.722,45.505c-0.032,0.053,1.034,0.08,2.37,0.061
		c4.531-0.059,4.974-0.103,1.326-0.129C41.418,45.422,39.755,45.451,39.722,45.505 M30.162,47.564c0,0.244,0.026,0.343,0.057,0.222
		c0.033-0.124,0.033-0.322,0-0.443C30.188,47.22,30.162,47.32,30.162,47.564 M68.898,48.293c1.067,0.021,2.777,0.021,3.804,0
		c1.022-0.021,0.15-0.039-1.942-0.039C68.668,48.254,67.831,48.272,68.898,48.293 M78.207,48.293c1.099,0.021,2.896,0.021,3.993,0
		c1.099-0.021,0.199-0.039-1.996-0.039C78.008,48.254,77.109,48.272,78.207,48.293 M74.372,48.812c0,0.088-0.239,0.156-0.601,0.169
		l-0.603,0.023l0.556,0.048c0.527,0.048,0.922-0.115,0.734-0.303C74.412,48.7,74.372,48.729,74.372,48.812 M84.007,48.812
		c0,0.094-0.302,0.154-0.856,0.171l-0.854,0.025l0.811,0.044c0.752,0.044,1.196-0.095,0.987-0.303
		C84.046,48.7,84.007,48.729,84.007,48.812 M66.883,48.999c0.058,0.057,0.353,0.084,0.659,0.061l0.557-0.041l-0.66-0.063
		C67.076,48.922,66.827,48.94,66.883,48.999 M76.369,49.047c0.156,0.032,0.414,0.032,0.57,0c0.157-0.028,0.029-0.054-0.285-0.054
		C76.341,48.993,76.213,49.019,76.369,49.047 M60.594,53.016c0,0.382,0.023,0.539,0.052,0.349c0.029-0.192,0.029-0.505,0-0.697
		S60.594,52.631,60.594,53.016 M43.95,57.895c0.236,0.244,0.458,0.444,0.494,0.444c0.035,0-0.13-0.2-0.367-0.444
		c-0.236-0.242-0.458-0.443-0.493-0.443C43.549,57.451,43.713,57.652,43.95,57.895 M89.637,58.385
		c-0.036,0.097-0.045,0.48-0.02,0.856l0.047,0.684l0.023-0.783c0.02-0.629,0.068-0.796,0.246-0.842
		c0.208-0.055,0.208-0.059-0.005-0.073C89.805,58.218,89.673,58.291,89.637,58.385 M26.934,59.571
		c0.228,0.029,0.57,0.027,0.76-0.002c0.191-0.027,0.004-0.05-0.414-0.05C26.862,59.52,26.707,59.544,26.934,59.571 M34.601,59.571
		c0.261,0.027,0.689,0.027,0.95,0c0.262-0.027,0.048-0.05-0.475-0.05C34.553,59.521,34.339,59.544,34.601,59.571 M94.104,59.956
		c-0.032,0.052,0.158,0.094,0.424,0.094s0.456-0.042,0.424-0.094c-0.032-0.053-0.223-0.097-0.424-0.097
		C94.326,59.859,94.137,59.903,94.104,59.956 M54.062,60.842c0.298,0.024,0.755,0.024,1.014-0.003
		c0.26-0.026,0.016-0.048-0.542-0.048S53.765,60.814,54.062,60.842"/>
	<path id="path4" fill="#C7C8CA" d="M100.328,19.135c0.296,0.026,0.781,0.026,1.076,0c0.297-0.026,0.055-0.049-0.537-0.049
		C100.273,19.086,100.031,19.108,100.328,19.135 M64.081,19.518c1.068,0.021,2.779,0.021,3.803-0.001
		c1.023-0.021,0.15-0.038-1.941-0.038C63.852,19.479,63.014,19.496,64.081,19.518 M73.327,19.517c0.784,0.022,2.067,0.022,2.852,0
		c0.784-0.021,0.144-0.04-1.426-0.04C73.185,19.477,72.543,19.495,73.327,19.517 M85.947,19.517c0.753,0.022,1.951,0.022,2.662,0
		s0.094-0.041-1.37-0.04C85.775,19.477,85.193,19.494,85.947,19.517 M86.572,21.197c0,0.244,0.025,0.344,0.058,0.222
		c0.031-0.122,0.031-0.321,0-0.443C86.598,20.854,86.572,20.953,86.572,21.197 M80.521,22.465c0.555,0.558,1.036,1.015,1.071,1.015
		c0.034,0-0.391-0.457-0.945-1.015s-1.037-1.015-1.071-1.015S79.967,21.907,80.521,22.465 M51.043,23.13
		c0.311,0.332,0.582,0.603,0.602,0.603c0.095,0-0.005-0.114-0.565-0.64l-0.602-0.564L51.043,23.13 M84.668,26.456
		c0.537,0.552,0.994,0.979,1.017,0.947c0.021-0.032-0.42-0.484-0.978-1.005l-1.017-0.947L84.668,26.456 M81.788,28.55
		c1.254,1.254,2.308,2.281,2.343,2.281s-0.962-1.027-2.216-2.281c-1.253-1.256-2.308-2.282-2.342-2.282
		C79.537,26.268,80.535,27.294,81.788,28.55 M88.858,26.774c0,0.314,0.025,0.442,0.055,0.286c0.03-0.157,0.03-0.414,0-0.571
		C88.884,26.332,88.858,26.461,88.858,26.774 M94.021,29.35c0,0.021,0.185,0.208,0.411,0.412l0.413,0.372l-0.373-0.411
		C94.126,29.338,94.021,29.252,94.021,29.35 M74.149,29.943c0,0.244,0.025,0.345,0.057,0.223c0.033-0.122,0.033-0.322,0-0.443
		C74.175,29.6,74.149,29.7,74.149,29.943 M39.09,30.789c-0.046,0.046-0.083,0.146-0.082,0.222c0.001,0.088,0.036,0.084,0.097-0.013
		c0.052-0.082,0.351-0.172,0.663-0.199l0.568-0.05l-0.581-0.022C39.436,30.714,39.137,30.742,39.09,30.789 M47.119,30.775
		c0.425,0.097,1.366,0.112,1.312,0.024c-0.032-0.052-0.383-0.089-0.78-0.081C47.254,30.727,47.015,30.753,47.119,30.775
		 M97.668,31.05c0.228,0.028,0.57,0.028,0.761-0.001c0.189-0.029,0.004-0.052-0.415-0.052C97.595,30.998,97.44,31.021,97.668,31.05
		 M28.092,46.336c0.058,0.057,0.382,0.084,0.724,0.061l0.619-0.041l-0.723-0.061C28.314,46.261,28.036,46.28,28.092,46.336
		 M35.935,46.389c0.228,0.027,0.569,0.027,0.76-0.002c0.19-0.029,0.004-0.053-0.415-0.051
		C35.863,46.336,35.706,46.359,35.935,46.389 M40.179,46.391c0.331,0.025,0.873,0.025,1.204,0c0.331-0.027,0.061-0.048-0.602-0.048
		C40.118,46.343,39.848,46.363,40.179,46.391 M45.882,46.387c0.192,0.029,0.506,0.029,0.698,0c0.192-0.029,0.035-0.053-0.349-0.053
		S45.691,46.357,45.882,46.387 M38.626,52.063c0.379,0.384,0.716,0.697,0.752,0.697c0.034,0-0.247-0.313-0.625-0.697
		c-0.378-0.383-0.717-0.695-0.752-0.695C37.966,51.368,38.247,51.681,38.626,52.063 M33.34,58.339c0,0.383,0.024,0.541,0.052,0.35
		c0.029-0.192,0.029-0.506,0-0.698C33.364,57.799,33.34,57.955,33.34,58.339 M90.891,59.037c0.001,0.417,0.025,0.572,0.054,0.345
		s0.028-0.568-0.001-0.761C90.914,58.432,90.891,58.617,90.891,59.037 M91.274,59.162c0.001,0.489,0.023,0.673,0.051,0.409
		c0.027-0.263,0.027-0.662-0.002-0.888C91.296,58.46,91.273,58.674,91.274,59.162 M74.88,60.398c0,0.053,2.867,0.082,6.37,0.067
		c3.503-0.018,5.372-0.044,4.151-0.063C79.724,60.315,74.88,60.312,74.88,60.398 M28.77,60.463c1.308,0.02,3.446,0.02,4.753,0
		c1.308-0.021,0.238-0.037-2.376-0.037C28.532,60.426,27.462,60.442,28.77,60.463 M42.974,60.461c0.824,0.023,2.136,0.023,2.916,0
		c0.781-0.021,0.108-0.039-1.496-0.039S42.151,60.44,42.974,60.461 M67.624,60.461c1.062,0.021,2.802,0.021,3.866,0
		c1.063-0.021,0.193-0.037-1.933-0.037C67.429,60.424,66.559,60.44,67.624,60.461"/>
</g>
</svg>
