<?xml version="1.0" encoding="utf-8"?>
<!-- Generator: Adobe Illustrator 16.0.0, SVG Export Plug-In . SVG Version: 6.00 Build 0)  -->
<!DOCTYPE svg PUBLIC "-//W3C//DTD SVG 1.1//EN" "http://www.w3.org/Graphics/SVG/1.1/DTD/svg11.dtd">
<svg version="1.1" id="Layer_1" xmlns="http://www.w3.org/2000/svg" xmlns:xlink="http://www.w3.org/1999/xlink" x="0px" y="0px"
	 width="137px" height="77px" viewBox="0 0 137 77" enable-background="new 0 0 137 77" xml:space="preserve">
<g id="svgg">
	<path id="path2" fill="#404B5C" d="M55.051,19.96c0,0.368,0.016,0.508,0.033,0.311c0.017-0.196,0.017-0.498-0.001-0.67
		C55.065,19.429,55.05,19.591,55.051,19.96 M82.035,20.295c0,0.461,0.017,0.638,0.032,0.395c0.018-0.243,0.018-0.62,0-0.838
		C82.048,19.635,82.035,19.833,82.035,20.295 M64.848,21.903c0.08,0.021,0.212,0.021,0.293,0c0.081-0.021,0.014-0.038-0.146-0.038
		C64.833,21.865,64.767,21.882,64.848,21.903 M71.97,21.903c0.08,0.021,0.213,0.021,0.294,0c0.081-0.021,0.015-0.038-0.146-0.038
		C71.956,21.865,71.889,21.882,71.97,21.903 M82.035,22.767c0,0.484,0.017,0.681,0.032,0.441c0.018-0.244,0.018-0.64,0-0.881
		C82.052,22.085,82.035,22.283,82.035,22.767 M55.051,23.144c0,0.368,0.016,0.509,0.033,0.311c0.017-0.196,0.017-0.498-0.001-0.668
		C55.065,22.614,55.05,22.775,55.051,23.144 M55.125,25.784c0,0.162,0.018,0.228,0.038,0.146c0.022-0.08,0.022-0.213,0-0.293
		C55.143,25.556,55.125,25.622,55.125,25.784 M67.444,26.538c0.025,0.088,0.158,0.128,0.448,0.134l0.411,0.009l-0.375-0.036
		c-0.206-0.02-0.406-0.08-0.445-0.135C67.433,26.444,67.422,26.451,67.444,26.538 M69.038,26.683
		c0.128,0.018,0.317,0.017,0.42-0.002c0.103-0.019,0-0.036-0.232-0.036C68.995,26.646,68.911,26.663,69.038,26.683 M68.556,27.125
		l-1.676,0.047l1.65,0.018c1.029,0.012,1.668-0.014,1.701-0.065c0.028-0.047,0.041-0.076,0.025-0.066
		C70.243,27.068,69.477,27.098,68.556,27.125 M67.467,27.837c0.196,0.068,0.712,0.086,0.712,0.025c0-0.037-0.18-0.064-0.399-0.062
		C67.562,27.805,67.42,27.821,67.467,27.837 M68.934,27.858c0,0.033,0.185,0.061,0.41,0.061s0.393-0.028,0.372-0.061
		c-0.021-0.036-0.206-0.062-0.409-0.062C69.1,27.796,68.934,27.823,68.934,27.858 M59.611,29.197
		c0.15,0.019,0.376,0.018,0.503-0.001c0.126-0.019,0.002-0.034-0.274-0.033C59.564,29.162,59.461,29.177,59.611,29.197
		 M77.041,29.197c0.151,0.019,0.378,0.018,0.504-0.001c0.127-0.019,0.003-0.034-0.274-0.033
		C76.995,29.162,76.891,29.177,77.041,29.197 M73.323,30.142c0,0.529,0.014,0.746,0.029,0.481c0.016-0.265,0.016-0.699,0-0.964
		S73.323,29.611,73.323,30.142 M63.434,30.184c0,0.505,0.013,0.703,0.029,0.435c0.018-0.265,0.017-0.68,0-0.92
		C63.446,29.458,63.433,29.675,63.434,30.184 M73.822,30.142c0,0.482,0.016,0.683,0.033,0.439c0.017-0.242,0.017-0.638,0-0.88
		C73.838,29.459,73.822,29.656,73.822,30.142 M63.82,29.68c0,0.115,0.033,0.209,0.074,0.209c0.038,0,0.053-0.094,0.032-0.209
		c-0.023-0.116-0.055-0.21-0.073-0.21C63.835,29.47,63.82,29.564,63.82,29.68 M57.575,29.976c-0.15,0.167-0.149,0.176,0.047,0.356
		l0.201,0.186l-0.157-0.188c-0.149-0.182-0.151-0.195-0.005-0.356c0.084-0.093,0.134-0.167,0.109-0.167
		C57.749,29.807,57.661,29.882,57.575,29.976 M79.444,29.953c0.152,0.183,0.152,0.192,0,0.377l-0.155,0.188l0.203-0.188l0.204-0.188
		l-0.204-0.188l-0.203-0.188L79.444,29.953 M63.82,30.602c0,0.115,0.015,0.209,0.033,0.209c0.018,0,0.049-0.094,0.073-0.209
		c0.021-0.116,0.006-0.21-0.032-0.21C63.853,30.392,63.82,30.486,63.82,30.602 M59.737,31.122c0.127,0.021,0.316,0.019,0.419-0.001
		c0.104-0.019-0.001-0.034-0.233-0.034C59.694,31.087,59.61,31.104,59.737,31.122 M77,31.122c0.127,0.021,0.315,0.019,0.419-0.001
		c0.104-0.019-0.001-0.034-0.232-0.034C76.956,31.087,76.873,31.104,77,31.122 M67.759,32.404l-0.377,0.057l0.398,0.013
		c0.219,0.008,0.399-0.024,0.399-0.07c0-0.047-0.01-0.079-0.021-0.073C68.146,32.339,67.967,32.372,67.759,32.404 M68.934,32.421
		c0,0.036,0.179,0.063,0.396,0.06c0.439-0.007,0.404-0.047-0.083-0.095C69.073,32.367,68.934,32.384,68.934,32.421 M67.479,33.633
		c-0.029,0.03-0.055,0.097-0.055,0.145c0.001,0.061,0.026,0.056,0.065-0.007c0.035-0.055,0.232-0.113,0.438-0.131l0.375-0.034
		l-0.383-0.015C67.708,33.583,67.51,33.601,67.479,33.633 M69.038,33.637c0.128,0.02,0.317,0.02,0.42-0.001s0-0.036-0.232-0.036
		C68.995,33.601,68.911,33.618,69.038,33.637 M60.302,41.997c0.389,0.392,0.727,0.713,0.75,0.713c0.024,0-0.276-0.321-0.666-0.713
		c-0.39-0.391-0.728-0.711-0.75-0.711C59.611,41.286,59.912,41.606,60.302,41.997 M76.726,41.997
		c-0.342,0.348-0.605,0.629-0.582,0.629s0.323-0.281,0.667-0.629c0.344-0.345,0.604-0.627,0.582-0.627
		C77.369,41.37,77.069,41.652,76.726,41.997 M62.015,52.536l-0.331,0.354l0.355-0.33c0.332-0.309,0.395-0.381,0.332-0.381
		C62.357,52.18,62.197,52.34,62.015,52.536 M58.538,53.249l-0.289,0.312l0.314-0.289c0.292-0.269,0.353-0.337,0.288-0.337
		C58.838,52.936,58.696,53.074,58.538,53.249 M48.319,55.894c0,0.013,0.121,0.137,0.272,0.272l0.272,0.245l-0.247-0.273
		C48.387,55.885,48.319,55.828,48.319,55.894 M41.156,56.19c0.024,0.023-0.117,0.215-0.313,0.425
		c-0.358,0.382-0.358,0.382,0.082-0.032c0.504-0.479,0.475-0.438,0.313-0.438C41.169,56.145,41.132,56.166,41.156,56.19
		 M40.061,56.977l-0.331,0.356l0.356-0.332c0.331-0.31,0.394-0.381,0.331-0.381C40.403,56.62,40.243,56.78,40.061,56.977
		 M55.687,57.102l-0.204,0.231l0.252-0.211c0.137-0.115,0.267-0.217,0.285-0.229c0.02-0.013-0.002-0.021-0.048-0.021
		S55.798,56.976,55.687,57.102 M53.383,59.07l-0.246,0.273l0.272-0.245c0.253-0.229,0.309-0.3,0.246-0.3
		C53.64,58.799,53.52,58.922,53.383,59.07 M42.473,59.385c0,0.162,0.017,0.227,0.038,0.149c0.021-0.081,0.021-0.214,0-0.296
		C42.489,59.159,42.473,59.225,42.473,59.385 M67.78,60.448c0.08,0.021,0.213,0.021,0.292,0c0.082-0.021,0.014-0.037-0.146-0.037
		C67.765,60.411,67.7,60.428,67.78,60.448 M90.028,60.451c0.103,0.019,0.273,0.019,0.378,0c0.104-0.021,0.019-0.037-0.189-0.037
		C90.011,60.414,89.924,60.43,90.028,60.451 M76.496,61.187c0,0.187,0.019,0.251,0.036,0.146c0.021-0.104,0.021-0.253-0.001-0.334
		C76.511,60.92,76.495,61.002,76.496,61.187 M66.372,61.417l-0.247,0.274l0.272-0.247c0.15-0.135,0.272-0.258,0.272-0.272
		C66.67,61.105,66.601,61.164,66.372,61.417 M85.312,61.585l-0.416,0.441l0.44-0.416c0.241-0.229,0.439-0.427,0.439-0.44
		C85.776,61.105,85.698,61.177,85.312,61.585 M73.284,61.71l-0.288,0.316l0.316-0.289c0.29-0.27,0.352-0.342,0.287-0.342
		C73.586,61.396,73.445,61.538,73.284,61.71 M62.518,62.424l-0.248,0.272l0.272-0.246c0.15-0.137,0.273-0.258,0.273-0.272
		C62.815,62.114,62.747,62.168,62.518,62.424 M81.287,63.26l-0.246,0.273l0.273-0.245c0.148-0.136,0.271-0.259,0.271-0.272
		C81.586,62.95,81.517,63.007,81.287,63.26 M93.766,63.868c0,0.37,0.015,0.511,0.032,0.313c0.018-0.196,0.018-0.501,0-0.671
		C93.779,63.341,93.766,63.501,93.766,63.868 M70.985,63.409c-0.027,0.045-0.022,0.082,0.011,0.082c0.034,0-0.064,0.143-0.225,0.314
		l-0.288,0.315l0.3-0.276c0.166-0.15,0.301-0.33,0.301-0.397C71.084,63.305,71.058,63.293,70.985,63.409 M77.247,63.827
		c0,0.162,0.019,0.228,0.04,0.146c0.021-0.079,0.021-0.211,0-0.293C77.266,63.601,77.247,63.666,77.247,63.827 M63.732,63.791
		c-0.142,0.17,0.052,0.214,0.204,0.049c0.118-0.133,0.12-0.152,0.01-0.152C63.876,63.688,63.779,63.735,63.732,63.791"/>
	<path id="path3" fill="#7A89AF" d="M55.106,16.776c0,0.162,0.015,0.292,0.034,0.292c0.018,0,0.047-0.131,0.065-0.292
		c0.02-0.162,0.005-0.294-0.033-0.294C55.137,16.482,55.106,16.614,55.106,16.776 M81.907,16.818
		c0.017,0.185,0.048,0.333,0.065,0.333c0.019,0,0.032-0.149,0.032-0.333s-0.03-0.336-0.065-0.336
		C81.903,16.482,81.89,16.633,81.907,16.818 M55.051,18.661c0,0.392,0.016,0.553,0.033,0.356c0.017-0.196,0.017-0.516,0-0.712
		C55.067,18.109,55.051,18.269,55.051,18.661 M82.034,18.787c0,0.415,0.013,0.595,0.033,0.4c0.018-0.193,0.018-0.534,0-0.754
		C82.048,18.212,82.034,18.373,82.034,18.787 M66.87,20.713c0,0.554,0.014,0.77,0.029,0.479c0.017-0.289,0.017-0.741,0-1.004
		C66.882,19.924,66.87,20.16,66.87,20.713 M70.222,20.797c0,0.507,0.014,0.704,0.03,0.437c0.017-0.266,0.017-0.681,0-0.92
		C70.234,20.073,70.222,20.29,70.222,20.797 M66.838,22.725c0.155,0.162,0.303,0.292,0.326,0.292c0.022,0-0.087-0.131-0.242-0.292
		c-0.157-0.162-0.304-0.293-0.326-0.293C66.572,22.432,66.681,22.563,66.838,22.725 M70.185,22.745l-0.289,0.315l0.314-0.288
		c0.295-0.27,0.354-0.34,0.289-0.34C70.487,22.432,70.344,22.573,70.185,22.745 M82.034,24.275c0,0.392,0.013,0.553,0.033,0.356
		c0.018-0.196,0.018-0.517,0-0.712C82.047,23.724,82.034,23.884,82.034,24.275 M55.051,24.401c0,0.37,0.016,0.509,0.033,0.312
		c0.017-0.197,0.017-0.499-0.001-0.671C55.065,23.871,55.05,24.033,55.051,24.401 M68.366,26.119c0,0.162,0.018,0.228,0.038,0.146
		c0.021-0.08,0.021-0.212,0-0.293C68.384,25.892,68.366,25.958,68.366,26.119 M68.701,26.119c0,0.162,0.018,0.228,0.038,0.146
		c0.021-0.08,0.021-0.212,0-0.293C68.719,25.892,68.701,25.958,68.701,26.119 M81.945,26.245c0,0.231,0.018,0.315,0.035,0.187
		c0.021-0.127,0.02-0.315,0-0.418C81.961,25.91,81.944,26.014,81.945,26.245 M68.198,26.203c0,0.162,0.018,0.227,0.038,0.146
		c0.022-0.08,0.022-0.212,0-0.294C68.216,25.975,68.198,26.041,68.198,26.203 M68.869,26.203c0,0.162,0.017,0.227,0.038,0.146
		c0.021-0.08,0.021-0.212,0-0.294C68.886,25.975,68.869,26.041,68.869,26.203 M55.129,26.37c0,0.208,0.016,0.293,0.037,0.19
		c0.019-0.104,0.019-0.274,0-0.377C55.146,26.078,55.129,26.162,55.129,26.37 M81.859,27.586c0.001,0.183,0.018,0.249,0.038,0.145
		c0.02-0.104,0.019-0.254-0.002-0.334C81.874,27.316,81.858,27.4,81.859,27.586 M55.209,27.628c0,0.16,0.018,0.227,0.038,0.145
		c0.022-0.08,0.022-0.211,0-0.292C55.227,27.4,55.209,27.466,55.209,27.628 M60.488,28.131c0,0.162,0.017,0.227,0.039,0.146
		c0.021-0.081,0.021-0.214,0-0.294C60.505,27.902,60.488,27.968,60.488,28.131 M68.409,27.937c0.106,0.021,0.256,0.021,0.336-0.001
		c0.08-0.021-0.005-0.037-0.19-0.036C68.371,27.9,68.305,27.917,68.409,27.937 M73.415,30.142c0,0.543,0.028,0.971,0.062,0.95
		c0.036-0.021,0.063-0.448,0.063-0.95c0-0.502-0.027-0.93-0.063-0.952C73.443,29.168,73.415,29.596,73.415,30.142 M58.739,29.348
		c-0.028,0.071-0.027,0.153,0.001,0.182c0.029,0.028,0.052-0.008,0.052-0.082s0.085-0.15,0.19-0.171l0.188-0.036l-0.19-0.011
		C58.874,29.225,58.766,29.277,58.739,29.348 M63.27,29.33c-0.023,0.062-0.031,0.466-0.017,0.902l0.024,0.788l0.041-0.9
		C63.36,29.227,63.353,29.116,63.27,29.33 M78.125,29.273c0.101,0.023,0.201,0.104,0.226,0.181c0.031,0.102,0.037,0.096,0.023-0.025
		c-0.011-0.113-0.083-0.171-0.226-0.181C77.976,29.235,77.971,29.24,78.125,29.273 M73.639,30.157
		c-0.007,0.447,0.015,0.83,0.05,0.852c0.034,0.022,0.055-0.23,0.039-0.562C73.688,29.427,73.653,29.31,73.639,30.157 M66.146,29.529
		c0.103,0.021,0.272,0.021,0.377,0c0.104-0.019,0.019-0.035-0.188-0.035C66.128,29.494,66.042,29.51,66.146,29.529 M70.589,29.529
		c0.104,0.021,0.272,0.021,0.375,0c0.105-0.019,0.02-0.035-0.187-0.035C70.568,29.494,70.484,29.51,70.589,29.529 M63.074,29.694
		c-0.003,0.099-0.054,0.2-0.112,0.224c-0.082,0.033-0.082,0.043,0.002,0.048c0.128,0.008,0.221-0.195,0.158-0.347
		C63.1,29.561,63.078,29.594,63.074,29.694 M62.815,30.142c0,0.046,0.056,0.084,0.126,0.084c0.068,0,0.125-0.038,0.125-0.084
		c0-0.047-0.056-0.084-0.125-0.084C62.872,30.058,62.815,30.094,62.815,30.142 M74.045,30.142c0,0.046,0.057,0.084,0.126,0.084
		c0.067,0,0.126-0.038,0.126-0.084c0-0.047-0.059-0.084-0.126-0.084C74.102,30.058,74.045,30.094,74.045,30.142 M62.952,30.364
		c0.053,0.04,0.117,0.145,0.141,0.238c0.037,0.133,0.043,0.125,0.031-0.036c-0.008-0.112-0.072-0.219-0.14-0.236
		C62.899,30.308,62.889,30.318,62.952,30.364 M58.736,30.853c0.01,0.113,0.083,0.172,0.226,0.182
		c0.174,0.011,0.18,0.006,0.026-0.027c-0.101-0.021-0.203-0.103-0.226-0.181C58.73,30.726,58.724,30.732,58.736,30.853
		 M66.146,30.787c0.103,0.021,0.272,0.021,0.377,0s0.019-0.037-0.188-0.037C66.128,30.75,66.042,30.767,66.146,30.787
		 M70.589,30.787c0.104,0.021,0.272,0.021,0.375,0c0.105-0.021,0.02-0.037-0.187-0.037C70.568,30.75,70.484,30.767,70.589,30.787
		 M78.318,30.834c0,0.072-0.086,0.15-0.189,0.169l-0.189,0.037l0.193,0.011c0.184,0.01,0.345-0.192,0.235-0.3
		C78.341,30.722,78.318,30.761,78.318,30.834 M60.488,32.152c0,0.161,0.017,0.228,0.039,0.147c0.021-0.081,0.021-0.213,0-0.293
		C60.505,31.925,60.488,31.99,60.488,32.152 M68.409,32.379c0.106,0.021,0.256,0.019,0.336-0.001c0.08-0.021-0.005-0.037-0.19-0.036
		C68.371,32.342,68.305,32.358,68.409,32.379 M66.826,32.93c0.036,0.034,0.837,0.054,1.777,0.041l1.714-0.023l-1.778-0.042
		C67.562,32.883,66.791,32.894,66.826,32.93 M67.784,33.136c0.452,0.016,1.167,0.016,1.593,0c0.425-0.015,0.056-0.026-0.821-0.026
		C67.68,33.11,67.332,33.121,67.784,33.136 M68.198,34.08c0,0.16,0.018,0.227,0.038,0.146c0.022-0.081,0.022-0.212,0-0.292
		C68.216,33.853,68.198,33.918,68.198,34.08 M68.869,34.08c0,0.16,0.017,0.227,0.038,0.146c0.021-0.081,0.021-0.212,0-0.292
		C68.886,33.853,68.869,33.918,68.869,34.08 M68.701,34.163c0,0.162,0.018,0.228,0.038,0.147c0.021-0.081,0.021-0.214,0-0.294
		C68.719,33.937,68.701,34.002,68.701,34.163 M66.875,37.536l-0.247,0.272l0.271-0.246c0.151-0.135,0.272-0.258,0.272-0.272
		C67.171,37.226,67.104,37.282,66.875,37.536 M70.189,37.557c0.155,0.162,0.305,0.292,0.326,0.292c0.023,0-0.085-0.131-0.242-0.292
		c-0.156-0.161-0.304-0.293-0.324-0.293C69.924,37.264,70.033,37.396,70.189,37.557 M66.87,39.484c0,0.553,0.014,0.768,0.029,0.479
		c0.017-0.29,0.017-0.742,0-1.005C66.882,38.695,66.87,38.932,66.87,39.484 M70.222,39.484c0,0.507,0.014,0.704,0.03,0.438
		c0.017-0.269,0.017-0.682,0-0.922C70.234,38.759,70.222,38.978,70.222,39.484 M57.951,53.834l-0.29,0.313l0.315-0.289
		c0.292-0.267,0.353-0.339,0.288-0.339C58.251,53.52,58.11,53.662,57.951,53.834 M53.535,54.08c0.08,0.021,0.213,0.021,0.293,0
		c0.082-0.021,0.015-0.038-0.146-0.038C53.521,54.042,53.454,54.06,53.535,54.08 M44.861,54.92c0.15,0.02,0.396,0.02,0.545,0
		c0.148-0.017,0.028-0.032-0.273-0.032C44.835,54.888,44.711,54.903,44.861,54.92 M43.208,55.086
		c-0.342,0.117-1.425,0.646-1.425,0.694c0,0.032,0.287-0.088,0.637-0.265s0.688-0.318,0.749-0.318c0.062,0,0.136-0.039,0.164-0.085
		c0.028-0.047,0.041-0.081,0.027-0.077C43.344,55.039,43.276,55.061,43.208,55.086 M73.689,55.59
		c0.104,0.021,0.255,0.02,0.335-0.002c0.079-0.021-0.006-0.035-0.191-0.035C73.651,55.554,73.585,55.571,73.689,55.59
		 M51.861,56.956c0,0.207,0.016,0.294,0.036,0.188c0.02-0.103,0.02-0.272,0-0.377C51.877,56.662,51.861,56.747,51.861,56.956
		 M50.096,57.543c0,0.161,0.018,0.226,0.04,0.146c0.021-0.081,0.021-0.213,0-0.293C50.114,57.315,50.096,57.381,50.096,57.543
		 M56.725,57.836c0,0.275,0.016,0.38,0.034,0.229c0.02-0.15,0.02-0.377-0.001-0.504C56.738,57.435,56.725,57.558,56.725,57.836
		 M75.238,60.368c0.13,0.019,0.317,0.019,0.419-0.003c0.104-0.019-0.001-0.035-0.23-0.034C75.196,60.331,75.111,60.35,75.238,60.368
		 M81.022,60.368c0.126,0.019,0.314,0.019,0.419-0.003c0.103-0.019-0.001-0.035-0.232-0.034
		C80.979,60.331,80.896,60.35,81.022,60.368 M82.278,61.187c0.001,0.187,0.018,0.251,0.038,0.146
		c0.019-0.104,0.019-0.253-0.002-0.334C82.294,60.92,82.277,61.002,82.278,61.187 M79.024,61.752l-0.245,0.274l0.272-0.246
		c0.149-0.137,0.271-0.26,0.271-0.273C79.323,61.442,79.255,61.5,79.024,61.752 M40.526,62.512c0,0.014,0.122,0.138,0.272,0.271
		l0.272,0.248l-0.247-0.271C40.595,62.505,40.526,62.448,40.526,62.512 M60.466,63.554l-0.458,0.481l0.482-0.456
		c0.446-0.426,0.519-0.506,0.458-0.506C60.935,63.073,60.718,63.291,60.466,63.554 M93.483,63.894l0.043,0.73l0.026-0.664
		c0.012-0.364-0.006-0.692-0.041-0.729C93.473,63.195,93.463,63.491,93.483,63.894 M91.428,63.68l-0.331,0.355l0.356-0.33
		c0.195-0.183,0.355-0.343,0.355-0.355C91.809,63.285,91.735,63.35,91.428,63.68 M64.343,63.659c0,0.161,0.017,0.229,0.038,0.146
		c0.021-0.079,0.021-0.212,0-0.294C64.36,63.434,64.343,63.498,64.343,63.659 M44.194,64.812c0.196,0.016,0.499,0.016,0.67-0.001
		c0.17-0.019,0.01-0.034-0.358-0.034C44.137,64.776,43.997,64.792,44.194,64.812 M65.268,64.808c0.128,0.021,0.316,0.02,0.419,0
		c0.103-0.021-0.001-0.035-0.232-0.035S65.141,64.79,65.268,64.808 M96.558,64.854c0.021,0.034,0.146,0.063,0.28,0.063
		c0.133,0,0.259-0.029,0.279-0.063c0.022-0.034-0.104-0.063-0.279-0.063C96.662,64.791,96.536,64.82,96.558,64.854 M97.591,64.854
		c0,0.034,0.17,0.063,0.378,0.063c0.207,0,0.376-0.029,0.376-0.063s-0.169-0.063-0.376-0.063
		C97.761,64.791,97.591,64.82,97.591,64.854"/>
	<path id="path4" fill="#AAAFD5" d="M67.933,12.394c-1.471,0.735-5.561,1.807-11.438,2.998c-1.149,0.231-2.11,0.443-2.135,0.47
		c-0.074,0.073-0.058,9.145,0.018,10.466c0.061,1.049,0.139,1.986,0.272,3.269c0.294,2.793,0.9,5.807,1.514,7.513
		c1.517,4.223,6.058,8.427,11.71,10.851l0.66,0.282l0.806-0.342c4.372-1.849,8.579-5.28,10.537-8.593
		c1.199-2.027,2.084-5.281,2.502-9.208c0.023-0.23,0.08-0.74,0.125-1.131c0.354-3.161,0.464-12.809,0.148-13.125
		c-0.023-0.024-0.322-0.099-0.659-0.169c-7.412-1.498-11.415-2.528-12.935-3.326l-0.502-0.266L67.933,12.394 M68.77,13.011
		c0.537,0.645,5.578,2.016,12.031,3.272l1.18,0.23l0.054,1.178c0.332,7.259-0.384,15.162-1.719,18.973
		c-1.328,3.793-4.854,7.299-9.855,9.799c-2.021,1.009-1.787,1.009-3.808,0c-5.015-2.507-8.527-6.001-9.864-9.815
		c-1.307-3.735-2.013-11.329-1.727-18.579l0.061-1.555l0.977-0.188c6.474-1.25,11.702-2.665,12.241-3.314
		c0.06-0.074,0.158-0.133,0.215-0.133C68.614,12.878,68.711,12.938,68.77,13.011 M68.198,17.024c-0.39,0.443-0.467,0.71-0.425,1.461
		c0.026,0.479,0.019,0.506-0.139,0.453c-0.642-0.219-0.693-0.103-0.704,1.584c-0.009,1.373,0,1.41,0.701,2.852
		c0.406,0.834,0.678,1.763,0.767,2.627c0.076,0.729,0.242,0.714,0.319-0.028c0.097-0.954,0.299-1.606,0.876-2.828l0.555-1.173
		l0.025-1.215c0.038-1.825-0.045-2.04-0.704-1.816c-0.167,0.056-0.175,0.036-0.137-0.356c0.072-0.741-0.036-1.132-0.427-1.566
		l-0.355-0.393L68.198,17.024 M64.37,22.049c-1.445,0.537-1.974,2.718-0.824,3.404c0.509,0.304,0.858,0.679,0.95,1.02l0.085,0.317
		l0.248-0.127c0.515-0.267,0.585-0.586,0.33-1.479c-0.247-0.869,0.694-1.304,1.448-0.669c0.284,0.239,0.65,0.98,0.822,1.667
		l0.111,0.44h0.354h0.353l-0.037-0.357C67.889,23.22,66.201,21.369,64.37,22.049 M71.441,22.037
		c-1.431,0.405-2.284,1.827-2.54,4.228l-0.037,0.357h0.355h0.356l0.1-0.444c0.14-0.633,0.529-1.411,0.831-1.665
		c0.752-0.632,1.692-0.194,1.443,0.671c-0.211,0.732-0.204,0.964,0.032,1.244c0.312,0.371,0.528,0.406,0.598,0.098
		c0.073-0.336,0.396-0.699,0.926-1.036C75.271,24.36,73.53,21.449,71.441,22.037 M66.979,26.843
		c-0.246,0.246-0.042,0.281,1.583,0.281c1.517,0,1.636-0.011,1.613-0.147C70.144,26.826,67.125,26.698,66.979,26.843 M61.178,27.124
		c-1.418,0.704-0.463,2.476,1.474,2.732c0.632,0.084,0.603-0.211-0.04-0.414c-1.117-0.353-1.215-1.392-0.12-1.264
		c0.451,0.054,0.922-0.169,0.594-0.28c-0.189-0.064-0.594-0.441-0.645-0.599C62.33,26.949,61.707,26.862,61.178,27.124
		 M74.925,27.05c-0.094,0.046-0.255,0.214-0.359,0.375c-0.105,0.161-0.284,0.335-0.399,0.386c-0.438,0.2-0.119,0.446,0.476,0.368
		c1.124-0.15,0.91,1-0.24,1.295c-0.504,0.127-0.646,0.415-0.207,0.415c1.246,0,2.364-0.842,2.364-1.781
		C76.559,27.326,75.613,26.715,74.925,27.05 M66.846,27.368c-0.063,0.041-0.093,0.135-0.063,0.21
		c0.089,0.233,3.449,0.159,3.449-0.078C70.231,27.318,67.116,27.195,66.846,27.368 M67.341,28.129
		c-0.135,0.325-0.685,0.82-0.983,0.884c-0.764,0.164-0.796,0.405-0.059,0.439c0.783,0.035,1.39-0.435,1.698-1.317l0.089-0.257
		h-0.321C67.489,27.879,67.43,27.913,67.341,28.129 M69.018,27.941c0.026,0.858,1.762,1.98,2.274,1.468
		c0.111-0.113-0.141-0.358-0.367-0.358c-0.33,0-0.866-0.393-1.078-0.791C69.661,27.908,69.01,27.657,69.018,27.941 M68.013,28.808
		l-0.292,0.847l0.188,0.152c0.247,0.201,1.124,0.187,1.331-0.023c0.249-0.248-0.342-1.822-0.685-1.822
		C68.312,27.963,68.295,27.988,68.013,28.808 M64.56,28.897c-0.074,0.168-0.253,0.392-0.396,0.497
		c-0.444,0.329-0.333,0.534,0.134,0.249c0.335-0.204,0.464-0.439,0.427-0.783l-0.027-0.269L64.56,28.897 M72.369,28.902
		c0,0.396,0.444,0.904,0.791,0.904c0.136,0,0.015-0.253-0.184-0.383c-0.288-0.188-0.437-0.372-0.438-0.557
		C72.533,28.589,72.369,28.622,72.369,28.902 M58.974,29.28c-0.157,0.03-0.188,0.08-0.158,0.24c0.036,0.191,0.016,0.201-0.348,0.202
		c-0.389,0-0.932,0.245-0.932,0.419c0,0.167,0.542,0.417,0.901,0.418c0.32,0,0.355,0.021,0.355,0.199
		c0,0.472,1.238,0.432,2.346-0.076c0.456-0.21,1.021-0.404,1.254-0.432c0.554-0.065,0.535-0.134-0.075-0.25
		c-0.274-0.052-0.834-0.25-1.243-0.439C60.324,29.218,59.724,29.137,58.974,29.28 M63.625,29.275
		c-0.091,0.092-0.064,1.788,0.028,1.788c0.051,0,0.084-0.364,0.084-0.922C63.737,29.221,63.73,29.169,63.625,29.275 M73.405,30.142
		c0,0.529,0.016,0.746,0.03,0.481c0.017-0.265,0.017-0.699,0-0.964C73.421,29.394,73.405,29.611,73.405,30.142 M76.032,29.563
		c-0.406,0.188-0.962,0.384-1.237,0.437c-0.604,0.116-0.632,0.186-0.093,0.25c0.224,0.026,0.788,0.22,1.256,0.43
		c1.136,0.51,2.429,0.552,2.337,0.078c-0.035-0.185-0.011-0.198,0.35-0.198c0.388-0.001,0.932-0.246,0.932-0.418
		c0-0.175-0.544-0.419-0.932-0.419c-0.36-0.001-0.385-0.013-0.35-0.197C78.385,29.068,77.049,29.091,76.032,29.563 M63.35,30.184
		c0,0.505,0.014,0.703,0.03,0.435c0.017-0.265,0.017-0.68-0.001-0.92C63.363,29.458,63.35,29.675,63.35,30.184 M73.742,30.142
		c0,0.482,0.012,0.683,0.03,0.439c0.015-0.242,0.015-0.638,0-0.88C73.754,29.459,73.742,29.656,73.742,30.142 M64.387,29.87
		c-0.492,0.164-0.524,0.357-0.084,0.496c0.173,0.054,0.376,0.123,0.454,0.152c0.251,0.098,0.458-0.324,0.287-0.586
		C64.887,29.693,64.916,29.695,64.387,29.87 M72.072,29.925c-0.188,0.288,0.021,0.68,0.315,0.587
		c0.804-0.255,0.93-0.454,0.393-0.615c-0.19-0.056-0.396-0.123-0.456-0.146C72.263,29.728,72.15,29.807,72.072,29.925
		 M68.124,30.302c-0.403,0.248-0.41,0.309-0.104,1.191c0.417,1.205,0.661,1.206,1.063,0.009c0.331-0.99,0.335-0.892-0.043-1.149
		C68.666,30.1,68.474,30.089,68.124,30.302 M62.144,30.526c-1.416,0.376-2.066,1.59-1.276,2.378c0.495,0.495,1.425,0.542,1.573,0.08
		c0.049-0.161,0.455-0.538,0.645-0.601c0.329-0.11-0.143-0.333-0.594-0.281c-1.109,0.131-0.947-1.002,0.186-1.307
		c0.28-0.074,0.388-0.146,0.388-0.253C63.066,30.358,62.799,30.353,62.144,30.526 M73.974,30.512
		c0.018,0.09,0.203,0.204,0.489,0.299c1.125,0.381,1.271,1.438,0.179,1.292c-0.595-0.079-0.913,0.168-0.476,0.367
		c0.115,0.052,0.294,0.227,0.399,0.388c0.382,0.587,1.118,0.607,1.679,0.046c0.535-0.535,0.37-1.498-0.337-1.965
		C75.264,30.514,73.912,30.215,73.974,30.512 M63.905,30.586c0,0.06,0.116,0.197,0.258,0.302c0.143,0.105,0.322,0.329,0.396,0.498
		l0.138,0.307l0.027-0.269c0.037-0.345-0.092-0.581-0.427-0.785C63.983,30.447,63.905,30.438,63.905,30.586 M72.813,30.639
		c-0.337,0.206-0.464,0.441-0.425,0.785c0.024,0.228,0.04,0.242,0.098,0.101c0.165-0.424,0.27-0.568,0.487-0.682
		c0.129-0.064,0.232-0.175,0.232-0.243C73.206,30.437,73.136,30.444,72.813,30.639 M65.816,30.853
		c-0.113,0.115,0.035,0.284,0.294,0.339c0.486,0.101,0.938,0.427,1.152,0.831c0.245,0.459,0.917,0.617,0.75,0.174
		c-0.37-0.97-0.781-1.324-1.585-1.371C66.124,30.81,65.849,30.822,65.816,30.853 M70.189,30.873
		c-0.435,0.163-0.869,0.674-1.07,1.259l-0.095,0.272h0.321c0.272,0,0.336-0.036,0.419-0.235c0.197-0.478,0.675-0.854,1.234-0.974
		c0.255-0.056,0.408-0.227,0.303-0.334C71.239,30.798,70.362,30.808,70.189,30.873 M66.849,32.682
		c-0.168,0.205-0.009,0.224,1.769,0.224c1.622,0,1.75-0.01,1.723-0.146C70.303,32.562,67.011,32.488,66.849,32.682 M66.922,33.274
		c0,0.192,0.201,0.219,1.634,0.219s1.634-0.027,1.634-0.219c0-0.096-0.294-0.116-1.634-0.116
		C67.215,33.158,66.922,33.178,66.922,33.274 M64.496,33.811c-0.091,0.34-0.44,0.714-0.95,1.018
		c-1.452,0.867-0.329,3.48,1.495,3.477c1.743-0.002,2.877-1.538,3.167-4.289l0.037-0.355h-0.353H67.54L67.43,34.1
		c-0.161,0.645-0.559,1.445-0.839,1.68c-0.74,0.623-1.677,0.175-1.432-0.683c0.232-0.805,0.217-0.987-0.106-1.31
		C64.681,33.416,64.602,33.418,64.496,33.811 M72.058,33.787c-0.323,0.323-0.337,0.505-0.106,1.31
		c0.249,0.868-0.691,1.305-1.443,0.672c-0.302-0.253-0.691-1.033-0.831-1.665l-0.1-0.443h-0.356h-0.355l0.037,0.355
		c0.291,2.75,1.422,4.281,3.167,4.292c1.856,0.011,2.936-2.638,1.433-3.519c-0.468-0.274-0.85-0.704-0.922-1.039
		C72.506,33.42,72.418,33.426,72.058,33.787 M68.389,34.31c-0.096,0.892-0.348,1.757-0.765,2.615
		c-0.699,1.443-0.704,1.462-0.695,2.836c0.011,1.687,0.062,1.802,0.704,1.583c0.158-0.053,0.166-0.025,0.139,0.453
		c-0.044,0.761,0.035,1.027,0.434,1.464l0.356,0.396l0.348-0.398c0.385-0.438,0.491-0.83,0.421-1.56
		c-0.038-0.394-0.03-0.413,0.137-0.356c0.659,0.222,0.742,0.007,0.704-1.816l-0.025-1.216l-0.486-1.005
		c-0.556-1.144-0.855-2.094-0.942-2.963C68.641,33.552,68.472,33.535,68.389,34.31 M62.502,51.066
		c0.127,0.021,0.316,0.017,0.419-0.002c0.104-0.02-0.001-0.034-0.231-0.034C62.46,51.031,62.375,51.047,62.502,51.066
		 M62.124,51.568c0.104,0.02,0.274,0.02,0.377,0c0.104-0.02,0.019-0.037-0.188-0.037C62.106,51.531,62.021,51.549,62.124,51.568
		 M57.285,54.483c-0.204,0.208-0.351,0.378-0.328,0.378c0.024,0,0.208-0.17,0.412-0.378c0.204-0.208,0.352-0.377,0.329-0.377
		C57.675,54.106,57.489,54.275,57.285,54.483 M49.492,55.992c0.156,0.16,0.305,0.293,0.326,0.293c0.022,0-0.086-0.133-0.242-0.293
		c-0.157-0.161-0.303-0.294-0.326-0.294C49.226,55.698,49.335,55.831,49.492,55.992 M59.736,60.448c0.081,0.021,0.213,0.021,0.293,0
		c0.082-0.021,0.014-0.037-0.146-0.037C59.721,60.411,59.656,60.428,59.736,60.448 M52.508,60.936
		c-0.204,0.209-0.352,0.377-0.327,0.377c0.021,0,0.208-0.168,0.411-0.377c0.204-0.207,0.352-0.378,0.329-0.378
		C52.896,60.558,52.712,60.729,52.508,60.936 M45.24,61.206c0.126,0.018,0.334,0.018,0.46,0c0.127-0.02,0.022-0.035-0.23-0.035
		C45.215,61.171,45.112,61.187,45.24,61.206 M92.014,63.095l-0.247,0.272l0.274-0.247c0.148-0.134,0.272-0.257,0.272-0.274
		C92.313,62.782,92.244,62.84,92.014,63.095 M74.583,63.596l-0.245,0.272l0.273-0.246c0.147-0.135,0.271-0.257,0.271-0.271
		C74.883,63.285,74.812,63.343,74.583,63.596 M94.94,63.954c0,0.367,0.014,0.508,0.031,0.311c0.017-0.197,0.017-0.497,0-0.67
		C94.953,63.424,94.939,63.583,94.94,63.954 M44.569,64.304c0.08,0.021,0.212,0.021,0.292,0c0.082-0.021,0.016-0.038-0.145-0.038
		C44.555,64.266,44.487,64.282,44.569,64.304 M45.282,64.306c0.104,0.019,0.256,0.019,0.335-0.002
		c0.08-0.021-0.005-0.038-0.189-0.035C45.243,64.27,45.177,64.285,45.282,64.306 M54.038,64.556c0.082,0.02,0.213,0.02,0.293,0
		c0.081-0.021,0.015-0.038-0.146-0.038C54.024,64.518,53.958,64.534,54.038,64.556 M58.019,64.808c0.103,0.02,0.273,0.02,0.376,0
		c0.104-0.021,0.02-0.036-0.188-0.036C57.999,64.771,57.915,64.787,58.019,64.808 M68.285,64.808c0.126,0.021,0.315,0.02,0.417,0
		c0.105-0.021,0-0.035-0.23-0.035C68.241,64.772,68.159,64.79,68.285,64.808 M72.601,64.808c0.104,0.021,0.254,0.02,0.335-0.002
		c0.08-0.021-0.007-0.037-0.189-0.036C72.561,64.771,72.496,64.787,72.601,64.808 M78.298,64.808
		c0.104,0.021,0.255,0.02,0.335-0.002c0.082-0.021-0.006-0.037-0.188-0.036C78.26,64.771,78.195,64.787,78.298,64.808"/>
	<path id="path1" fill="#293d68" d="M68.341,13.094c-0.493,0.595-4.68,1.76-10.8,3.007c-1.263,0.258-2.312,0.484-2.33,0.499
		c-0.224,0.226-0.147,8.559,0.107,11.517c0.709,8.257,2.233,11.764,6.66,15.321c1.873,1.505,5.842,3.797,6.576,3.797
		c0.687,0,4.671-2.276,6.454-3.687c4.753-3.76,6.341-7.73,6.917-17.304c0.142-2.355,0.106-9.678-0.045-9.678
		c-0.075,0-4.332-0.881-5.253-1.085c-4.288-0.956-7.178-1.818-7.77-2.316C68.573,12.927,68.489,12.916,68.341,13.094 M69.233,17.337
		c0.074,0.14,0.12,0.48,0.12,0.894v0.667l0.303-0.084c0.517-0.143,0.558-0.036,0.601,1.542l0.037,1.366l-0.438,0.962
		c-0.872,1.911-1.092,2.628-1.092,3.567c0,0.333-0.019,0.371-0.197,0.371c-0.187,0-0.2-0.04-0.252-0.656
		c-0.08-0.942-0.248-1.511-0.797-2.696c-0.739-1.585-0.704-1.434-0.667-2.933c0.041-1.554,0.085-1.666,0.605-1.523l0.303,0.084
		v-0.67c0-0.744,0.054-0.895,0.489-1.349l0.299-0.313l0.284,0.271C68.988,16.988,69.168,17.212,69.233,17.337 M65.94,22.063
		c1.231,0.408,2.316,2.393,2.321,4.249l0.002,0.403l-0.39-0.025l-0.389-0.025l-0.114-0.461c-0.382-1.523-1.36-2.364-2.002-1.723
		c-0.243,0.243-0.249,0.405-0.039,1.139c0.136,0.472,0.019,0.774-0.41,1.062c-0.371,0.25-0.398,0.244-0.462-0.093
		c-0.072-0.382-0.324-0.684-0.847-1.02c-1.334-0.853-0.735-3.218,0.925-3.65C64.856,21.835,65.429,21.894,65.94,22.063
		 M73.043,22.099c1.36,0.694,1.6,2.708,0.414,3.504c-0.501,0.337-0.837,0.768-0.837,1.072c0,0.246-0.067,0.247-0.427,0.006
		c-0.476-0.32-0.548-0.572-0.369-1.287c0.214-0.858-0.037-1.218-0.753-1.085c-0.577,0.108-0.943,0.612-1.299,1.79l-0.187,0.605
		h-0.381h-0.382l0.052-0.667C69.104,23.076,71.156,21.136,73.043,22.099 M70.231,26.999c0,0.162-0.063,0.168-1.628,0.189
		c-1.632,0.024-1.838-0.007-1.737-0.27C66.955,26.688,70.231,26.766,70.231,26.999 M62.19,26.995c0.159,0.066,0.29,0.158,0.29,0.204
		c0,0.157,0.436,0.598,0.595,0.598c0.206,0,0.205,0.183-0.004,0.372c-0.131,0.119-0.244,0.136-0.588,0.088
		c-1.014-0.138-0.879,0.78,0.167,1.131c0.676,0.229,0.75,0.642,0.098,0.555c-1.396-0.186-2.279-0.884-2.279-1.805
		C60.469,27.261,61.379,26.656,62.19,26.995 M75.727,26.968c1.814,0.544,0.854,2.68-1.337,2.971l-0.443,0.057l0.029-0.226
		c0.022-0.194,0.097-0.251,0.487-0.384c1.044-0.351,1.179-1.269,0.165-1.131c-0.645,0.089-1.037-0.315-0.501-0.518
		c0.137-0.051,0.327-0.228,0.423-0.391C74.802,26.92,75.171,26.801,75.727,26.968 M70.317,27.5c0,0.164-0.065,0.17-1.755,0.191
		c-1.758,0.023-1.964-0.006-1.863-0.269C66.787,27.191,70.317,27.269,70.317,27.5 M68.131,27.983
		c-0.299,0.969-0.977,1.565-1.781,1.569c-0.767,0.003-0.873-0.391-0.151-0.573c0.456-0.115,0.843-0.427,1.063-0.86
		C67.467,27.717,68.251,27.594,68.131,27.983 M69.899,28.202c0.231,0.427,0.608,0.699,1.107,0.805
		c0.659,0.14,0.457,0.547-0.271,0.547c-0.781,0-1.46-0.606-1.757-1.571C68.842,27.539,69.64,27.729,69.899,28.202 M69.128,28.71
		c0.426,1.15,0.372,1.28-0.538,1.307c-0.956,0.025-1.039-0.151-0.608-1.313C68.43,27.494,68.677,27.495,69.128,28.71 M64.797,28.676
		c0.156,0.409-0.244,1.003-0.787,1.168c-0.162,0.049-0.19,0.026-0.19-0.158c0-0.118,0.036-0.215,0.079-0.215
		c0.169,0,0.583-0.437,0.636-0.672C64.593,28.529,64.719,28.471,64.797,28.676 M72.583,28.84c0.065,0.161,0.233,0.375,0.371,0.477
		c0.304,0.223,0.358,0.585,0.079,0.512c-0.375-0.098-0.75-0.562-0.75-0.933C72.283,28.473,72.418,28.448,72.583,28.84
		 M61.208,29.546c0.475,0.22,1.008,0.397,1.361,0.45c0.73,0.115,0.732,0.176,0.006,0.288c-0.334,0.052-0.904,0.239-1.363,0.444
		c-0.891,0.403-1.149,0.451-1.917,0.358c-0.523-0.065-0.544-0.077-0.541-0.297c0.003-0.221-0.014-0.229-0.437-0.229
		c-0.349,0-0.486-0.043-0.674-0.21l-0.234-0.208l0.234-0.21c0.188-0.167,0.325-0.21,0.678-0.21c0.441,0,0.442,0,0.405-0.246
		C58.656,28.985,60.081,29.025,61.208,29.546 M63.737,30.142c0,0.615-0.033,1.006-0.084,1.006c-0.05,0-0.083-0.391-0.083-1.006
		c0-0.615,0.032-1.006,0.083-1.006C63.704,29.135,63.737,29.526,63.737,30.142 M73.541,30.148c0,0.772-0.024,1.005-0.104,0.978
		c-0.105-0.036-0.2-1.646-0.11-1.88C73.463,28.891,73.541,29.222,73.541,30.148 M77.896,29.189c0.518,0.055,0.521,0.058,0.487,0.295
		c-0.036,0.235-0.031,0.237,0.405,0.237c0.354,0,0.489,0.043,0.678,0.21l0.235,0.21l-0.235,0.208
		c-0.188,0.167-0.323,0.21-0.675,0.21c-0.424,0-0.438,0.008-0.435,0.229c0.008,0.499-1.323,0.466-2.47-0.062
		c-0.457-0.211-0.998-0.388-1.346-0.442c-0.708-0.109-0.735-0.189-0.099-0.268c0.452-0.054,0.665-0.128,1.907-0.662
		C76.886,29.124,77.074,29.104,77.896,29.189 M63.485,30.188c0,0.722-0.021,0.876-0.125,0.876c-0.13,0-0.197-1.661-0.072-1.787
		C63.432,29.134,63.485,29.387,63.485,30.188 M73.833,30.142c0,0.617-0.027,0.875-0.103,0.9c-0.079,0.027-0.104-0.188-0.104-0.9
		c0-0.712,0.025-0.927,0.104-0.902C73.806,29.266,73.833,29.522,73.833,30.142 M65.031,29.824c0.169,0.242,0.165,0.424-0.017,0.645
		l-0.147,0.178l-0.481-0.19c-0.619-0.245-0.63-0.406-0.042-0.631C64.913,29.607,64.879,29.607,65.031,29.824 M72.851,29.865
		c0.506,0.177,0.469,0.356-0.126,0.592l-0.48,0.19l-0.148-0.178c-0.263-0.321-0.058-0.917,0.269-0.782
		C72.435,29.716,72.654,29.796,72.851,29.865 M69.157,30.355c0.344,0.262,0.345,0.209-0.029,1.217
		c-0.451,1.213-0.698,1.215-1.146,0.005c-0.378-1.019-0.379-0.962,0.051-1.275C68.446,30.002,68.709,30.016,69.157,30.355
		 M63.151,30.507c0,0.166-0.083,0.228-0.5,0.381c-1.055,0.385-1.188,1.278-0.169,1.138c0.345-0.047,0.457-0.031,0.588,0.089
		c0.209,0.188,0.21,0.374,0.004,0.374c-0.159,0-0.595,0.438-0.595,0.598c0,0.194-0.595,0.338-1.005,0.239
		c-1.182-0.283-1.341-1.723-0.274-2.464C61.871,30.395,63.151,30.163,63.151,30.507 M75.194,30.518
		c1.664,0.496,1.965,2.398,0.442,2.807c-0.428,0.115-0.878-0.009-1.017-0.279c-0.155-0.3-0.427-0.558-0.59-0.558
		c-0.202,0-0.197-0.188,0.009-0.374c0.133-0.12,0.244-0.136,0.589-0.089c1.02,0.14,0.888-0.753-0.168-1.138
		c-0.429-0.157-0.499-0.211-0.499-0.392C73.961,30.258,74.339,30.265,75.194,30.518 M64.434,30.665
		c0.253,0.178,0.394,0.454,0.394,0.776c0,0.329-0.154,0.32-0.313-0.016c-0.082-0.174-0.269-0.392-0.418-0.486
		c-0.331-0.208-0.398-0.596-0.086-0.499C64.113,30.471,64.304,30.573,64.434,30.665 M73.206,30.604c0,0.143-0.065,0.242-0.204,0.305
		c-0.113,0.052-0.284,0.258-0.379,0.459c-0.211,0.449-0.34,0.467-0.34,0.05c0-0.371,0.17-0.641,0.535-0.863
		C73.16,30.344,73.206,30.35,73.206,30.604 M67.087,30.894c0.43,0.219,0.855,0.792,1.044,1.405c0.14,0.452-0.661,0.253-0.924-0.228
		c-0.228-0.42-0.839-0.84-1.221-0.84c-0.198,0-0.346-0.276-0.218-0.406C65.928,30.666,66.722,30.708,67.087,30.894 M71.341,30.824
		c0.132,0.13-0.018,0.406-0.216,0.406c-0.381,0-0.992,0.42-1.221,0.84c-0.222,0.404-0.239,0.417-0.606,0.417
		c-0.46,0-0.402-0.358,0.194-1.153C69.872,30.825,71.024,30.507,71.341,30.824 M70.4,32.78c0,0.163-0.064,0.169-1.755,0.191
		c-1.758,0.022-1.964-0.007-1.863-0.27C66.873,32.471,70.4,32.548,70.4,32.78 M70.231,33.284c0,0.16-0.063,0.167-1.628,0.19
		c-1.632,0.022-1.838-0.009-1.737-0.271C66.955,32.974,70.231,33.051,70.231,33.284 M64.919,33.6
		c0.429,0.289,0.546,0.592,0.41,1.062c-0.28,0.981-0.083,1.412,0.607,1.319c0.65-0.087,1.038-0.577,1.372-1.735l0.181-0.628
		l0.4-0.026l0.398-0.025l-0.047,0.619c-0.189,2.517-1.495,4.202-3.246,4.192c-1.9-0.01-2.925-2.681-1.405-3.652
		c0.544-0.348,0.795-0.647,0.868-1.032C64.521,33.356,64.548,33.352,64.919,33.6 M72.62,33.606c0,0.306,0.336,0.737,0.837,1.073
		c1.563,1.052,0.611,3.688-1.339,3.699c-1.778,0.011-3.26-1.989-3.267-4.404l-0.002-0.397h0.369h0.368l0.187,0.605
		c0.355,1.178,0.722,1.681,1.299,1.788c0.723,0.138,0.968-0.224,0.747-1.104c-0.182-0.731-0.122-0.929,0.377-1.266
		C72.551,33.359,72.62,33.36,72.62,33.606 M68.769,34.016c0.007,0.983,0.216,1.671,1.076,3.558l0.429,0.938v0.988
		c-0.001,1.836-0.097,2.116-0.659,1.954l-0.261-0.073v0.668c0,0.745-0.088,0.977-0.522,1.394l-0.284,0.272L68.248,43.4
		c-0.435-0.452-0.489-0.603-0.489-1.349v-0.67l-0.261,0.073c-0.562,0.162-0.658-0.119-0.66-1.939c0-1.081-0.009-1.05,0.722-2.599
		c0.47-0.994,0.783-2.15,0.785-2.901c0-0.323,0.02-0.355,0.21-0.355C68.746,33.661,68.766,33.693,68.769,34.016 M61.706,51.221
		c-1.148,0.277-1.751,0.713-3.811,2.744L56.2,55.637l-0.635-0.594c-2.698-2.52-5.089,0.661-3.253,4.326
		c0.362,0.722,0.349,0.779-0.385,1.695c-2.896,3.621-8.442,4.436-11.197,1.643c-1.962-1.988-1.794-4.428,0.442-6.425
		c0.22-0.199,0.344-0.328,0.274-0.287c-4.099,2.337-3.582,7.342,0.88,8.51c3.264,0.854,6.838-0.365,9.971-3.402l0.755-0.729
		l0.46,0.25c0.963,0.527,1.676,0.644,1.676,0.275c0-0.233-0.02-0.247-0.462-0.301c-0.504-0.063-1.11-0.335-1.244-0.557
		c-0.097-0.159,0.086-0.417,1.515-2.127c0.987-1.181,0.97-1.17,1.145-0.687c0.643,1.77,0.333,3.028-1.494,6.086l-0.721,1.205
		l0.438-0.042c0.242-0.024,0.452-0.08,0.467-0.129c0.073-0.217,1.813-3.051,3.178-5.174c0.83-1.289,1.787-2.816,2.125-3.393
		c1.247-2.112,2.732-3.989,3.404-4.295C64.233,51.172,62.78,50.959,61.706,51.221 M62.931,51.578
		c0.024,0.036-0.361,0.482-0.857,0.982c-1.299,1.322-1.83,2.021-3.842,5.052c-0.988,1.491-1.812,2.697-1.828,2.682
		c-0.017-0.017,0.024-0.275,0.092-0.575c0.194-0.872,0.242-2.377,0.094-3.001l-0.125-0.53l0.966-1.229
		c1.835-2.331,2.438-2.854,3.791-3.292C61.696,51.515,62.854,51.454,62.931,51.578 M45.005,54.692
		c-1.017,0.142-1.136,0.233-0.246,0.188c3.886-0.194,5.919,2.718,3.575,5.116c-0.968,0.991-2.788,1.288-4.06,0.66
		c-1.112-0.545-1.329-1.461-0.453-1.915c0.369-0.188,0.098-0.393-0.444-0.334c-0.812,0.086-1.132,1.007-0.59,1.691
		c1.643,2.066,6.404,0.901,7.167-1.755C50.604,56.093,48.123,54.261,45.005,54.692 M54.042,54.898
		c0.465,0.165,0.93,0.512,1.266,0.944l0.295,0.378l-0.163,0.32c-0.333,0.652-1.878,2.515-2.337,2.817
		c-0.196,0.128-0.213,0.125-0.408-0.106c-1.259-1.512-1.044-3.974,0.379-4.355C53.579,54.76,53.654,54.76,54.042,54.898
		 M73.31,56.005c-0.127,0.216-1.247,1.924-2.49,3.796c-3.415,5.139-3.361,5.012-2.062,4.92c0.819-0.06,1.483-0.385,2.103-1.031
		c0.448-0.469,0.451-0.473,0.086-0.175c-1.157,0.941-1.872,1.244-2.19,0.926l-0.177-0.176l2.391-3.561
		c1.312-1.961,2.595-3.837,2.85-4.17c0.641-0.841,0.651-0.92,0.131-0.92C73.549,55.614,73.533,55.625,73.31,56.005 M60.54,58.838
		c-0.123,0.27,0.025,0.464,0.354,0.464c0.3,0,0.527-0.289,0.406-0.516C61.169,58.54,60.658,58.575,60.54,58.838 M74.409,60.63
		c-2.793,1.122-3.988,4.113-1.646,4.12c1.027,0.001,2.95-1.368,3.474-2.473C76.971,60.725,76.109,59.945,74.409,60.63
		 M80.037,60.684c-2.706,1.183-3.809,4.066-1.558,4.066c1.106,0,3.185-1.518,3.597-2.624C82.66,60.556,81.773,59.927,80.037,60.684
		 M58.562,62.173c-1.435,2.243-1.449,2.28-0.881,2.501c0.959,0.375,2.144-0.309,3.588-2.066c0.979-1.19,1.242-1.409,1.615-1.348
		c0.588,0.095,0.562,0.192-0.309,1.165c-1.17,1.305-1.306,2.325-0.307,2.325c0.425,0,2.057-1.083,2.057-1.365
		c0-0.042-0.199,0.103-0.44,0.32c-1.528,1.377-2.259,0.946-1.358-0.798c0.376-0.729,0.542-0.918,1.757-2.011
		c0.49-0.439,0.333-0.608-0.18-0.197c-0.586,0.466-1.135,0.551-0.982,0.15c0.055-0.142-0.106-0.374-0.259-0.374
		c-0.102,0-1.759,2.017-2.17,2.645c-0.228,0.348-1.147,1.081-1.59,1.272c-1.183,0.507-1.023-0.381,0.479-2.683
		c0.83-1.269,0.82-1.234,0.404-1.234h-0.337L58.562,62.173 M66.88,60.73c-2.915,1.237-3.5,4.846-0.632,3.894
		c0.238-0.079,0.418-0.16,0.4-0.177c-0.02-0.019-0.153,0.006-0.298,0.058c-0.606,0.211-1.203-0.244-1.213-0.924
		c-0.009-0.591,0.236-0.839,1.049-1.043c1.312-0.338,2.176-0.908,2.291-1.517C68.594,60.403,67.933,60.282,66.88,60.73
		 M84.652,61.085c-2.246,3.308-2.333,3.445-2.174,3.509c0.267,0.104,0.68,0.077,0.726-0.047c0.178-0.457,1.612-2.451,2.165-3.004
		c0.49-0.49,0.607-0.649,0.48-0.649c-0.125,0-0.156-0.038-0.117-0.156c0.035-0.116-0.002-0.17-0.144-0.209
		C85.165,60.415,85.068,60.473,84.652,61.085 M86.991,60.556c-0.136,0.056-0.105,0.076,0.161,0.099
		c0.568,0.054,0.562,0.189-0.067,1.272c-0.309,0.532-0.841,1.366-1.182,1.853l-0.619,0.887h0.281c0.153,0,0.334,0.02,0.398,0.044
		c0.083,0.031,0.492-0.512,1.316-1.725l1.198-1.772l0.596-0.285c0.686-0.328,1.185-0.372,1.483-0.129
		c0.264,0.21,0.164,0.431-0.765,1.727c-0.398,0.558-0.788,1.132-0.862,1.278c-0.783,1.515,1.976,1.054,3.066-0.513
		c0.1-0.145-0.102,0.008-0.454,0.338c-1.25,1.177-2.602,1.114-1.635-0.075c0.623-0.765,1.566-2.341,1.566-2.615
		c0-0.466-1.352-0.63-2.096-0.255c-0.229,0.116-0.502,0.21-0.608,0.21c-0.107,0-0.325-0.094-0.481-0.21
		C87.995,60.466,87.362,60.403,86.991,60.556 M75.336,60.843c0.98,0.412,0.055,2.515-1.503,3.411
		c-1.691,0.974-2.04-1.044-0.452-2.613C74.227,60.809,74.745,60.598,75.336,60.843 M81.049,60.813
		c1.009,0.384,0.223,2.353-1.339,3.364c-1.847,1.195-2.229-1.011-0.456-2.649C80.076,60.765,80.489,60.602,81.049,60.813
		 M67.746,61.048c0.051,0.359-0.346,0.811-0.998,1.138c-0.88,0.44-1.099,0.405-0.828-0.126
		C66.402,61.114,67.655,60.42,67.746,61.048 M76.852,63.459c-0.23,0.21-0.698,0.566-1.036,0.793
		c-0.712,0.476-0.707,0.513,0.02,0.167c0.598-0.286,1.177-0.756,1.357-1.104C77.352,63.007,77.352,63.007,76.852,63.459
		 M82.546,63.515c-0.278,0.242-0.702,0.567-0.945,0.723c-0.578,0.371-0.498,0.422,0.148,0.097c0.506-0.257,1.078-0.751,1.258-1.088
		C83.137,63.004,83.116,63.019,82.546,63.515 M93.423,63.133c0.125,0.03,0.146,0.141,0.146,0.788v0.753l0.302,0.127
		c0.168,0.067,0.364,0.108,0.44,0.088c0.094-0.024,0.079-0.04-0.049-0.047c-0.484-0.024-0.81-1.435-0.385-1.673
		c0.101-0.054,0.039-0.074-0.232-0.073C93.442,63.096,93.342,63.113,93.423,63.133 M94.723,63.129
		c0.067,0.028,0.108,0.28,0.12,0.768l0.017,0.728l0.028-0.67c0.021-0.506,0.062-0.697,0.167-0.774
		c0.119-0.091,0.099-0.104-0.148-0.099C94.747,63.084,94.663,63.105,94.723,63.129 M95.515,63.204
		c-0.351,0.245-0.208,0.517,0.477,0.892c0.309,0.17,0.339,0.417,0.069,0.614c-0.103,0.076-0.134,0.125-0.066,0.105
		c0.523-0.151,0.475-0.743-0.083-1.024c-0.382-0.19-0.519-0.435-0.318-0.561c0.183-0.114,0.423-0.085,0.601,0.074
		c0.161,0.142,0.164,0.141,0.066-0.045C96.142,63.035,95.793,63.011,95.515,63.204 M67.992,63.537
		c-0.175,0.192-0.533,0.47-0.797,0.619c-0.265,0.149-0.408,0.248-0.315,0.22c0.349-0.111,1.075-0.602,1.279-0.865
		C68.464,63.112,68.357,63.129,67.992,63.537 M97.264,63.421c-0.051,0.147-0.071,0.284-0.049,0.309
		c0.022,0.023,0.042-0.002,0.042-0.056c0-0.197,0.151-0.092,0.242,0.166c0.123,0.349,0.126,0.338-0.139,0.307
		c-0.173-0.021-0.226-0.066-0.212-0.192c0.022-0.179,0.025-0.184-0.32,0.564c-0.129,0.281-0.13,0.314-0.011,0.314
		c0.072,0,0.108-0.021,0.083-0.049c-0.173-0.173,0.133-0.538,0.449-0.538c0.329,0,0.584,0.289,0.444,0.51
		c-0.022,0.041,0.049,0.077,0.163,0.077h0.207l-0.15-0.314c-0.08-0.174-0.236-0.551-0.348-0.839
		C97.438,63.084,97.394,63.053,97.264,63.421 M95.353,64.58c0.011,0.134,0.078,0.221,0.185,0.238
		c0.153,0.027,0.156,0.02,0.032-0.082c-0.075-0.062-0.16-0.17-0.188-0.238C95.356,64.429,95.342,64.466,95.353,64.58"/>
	<path id="path2_1_" fill="#30395D" d="M55.051,19.96c0,0.368,0.016,0.508,0.033,0.311c0.017-0.196,0.017-0.498-0.001-0.67
		C55.065,19.429,55.05,19.591,55.051,19.96 M82.035,20.295c0,0.461,0.017,0.638,0.032,0.395c0.018-0.243,0.018-0.62,0-0.838
		C82.048,19.635,82.035,19.833,82.035,20.295 M64.848,21.903c0.08,0.021,0.212,0.021,0.293,0c0.081-0.021,0.014-0.038-0.146-0.038
		C64.833,21.865,64.767,21.882,64.848,21.903 M71.97,21.903c0.08,0.021,0.213,0.021,0.294,0c0.081-0.021,0.015-0.038-0.146-0.038
		C71.956,21.865,71.889,21.882,71.97,21.903 M82.035,22.767c0,0.484,0.017,0.681,0.032,0.441c0.018-0.244,0.018-0.64,0-0.881
		C82.052,22.085,82.035,22.283,82.035,22.767 M55.051,23.144c0,0.368,0.016,0.509,0.033,0.311c0.017-0.196,0.017-0.498-0.001-0.668
		C55.065,22.614,55.05,22.775,55.051,23.144 M55.125,25.784c0,0.162,0.018,0.228,0.038,0.146c0.022-0.08,0.022-0.213,0-0.293
		C55.143,25.556,55.125,25.622,55.125,25.784 M67.444,26.538c0.025,0.088,0.158,0.128,0.448,0.134l0.411,0.009l-0.375-0.036
		c-0.206-0.02-0.406-0.08-0.445-0.135C67.433,26.444,67.422,26.451,67.444,26.538 M69.038,26.683
		c0.128,0.018,0.317,0.017,0.42-0.002c0.103-0.019,0-0.036-0.232-0.036C68.995,26.646,68.911,26.663,69.038,26.683 M68.556,27.125
		l-1.676,0.047l1.65,0.018c1.029,0.012,1.668-0.014,1.701-0.065c0.028-0.047,0.041-0.076,0.025-0.066
		C70.243,27.068,69.477,27.098,68.556,27.125 M67.467,27.837c0.196,0.068,0.712,0.086,0.712,0.025c0-0.037-0.18-0.064-0.399-0.062
		C67.562,27.805,67.42,27.821,67.467,27.837 M68.934,27.858c0,0.033,0.185,0.061,0.41,0.061s0.393-0.028,0.372-0.061
		c-0.021-0.036-0.206-0.062-0.409-0.062C69.1,27.796,68.934,27.823,68.934,27.858 M59.611,29.197
		c0.15,0.019,0.376,0.018,0.503-0.001c0.126-0.019,0.002-0.034-0.274-0.033C59.564,29.162,59.461,29.177,59.611,29.197
		 M77.041,29.197c0.151,0.019,0.378,0.018,0.504-0.001c0.127-0.019,0.003-0.034-0.274-0.033
		C76.995,29.162,76.891,29.177,77.041,29.197 M73.323,30.142c0,0.529,0.014,0.746,0.029,0.481c0.016-0.265,0.016-0.699,0-0.964
		S73.323,29.611,73.323,30.142 M63.434,30.184c0,0.505,0.013,0.703,0.029,0.435c0.018-0.265,0.017-0.68,0-0.92
		C63.446,29.458,63.433,29.675,63.434,30.184 M73.822,30.142c0,0.482,0.016,0.683,0.033,0.439c0.017-0.242,0.017-0.638,0-0.88
		C73.838,29.459,73.822,29.656,73.822,30.142 M63.82,29.68c0,0.115,0.033,0.209,0.074,0.209c0.038,0,0.053-0.094,0.032-0.209
		c-0.023-0.116-0.055-0.21-0.073-0.21C63.835,29.47,63.82,29.564,63.82,29.68 M57.575,29.976c-0.15,0.167-0.149,0.176,0.047,0.356
		l0.201,0.186l-0.157-0.188c-0.149-0.182-0.151-0.195-0.005-0.356c0.084-0.093,0.134-0.167,0.109-0.167
		C57.749,29.807,57.661,29.882,57.575,29.976 M79.444,29.953c0.152,0.183,0.152,0.192,0,0.377l-0.155,0.188l0.203-0.188l0.204-0.188
		l-0.204-0.188l-0.203-0.188L79.444,29.953 M63.82,30.602c0,0.115,0.015,0.209,0.033,0.209c0.018,0,0.049-0.094,0.073-0.209
		c0.021-0.116,0.006-0.21-0.032-0.21C63.853,30.392,63.82,30.486,63.82,30.602 M59.737,31.122c0.127,0.021,0.316,0.019,0.419-0.001
		c0.104-0.019-0.001-0.034-0.233-0.034C59.694,31.087,59.61,31.104,59.737,31.122 M77,31.122c0.127,0.021,0.315,0.019,0.419-0.001
		c0.104-0.019-0.001-0.034-0.232-0.034C76.956,31.087,76.873,31.104,77,31.122 M67.759,32.404l-0.377,0.057l0.398,0.013
		c0.219,0.008,0.399-0.024,0.399-0.07c0-0.047-0.01-0.079-0.021-0.073C68.146,32.339,67.967,32.372,67.759,32.404 M68.934,32.421
		c0,0.036,0.179,0.063,0.396,0.06c0.439-0.007,0.404-0.047-0.083-0.095C69.073,32.367,68.934,32.384,68.934,32.421 M67.479,33.633
		c-0.029,0.03-0.055,0.097-0.055,0.145c0.001,0.061,0.026,0.056,0.065-0.007c0.035-0.055,0.232-0.113,0.438-0.131l0.375-0.034
		l-0.383-0.015C67.708,33.583,67.51,33.601,67.479,33.633 M69.038,33.637c0.128,0.02,0.317,0.02,0.42-0.001s0-0.036-0.232-0.036
		C68.995,33.601,68.911,33.618,69.038,33.637 M60.302,41.997c0.389,0.392,0.727,0.713,0.75,0.713c0.024,0-0.276-0.321-0.666-0.713
		c-0.39-0.391-0.728-0.711-0.75-0.711C59.611,41.286,59.912,41.606,60.302,41.997 M76.726,41.997
		c-0.342,0.348-0.605,0.629-0.582,0.629s0.323-0.281,0.667-0.629c0.344-0.345,0.604-0.627,0.582-0.627
		C77.369,41.37,77.069,41.652,76.726,41.997 M62.015,52.536l-0.331,0.354l0.355-0.33c0.332-0.309,0.395-0.381,0.332-0.381
		C62.357,52.18,62.197,52.34,62.015,52.536 M58.538,53.249l-0.289,0.312l0.314-0.289c0.292-0.269,0.353-0.337,0.288-0.337
		C58.838,52.936,58.696,53.074,58.538,53.249 M48.319,55.894c0,0.013,0.121,0.137,0.272,0.272l0.272,0.245l-0.247-0.273
		C48.387,55.885,48.319,55.828,48.319,55.894 M41.156,56.19c0.024,0.023-0.117,0.215-0.313,0.425
		c-0.358,0.382-0.358,0.382,0.082-0.032c0.504-0.479,0.475-0.438,0.313-0.438C41.169,56.145,41.132,56.166,41.156,56.19
		 M40.061,56.977l-0.331,0.356l0.356-0.332c0.331-0.31,0.394-0.381,0.331-0.381C40.403,56.62,40.243,56.78,40.061,56.977
		 M55.687,57.102l-0.204,0.231l0.252-0.211c0.137-0.115,0.267-0.217,0.285-0.229c0.02-0.013-0.002-0.021-0.048-0.021
		S55.798,56.976,55.687,57.102 M53.383,59.07l-0.246,0.273l0.272-0.245c0.253-0.229,0.309-0.3,0.246-0.3
		C53.64,58.799,53.52,58.922,53.383,59.07 M42.473,59.385c0,0.162,0.017,0.227,0.038,0.149c0.021-0.081,0.021-0.214,0-0.296
		C42.489,59.159,42.473,59.225,42.473,59.385 M67.78,60.448c0.08,0.021,0.213,0.021,0.292,0c0.082-0.021,0.014-0.037-0.146-0.037
		C67.765,60.411,67.7,60.428,67.78,60.448 M90.028,60.451c0.103,0.019,0.273,0.019,0.378,0c0.104-0.021,0.019-0.037-0.189-0.037
		C90.011,60.414,89.924,60.43,90.028,60.451 M76.496,61.187c0,0.187,0.019,0.251,0.036,0.146c0.021-0.104,0.021-0.253-0.001-0.334
		C76.511,60.92,76.495,61.002,76.496,61.187 M66.372,61.417l-0.247,0.274l0.272-0.247c0.15-0.135,0.272-0.258,0.272-0.272
		C66.67,61.105,66.601,61.164,66.372,61.417 M85.312,61.585l-0.416,0.441l0.44-0.416c0.241-0.229,0.439-0.427,0.439-0.44
		C85.776,61.105,85.698,61.177,85.312,61.585 M73.284,61.71l-0.288,0.316l0.316-0.289c0.29-0.27,0.352-0.342,0.287-0.342
		C73.586,61.396,73.445,61.538,73.284,61.71 M62.518,62.424l-0.248,0.272l0.272-0.246c0.15-0.137,0.273-0.258,0.273-0.272
		C62.815,62.114,62.747,62.168,62.518,62.424 M81.287,63.26l-0.246,0.273l0.273-0.245c0.148-0.136,0.271-0.259,0.271-0.272
		C81.586,62.95,81.517,63.007,81.287,63.26 M93.766,63.868c0,0.37,0.015,0.511,0.032,0.313c0.018-0.196,0.018-0.501,0-0.671
		C93.779,63.341,93.766,63.501,93.766,63.868 M70.985,63.409c-0.027,0.045-0.022,0.082,0.011,0.082c0.034,0-0.064,0.143-0.225,0.314
		l-0.288,0.315l0.3-0.276c0.166-0.15,0.301-0.33,0.301-0.397C71.084,63.305,71.058,63.293,70.985,63.409 M77.247,63.827
		c0,0.162,0.019,0.228,0.04,0.146c0.021-0.079,0.021-0.211,0-0.293C77.266,63.601,77.247,63.666,77.247,63.827 M63.732,63.791
		c-0.142,0.17,0.052,0.214,0.204,0.049c0.118-0.133,0.12-0.152,0.01-0.152C63.876,63.688,63.779,63.735,63.732,63.791"/>
	<path id="path3_1_" fill="#6D7EB0" d="M55.106,16.776c0,0.162,0.015,0.292,0.034,0.292c0.018,0,0.047-0.131,0.065-0.292
		c0.02-0.162,0.005-0.294-0.033-0.294C55.137,16.482,55.106,16.614,55.106,16.776 M81.907,16.818
		c0.017,0.185,0.048,0.333,0.065,0.333c0.019,0,0.032-0.149,0.032-0.333s-0.03-0.336-0.065-0.336
		C81.903,16.482,81.89,16.633,81.907,16.818 M55.051,18.661c0,0.392,0.016,0.553,0.033,0.356c0.017-0.196,0.017-0.516,0-0.712
		C55.067,18.109,55.051,18.269,55.051,18.661 M82.034,18.787c0,0.415,0.013,0.595,0.033,0.4c0.018-0.193,0.018-0.534,0-0.754
		C82.048,18.212,82.034,18.373,82.034,18.787 M66.87,20.713c0,0.554,0.014,0.77,0.029,0.479c0.017-0.289,0.017-0.741,0-1.004
		C66.882,19.924,66.87,20.16,66.87,20.713 M70.222,20.797c0,0.507,0.014,0.704,0.03,0.437c0.017-0.266,0.017-0.681,0-0.92
		C70.234,20.073,70.222,20.29,70.222,20.797 M66.838,22.725c0.155,0.162,0.303,0.292,0.326,0.292c0.022,0-0.087-0.131-0.242-0.292
		c-0.157-0.162-0.304-0.293-0.326-0.293C66.572,22.432,66.681,22.563,66.838,22.725 M70.185,22.745l-0.289,0.315l0.314-0.288
		c0.295-0.27,0.354-0.34,0.289-0.34C70.487,22.432,70.344,22.573,70.185,22.745 M82.034,24.275c0,0.392,0.013,0.553,0.033,0.356
		c0.018-0.196,0.018-0.517,0-0.712C82.047,23.724,82.034,23.884,82.034,24.275 M55.051,24.401c0,0.37,0.016,0.509,0.033,0.312
		c0.017-0.197,0.017-0.499-0.001-0.671C55.065,23.871,55.05,24.033,55.051,24.401 M68.366,26.119c0,0.162,0.018,0.228,0.038,0.146
		c0.021-0.08,0.021-0.212,0-0.293C68.384,25.892,68.366,25.958,68.366,26.119 M68.701,26.119c0,0.162,0.018,0.228,0.038,0.146
		c0.021-0.08,0.021-0.212,0-0.293C68.719,25.892,68.701,25.958,68.701,26.119 M81.945,26.245c0,0.231,0.018,0.315,0.035,0.187
		c0.021-0.127,0.02-0.315,0-0.418C81.961,25.91,81.944,26.014,81.945,26.245 M68.198,26.203c0,0.162,0.018,0.227,0.038,0.146
		c0.022-0.08,0.022-0.212,0-0.294C68.216,25.975,68.198,26.041,68.198,26.203 M68.869,26.203c0,0.162,0.017,0.227,0.038,0.146
		c0.021-0.08,0.021-0.212,0-0.294C68.886,25.975,68.869,26.041,68.869,26.203 M55.129,26.37c0,0.208,0.016,0.293,0.037,0.19
		c0.019-0.104,0.019-0.274,0-0.377C55.146,26.078,55.129,26.162,55.129,26.37 M81.859,27.586c0.001,0.183,0.018,0.249,0.038,0.145
		c0.02-0.104,0.019-0.254-0.002-0.334C81.874,27.316,81.858,27.4,81.859,27.586 M55.209,27.628c0,0.16,0.018,0.227,0.038,0.145
		c0.022-0.08,0.022-0.211,0-0.292C55.227,27.4,55.209,27.466,55.209,27.628 M60.488,28.131c0,0.162,0.017,0.227,0.039,0.146
		c0.021-0.081,0.021-0.214,0-0.294C60.505,27.902,60.488,27.968,60.488,28.131 M68.409,27.937c0.106,0.021,0.256,0.021,0.336-0.001
		c0.08-0.021-0.005-0.037-0.19-0.036C68.371,27.9,68.305,27.917,68.409,27.937 M73.415,30.142c0,0.543,0.028,0.971,0.062,0.95
		c0.036-0.021,0.063-0.448,0.063-0.95c0-0.502-0.027-0.93-0.063-0.952C73.443,29.168,73.415,29.596,73.415,30.142 M58.739,29.348
		c-0.028,0.071-0.027,0.153,0.001,0.182c0.029,0.028,0.052-0.008,0.052-0.082s0.085-0.15,0.19-0.171l0.188-0.036l-0.19-0.011
		C58.874,29.225,58.766,29.277,58.739,29.348 M63.27,29.33c-0.023,0.062-0.031,0.466-0.017,0.902l0.024,0.788l0.041-0.9
		C63.36,29.227,63.353,29.116,63.27,29.33 M78.125,29.273c0.101,0.023,0.201,0.104,0.226,0.181c0.031,0.102,0.037,0.096,0.023-0.025
		c-0.011-0.113-0.083-0.171-0.226-0.181C77.976,29.235,77.971,29.24,78.125,29.273 M73.639,30.157
		c-0.007,0.447,0.015,0.83,0.05,0.852c0.034,0.022,0.055-0.23,0.039-0.562C73.688,29.427,73.653,29.31,73.639,30.157 M66.146,29.529
		c0.103,0.021,0.272,0.021,0.377,0c0.104-0.019,0.019-0.035-0.188-0.035C66.128,29.494,66.042,29.51,66.146,29.529 M70.589,29.529
		c0.104,0.021,0.272,0.021,0.375,0c0.105-0.019,0.02-0.035-0.187-0.035C70.568,29.494,70.484,29.51,70.589,29.529 M63.074,29.694
		c-0.003,0.099-0.054,0.2-0.112,0.224c-0.082,0.033-0.082,0.043,0.002,0.048c0.128,0.008,0.221-0.195,0.158-0.347
		C63.1,29.561,63.078,29.594,63.074,29.694 M62.815,30.142c0,0.046,0.056,0.084,0.126,0.084c0.068,0,0.125-0.038,0.125-0.084
		c0-0.047-0.056-0.084-0.125-0.084C62.872,30.058,62.815,30.094,62.815,30.142 M74.045,30.142c0,0.046,0.057,0.084,0.126,0.084
		c0.067,0,0.126-0.038,0.126-0.084c0-0.047-0.059-0.084-0.126-0.084C74.102,30.058,74.045,30.094,74.045,30.142 M62.952,30.364
		c0.053,0.04,0.117,0.145,0.141,0.238c0.037,0.133,0.043,0.125,0.031-0.036c-0.008-0.112-0.072-0.219-0.14-0.236
		C62.899,30.308,62.889,30.318,62.952,30.364 M58.736,30.853c0.01,0.113,0.083,0.172,0.226,0.182
		c0.174,0.011,0.18,0.006,0.026-0.027c-0.101-0.021-0.203-0.103-0.226-0.181C58.73,30.726,58.724,30.732,58.736,30.853
		 M66.146,30.787c0.103,0.021,0.272,0.021,0.377,0s0.019-0.037-0.188-0.037C66.128,30.75,66.042,30.767,66.146,30.787
		 M70.589,30.787c0.104,0.021,0.272,0.021,0.375,0c0.105-0.021,0.02-0.037-0.187-0.037C70.568,30.75,70.484,30.767,70.589,30.787
		 M78.318,30.834c0,0.072-0.086,0.15-0.189,0.169l-0.189,0.037l0.193,0.011c0.184,0.01,0.345-0.192,0.235-0.3
		C78.341,30.722,78.318,30.761,78.318,30.834 M60.488,32.152c0,0.161,0.017,0.228,0.039,0.147c0.021-0.081,0.021-0.213,0-0.293
		C60.505,31.925,60.488,31.99,60.488,32.152 M68.409,32.379c0.106,0.021,0.256,0.019,0.336-0.001c0.08-0.021-0.005-0.037-0.19-0.036
		C68.371,32.342,68.305,32.358,68.409,32.379 M66.826,32.93c0.036,0.034,0.837,0.054,1.777,0.041l1.714-0.023l-1.778-0.042
		C67.562,32.883,66.791,32.894,66.826,32.93 M67.784,33.136c0.452,0.016,1.167,0.016,1.593,0c0.425-0.015,0.056-0.026-0.821-0.026
		C67.68,33.11,67.332,33.121,67.784,33.136 M68.198,34.08c0,0.16,0.018,0.227,0.038,0.146c0.022-0.081,0.022-0.212,0-0.292
		C68.216,33.853,68.198,33.918,68.198,34.08 M68.869,34.08c0,0.16,0.017,0.227,0.038,0.146c0.021-0.081,0.021-0.212,0-0.292
		C68.886,33.853,68.869,33.918,68.869,34.08 M68.701,34.163c0,0.162,0.018,0.228,0.038,0.147c0.021-0.081,0.021-0.214,0-0.294
		C68.719,33.937,68.701,34.002,68.701,34.163 M66.875,37.536l-0.247,0.272l0.271-0.246c0.151-0.135,0.272-0.258,0.272-0.272
		C67.171,37.226,67.104,37.282,66.875,37.536 M70.189,37.557c0.155,0.162,0.305,0.292,0.326,0.292c0.023,0-0.085-0.131-0.242-0.292
		c-0.156-0.161-0.304-0.293-0.324-0.293C69.924,37.264,70.033,37.396,70.189,37.557 M66.87,39.484c0,0.553,0.014,0.768,0.029,0.479
		c0.017-0.29,0.017-0.742,0-1.005C66.882,38.695,66.87,38.932,66.87,39.484 M70.222,39.484c0,0.507,0.014,0.704,0.03,0.438
		c0.017-0.269,0.017-0.682,0-0.922C70.234,38.759,70.222,38.978,70.222,39.484 M57.951,53.834l-0.29,0.313l0.315-0.289
		c0.292-0.267,0.353-0.339,0.288-0.339C58.251,53.52,58.11,53.662,57.951,53.834 M53.535,54.08c0.08,0.021,0.213,0.021,0.293,0
		c0.082-0.021,0.015-0.038-0.146-0.038C53.521,54.042,53.454,54.06,53.535,54.08 M44.861,54.92c0.15,0.02,0.396,0.02,0.545,0
		c0.148-0.017,0.028-0.032-0.273-0.032C44.835,54.888,44.711,54.903,44.861,54.92 M43.208,55.086
		c-0.342,0.117-1.425,0.646-1.425,0.694c0,0.032,0.287-0.088,0.637-0.265s0.688-0.318,0.749-0.318c0.062,0,0.136-0.039,0.164-0.085
		c0.028-0.047,0.041-0.081,0.027-0.077C43.344,55.039,43.276,55.061,43.208,55.086 M73.689,55.59
		c0.104,0.021,0.255,0.02,0.335-0.002c0.079-0.021-0.006-0.035-0.191-0.035C73.651,55.554,73.585,55.571,73.689,55.59
		 M51.861,56.956c0,0.207,0.016,0.294,0.036,0.188c0.02-0.103,0.02-0.272,0-0.377C51.877,56.662,51.861,56.747,51.861,56.956
		 M50.096,57.543c0,0.161,0.018,0.226,0.04,0.146c0.021-0.081,0.021-0.213,0-0.293C50.114,57.315,50.096,57.381,50.096,57.543
		 M56.725,57.836c0,0.275,0.016,0.38,0.034,0.229c0.02-0.15,0.02-0.377-0.001-0.504C56.738,57.435,56.725,57.558,56.725,57.836
		 M75.238,60.368c0.13,0.019,0.317,0.019,0.419-0.003c0.104-0.019-0.001-0.035-0.23-0.034C75.196,60.331,75.111,60.35,75.238,60.368
		 M81.022,60.368c0.126,0.019,0.314,0.019,0.419-0.003c0.103-0.019-0.001-0.035-0.232-0.034
		C80.979,60.331,80.896,60.35,81.022,60.368 M82.278,61.187c0.001,0.187,0.018,0.251,0.038,0.146
		c0.019-0.104,0.019-0.253-0.002-0.334C82.294,60.92,82.277,61.002,82.278,61.187 M79.024,61.752l-0.245,0.274l0.272-0.246
		c0.149-0.137,0.271-0.26,0.271-0.273C79.323,61.442,79.255,61.5,79.024,61.752 M40.526,62.512c0,0.014,0.122,0.138,0.272,0.271
		l0.272,0.248l-0.247-0.271C40.595,62.505,40.526,62.448,40.526,62.512 M60.466,63.554l-0.458,0.481l0.482-0.456
		c0.446-0.426,0.519-0.506,0.458-0.506C60.935,63.073,60.718,63.291,60.466,63.554 M93.483,63.894l0.043,0.73l0.026-0.664
		c0.012-0.364-0.006-0.692-0.041-0.729C93.473,63.195,93.463,63.491,93.483,63.894 M91.428,63.68l-0.331,0.355l0.356-0.33
		c0.195-0.183,0.355-0.343,0.355-0.355C91.809,63.285,91.735,63.35,91.428,63.68 M64.343,63.659c0,0.161,0.017,0.229,0.038,0.146
		c0.021-0.079,0.021-0.212,0-0.294C64.36,63.434,64.343,63.498,64.343,63.659 M44.194,64.812c0.196,0.016,0.499,0.016,0.67-0.001
		c0.17-0.019,0.01-0.034-0.358-0.034C44.137,64.776,43.997,64.792,44.194,64.812 M65.268,64.808c0.128,0.021,0.316,0.02,0.419,0
		c0.103-0.021-0.001-0.035-0.232-0.035S65.141,64.79,65.268,64.808 M96.558,64.854c0.021,0.034,0.146,0.063,0.28,0.063
		c0.133,0,0.259-0.029,0.279-0.063c0.022-0.034-0.104-0.063-0.279-0.063C96.662,64.791,96.536,64.82,96.558,64.854 M97.591,64.854
		c0,0.034,0.17,0.063,0.378,0.063c0.207,0,0.376-0.029,0.376-0.063s-0.169-0.063-0.376-0.063
		C97.761,64.791,97.591,64.82,97.591,64.854"/>
	<path id="path4_1_" fill="#A1A9D6" d="M67.933,12.394c-1.471,0.735-5.561,1.807-11.438,2.998c-1.149,0.231-2.11,0.443-2.135,0.47
		c-0.074,0.073-0.058,9.145,0.018,10.466c0.061,1.049,0.139,1.986,0.272,3.269c0.294,2.793,0.9,5.807,1.514,7.513
		c1.517,4.223,6.058,8.427,11.71,10.851l0.66,0.282l0.806-0.342c4.372-1.849,8.579-5.28,10.537-8.593
		c1.199-2.027,2.084-5.281,2.502-9.208c0.023-0.23,0.08-0.74,0.125-1.131c0.354-3.161,0.464-12.809,0.148-13.125
		c-0.023-0.024-0.322-0.099-0.659-0.169c-7.412-1.498-11.415-2.528-12.935-3.326l-0.502-0.266L67.933,12.394 M68.77,13.011
		c0.537,0.645,5.578,2.016,12.031,3.272l1.18,0.23l0.054,1.178c0.332,7.259-0.384,15.162-1.719,18.973
		c-1.328,3.793-4.854,7.299-9.855,9.799c-2.021,1.009-1.787,1.009-3.808,0c-5.015-2.507-8.527-6.001-9.864-9.815
		c-1.307-3.735-2.013-11.329-1.727-18.579l0.061-1.555l0.977-0.188c6.474-1.25,11.702-2.665,12.241-3.314
		c0.06-0.074,0.158-0.133,0.215-0.133C68.614,12.878,68.711,12.938,68.77,13.011 M68.198,17.024c-0.39,0.443-0.467,0.71-0.425,1.461
		c0.026,0.479,0.019,0.506-0.139,0.453c-0.642-0.219-0.693-0.103-0.704,1.584c-0.009,1.373,0,1.41,0.701,2.852
		c0.406,0.834,0.678,1.763,0.767,2.627c0.076,0.729,0.242,0.714,0.319-0.028c0.097-0.954,0.299-1.606,0.876-2.828l0.555-1.173
		l0.025-1.215c0.038-1.825-0.045-2.04-0.704-1.816c-0.167,0.056-0.175,0.036-0.137-0.356c0.072-0.741-0.036-1.132-0.427-1.566
		l-0.355-0.393L68.198,17.024 M64.37,22.049c-1.445,0.537-1.974,2.718-0.824,3.404c0.509,0.304,0.858,0.679,0.95,1.02l0.085,0.317
		l0.248-0.127c0.515-0.267,0.585-0.586,0.33-1.479c-0.247-0.869,0.694-1.304,1.448-0.669c0.284,0.239,0.65,0.98,0.822,1.667
		l0.111,0.44h0.354h0.353l-0.037-0.357C67.889,23.22,66.201,21.369,64.37,22.049 M71.441,22.037
		c-1.431,0.405-2.284,1.827-2.54,4.228l-0.037,0.357h0.355h0.356l0.1-0.444c0.14-0.633,0.529-1.411,0.831-1.665
		c0.752-0.632,1.692-0.194,1.443,0.671c-0.211,0.732-0.204,0.964,0.032,1.244c0.312,0.371,0.528,0.406,0.598,0.098
		c0.073-0.336,0.396-0.699,0.926-1.036C75.271,24.36,73.53,21.449,71.441,22.037 M66.979,26.843
		c-0.246,0.246-0.042,0.281,1.583,0.281c1.517,0,1.636-0.011,1.613-0.147C70.144,26.826,67.125,26.698,66.979,26.843 M61.178,27.124
		c-1.418,0.704-0.463,2.476,1.474,2.732c0.632,0.084,0.603-0.211-0.04-0.414c-1.117-0.353-1.215-1.392-0.12-1.264
		c0.451,0.054,0.922-0.169,0.594-0.28c-0.189-0.064-0.594-0.441-0.645-0.599C62.33,26.949,61.707,26.862,61.178,27.124
		 M74.925,27.05c-0.094,0.046-0.255,0.214-0.359,0.375c-0.105,0.161-0.284,0.335-0.399,0.386c-0.438,0.2-0.119,0.446,0.476,0.368
		c1.124-0.15,0.91,1-0.24,1.295c-0.504,0.127-0.646,0.415-0.207,0.415c1.246,0,2.364-0.842,2.364-1.781
		C76.559,27.326,75.613,26.715,74.925,27.05 M66.846,27.368c-0.063,0.041-0.093,0.135-0.063,0.21
		c0.089,0.233,3.449,0.159,3.449-0.078C70.231,27.318,67.116,27.195,66.846,27.368 M67.341,28.129
		c-0.135,0.325-0.685,0.82-0.983,0.884c-0.764,0.164-0.796,0.405-0.059,0.439c0.783,0.035,1.39-0.435,1.698-1.317l0.089-0.257
		h-0.321C67.489,27.879,67.43,27.913,67.341,28.129 M69.018,27.941c0.026,0.858,1.762,1.98,2.274,1.468
		c0.111-0.113-0.141-0.358-0.367-0.358c-0.33,0-0.866-0.393-1.078-0.791C69.661,27.908,69.01,27.657,69.018,27.941 M68.013,28.808
		l-0.292,0.847l0.188,0.152c0.247,0.201,1.124,0.187,1.331-0.023c0.249-0.248-0.342-1.822-0.685-1.822
		C68.312,27.963,68.295,27.988,68.013,28.808 M64.56,28.897c-0.074,0.168-0.253,0.392-0.396,0.497
		c-0.444,0.329-0.333,0.534,0.134,0.249c0.335-0.204,0.464-0.439,0.427-0.783l-0.027-0.269L64.56,28.897 M72.369,28.902
		c0,0.396,0.444,0.904,0.791,0.904c0.136,0,0.015-0.253-0.184-0.383c-0.288-0.188-0.437-0.372-0.438-0.557
		C72.533,28.589,72.369,28.622,72.369,28.902 M58.974,29.28c-0.157,0.03-0.188,0.08-0.158,0.24c0.036,0.191,0.016,0.201-0.348,0.202
		c-0.389,0-0.932,0.245-0.932,0.419c0,0.167,0.542,0.417,0.901,0.418c0.32,0,0.355,0.021,0.355,0.199
		c0,0.472,1.238,0.432,2.346-0.076c0.456-0.21,1.021-0.404,1.254-0.432c0.554-0.065,0.535-0.134-0.075-0.25
		c-0.274-0.052-0.834-0.25-1.243-0.439C60.324,29.218,59.724,29.137,58.974,29.28 M63.625,29.275
		c-0.091,0.092-0.064,1.788,0.028,1.788c0.051,0,0.084-0.364,0.084-0.922C63.737,29.221,63.73,29.169,63.625,29.275 M73.405,30.142
		c0,0.529,0.016,0.746,0.03,0.481c0.017-0.265,0.017-0.699,0-0.964C73.421,29.394,73.405,29.611,73.405,30.142 M76.032,29.563
		c-0.406,0.188-0.962,0.384-1.237,0.437c-0.604,0.116-0.632,0.186-0.093,0.25c0.224,0.026,0.788,0.22,1.256,0.43
		c1.136,0.51,2.429,0.552,2.337,0.078c-0.035-0.185-0.011-0.198,0.35-0.198c0.388-0.001,0.932-0.246,0.932-0.418
		c0-0.175-0.544-0.419-0.932-0.419c-0.36-0.001-0.385-0.013-0.35-0.197C78.385,29.068,77.049,29.091,76.032,29.563 M63.35,30.184
		c0,0.505,0.014,0.703,0.03,0.435c0.017-0.265,0.017-0.68-0.001-0.92C63.363,29.458,63.35,29.675,63.35,30.184 M73.742,30.142
		c0,0.482,0.012,0.683,0.03,0.439c0.015-0.242,0.015-0.638,0-0.88C73.754,29.459,73.742,29.656,73.742,30.142 M64.387,29.87
		c-0.492,0.164-0.524,0.357-0.084,0.496c0.173,0.054,0.376,0.123,0.454,0.152c0.251,0.098,0.458-0.324,0.287-0.586
		C64.887,29.693,64.916,29.695,64.387,29.87 M72.072,29.925c-0.188,0.288,0.021,0.68,0.315,0.587
		c0.804-0.255,0.93-0.454,0.393-0.615c-0.19-0.056-0.396-0.123-0.456-0.146C72.263,29.728,72.15,29.807,72.072,29.925
		 M68.124,30.302c-0.403,0.248-0.41,0.309-0.104,1.191c0.417,1.205,0.661,1.206,1.063,0.009c0.331-0.99,0.335-0.892-0.043-1.149
		C68.666,30.1,68.474,30.089,68.124,30.302 M62.144,30.526c-1.416,0.376-2.066,1.59-1.276,2.378c0.495,0.495,1.425,0.542,1.573,0.08
		c0.049-0.161,0.455-0.538,0.645-0.601c0.329-0.11-0.143-0.333-0.594-0.281c-1.109,0.131-0.947-1.002,0.186-1.307
		c0.28-0.074,0.388-0.146,0.388-0.253C63.066,30.358,62.799,30.353,62.144,30.526 M73.974,30.512
		c0.018,0.09,0.203,0.204,0.489,0.299c1.125,0.381,1.271,1.438,0.179,1.292c-0.595-0.079-0.913,0.168-0.476,0.367
		c0.115,0.052,0.294,0.227,0.399,0.388c0.382,0.587,1.118,0.607,1.679,0.046c0.535-0.535,0.37-1.498-0.337-1.965
		C75.264,30.514,73.912,30.215,73.974,30.512 M63.905,30.586c0,0.06,0.116,0.197,0.258,0.302c0.143,0.105,0.322,0.329,0.396,0.498
		l0.138,0.307l0.027-0.269c0.037-0.345-0.092-0.581-0.427-0.785C63.983,30.447,63.905,30.438,63.905,30.586 M72.813,30.639
		c-0.337,0.206-0.464,0.441-0.425,0.785c0.024,0.228,0.04,0.242,0.098,0.101c0.165-0.424,0.27-0.568,0.487-0.682
		c0.129-0.064,0.232-0.175,0.232-0.243C73.206,30.437,73.136,30.444,72.813,30.639 M65.816,30.853
		c-0.113,0.115,0.035,0.284,0.294,0.339c0.486,0.101,0.938,0.427,1.152,0.831c0.245,0.459,0.917,0.617,0.75,0.174
		c-0.37-0.97-0.781-1.324-1.585-1.371C66.124,30.81,65.849,30.822,65.816,30.853 M70.189,30.873
		c-0.435,0.163-0.869,0.674-1.07,1.259l-0.095,0.272h0.321c0.272,0,0.336-0.036,0.419-0.235c0.197-0.478,0.675-0.854,1.234-0.974
		c0.255-0.056,0.408-0.227,0.303-0.334C71.239,30.798,70.362,30.808,70.189,30.873 M66.849,32.682
		c-0.168,0.205-0.009,0.224,1.769,0.224c1.622,0,1.75-0.01,1.723-0.146C70.303,32.562,67.011,32.488,66.849,32.682 M66.922,33.274
		c0,0.192,0.201,0.219,1.634,0.219s1.634-0.027,1.634-0.219c0-0.096-0.294-0.116-1.634-0.116
		C67.215,33.158,66.922,33.178,66.922,33.274 M64.496,33.811c-0.091,0.34-0.44,0.714-0.95,1.018
		c-1.452,0.867-0.329,3.48,1.495,3.477c1.743-0.002,2.877-1.538,3.167-4.289l0.037-0.355h-0.353H67.54L67.43,34.1
		c-0.161,0.645-0.559,1.445-0.839,1.68c-0.74,0.623-1.677,0.175-1.432-0.683c0.232-0.805,0.217-0.987-0.106-1.31
		C64.681,33.416,64.602,33.418,64.496,33.811 M72.058,33.787c-0.323,0.323-0.337,0.505-0.106,1.31
		c0.249,0.868-0.691,1.305-1.443,0.672c-0.302-0.253-0.691-1.033-0.831-1.665l-0.1-0.443h-0.356h-0.355l0.037,0.355
		c0.291,2.75,1.422,4.281,3.167,4.292c1.856,0.011,2.936-2.638,1.433-3.519c-0.468-0.274-0.85-0.704-0.922-1.039
		C72.506,33.42,72.418,33.426,72.058,33.787 M68.389,34.31c-0.096,0.892-0.348,1.757-0.765,2.615
		c-0.699,1.443-0.704,1.462-0.695,2.836c0.011,1.687,0.062,1.802,0.704,1.583c0.158-0.053,0.166-0.025,0.139,0.453
		c-0.044,0.761,0.035,1.027,0.434,1.464l0.356,0.396l0.348-0.398c0.385-0.438,0.491-0.83,0.421-1.56
		c-0.038-0.394-0.03-0.413,0.137-0.356c0.659,0.222,0.742,0.007,0.704-1.816l-0.025-1.216l-0.486-1.005
		c-0.556-1.144-0.855-2.094-0.942-2.963C68.641,33.552,68.472,33.535,68.389,34.31 M62.502,51.066
		c0.127,0.021,0.316,0.017,0.419-0.002c0.104-0.02-0.001-0.034-0.231-0.034C62.46,51.031,62.375,51.047,62.502,51.066
		 M62.124,51.568c0.104,0.02,0.274,0.02,0.377,0c0.104-0.02,0.019-0.037-0.188-0.037C62.106,51.531,62.021,51.549,62.124,51.568
		 M57.285,54.483c-0.204,0.208-0.351,0.378-0.328,0.378c0.024,0,0.208-0.17,0.412-0.378c0.204-0.208,0.352-0.377,0.329-0.377
		C57.675,54.106,57.489,54.275,57.285,54.483 M49.492,55.992c0.156,0.16,0.305,0.293,0.326,0.293c0.022,0-0.086-0.133-0.242-0.293
		c-0.157-0.161-0.303-0.294-0.326-0.294C49.226,55.698,49.335,55.831,49.492,55.992 M59.736,60.448c0.081,0.021,0.213,0.021,0.293,0
		c0.082-0.021,0.014-0.037-0.146-0.037C59.721,60.411,59.656,60.428,59.736,60.448 M52.508,60.936
		c-0.204,0.209-0.352,0.377-0.327,0.377c0.021,0,0.208-0.168,0.411-0.377c0.204-0.207,0.352-0.378,0.329-0.378
		C52.896,60.558,52.712,60.729,52.508,60.936 M45.24,61.206c0.126,0.018,0.334,0.018,0.46,0c0.127-0.02,0.022-0.035-0.23-0.035
		C45.215,61.171,45.112,61.187,45.24,61.206 M92.014,63.095l-0.247,0.272l0.274-0.247c0.148-0.134,0.272-0.257,0.272-0.274
		C92.313,62.782,92.244,62.84,92.014,63.095 M74.583,63.596l-0.245,0.272l0.273-0.246c0.147-0.135,0.271-0.257,0.271-0.271
		C74.883,63.285,74.812,63.343,74.583,63.596 M94.94,63.954c0,0.367,0.014,0.508,0.031,0.311c0.017-0.197,0.017-0.497,0-0.67
		C94.953,63.424,94.939,63.583,94.94,63.954 M44.569,64.304c0.08,0.021,0.212,0.021,0.292,0c0.082-0.021,0.016-0.038-0.145-0.038
		C44.555,64.266,44.487,64.282,44.569,64.304 M45.282,64.306c0.104,0.019,0.256,0.019,0.335-0.002
		c0.08-0.021-0.005-0.038-0.189-0.035C45.243,64.27,45.177,64.285,45.282,64.306 M54.038,64.556c0.082,0.02,0.213,0.02,0.293,0
		c0.081-0.021,0.015-0.038-0.146-0.038C54.024,64.518,53.958,64.534,54.038,64.556 M58.019,64.808c0.103,0.02,0.273,0.02,0.376,0
		c0.104-0.021,0.02-0.036-0.188-0.036C57.999,64.771,57.915,64.787,58.019,64.808 M68.285,64.808c0.126,0.021,0.315,0.02,0.417,0
		c0.105-0.021,0-0.035-0.23-0.035C68.241,64.772,68.159,64.79,68.285,64.808 M72.601,64.808c0.104,0.021,0.254,0.02,0.335-0.002
		c0.08-0.021-0.007-0.037-0.189-0.036C72.561,64.771,72.496,64.787,72.601,64.808 M78.298,64.808
		c0.104,0.021,0.255,0.02,0.335-0.002c0.082-0.021-0.006-0.037-0.188-0.036C78.26,64.771,78.195,64.787,78.298,64.808"/>
</g>
</svg>
