<?xml version="1.0" encoding="utf-8"?>
<!-- Generator: Adobe Illustrator 16.0.0, SVG Export Plug-In . SVG Version: 6.00 Build 0)  -->
<!DOCTYPE svg PUBLIC "-//W3C//DTD SVG 1.1//EN" "http://www.w3.org/Graphics/SVG/1.1/DTD/svg11.dtd">
<svg version="1.1" id="Layer_1" xmlns="http://www.w3.org/2000/svg" xmlns:xlink="http://www.w3.org/1999/xlink" x="0px" y="0px"
	 width="137px" height="77px" viewBox="0 0 137 77" enable-background="new 0 0 137 77" xml:space="preserve">
<g transform="translate(0.000000,1181.000000) scale(0.100000,-0.100000)">
	<path fill="#293d68" d="M636.333,11707.313c-75.703-7.012-138.091-28.745-196.025-68.115c-25.469-17.402-54.448-44.98-73.364-69.863
		c-47.441-62.5-67.881-146.611-51.641-211.807c9.927-39.941,29.092-73.828,59.351-105.137
		c55.249-57.129,140.303-96.27,233.643-107.598c21.26-2.578,34.824-3.145,61.689-2.578c43.257,0.84,70.923,5.381,110.063,18.35
		c54.785,17.998,99.873,45.811,139.258,85.986c15.43,15.771,22.432,24.297,34.453,42.051
		c26.064,38.438,40.078,76.992,43.457,119.629c3.047,37.622-5.586,75.469-23.477,102.217c-5.127,7.598-10.176,13.442-11.68,13.442
		c-1.865,0-0.938-3.379,2.109-7.827c4.082-6.079,11.348-21.494,14.238-30.728c11.797-36.104,8.652-78.267-8.75-117.163
		c-17.285-38.789-52.568-78.398-93.809-105.156c-45.098-29.316-98.828-47.656-160.059-54.668
		c-23.125-2.568-71.724-3.848-87.642-2.227c-5.488,0.596-12.49,1.289-15.762,1.641c-38.784,4.102-79.097,15.879-115.649,33.877
		c-76.401,37.627-123.613,93.223-135.059,158.994c-3.149,17.881-2.568,45.571,1.284,65.43
		c6.655,34.111,22.544,70.566,43.584,100.474c51.982,73.594,133.53,118.569,230.371,126.748c20.098,1.646,71.743,1.401,92.905-0.581
		c44.736-4.082,100.928-17.759,137.979-33.525c22.656-9.692,19.375-4.209-4.805,8.291c-24.307,12.622-44.16,19.741-75.938,27.568
		c-35.391,8.652-65.996,12.275-109.233,12.852C660.513,11708.129,641.841,11707.89,636.333,11707.313z"/>
	<path fill="#293d68" d="M491.475,11570.268c-11.689-2.798-18.696-8.413-23.599-18.916c-2.563-5.615-2.695-7.363-3.047-37.271
		c-0.581-50.942,0.122-53.037,28.042-78.623c11.216-10.396,19.868-19.16,21.27-21.963c2.217-4.209,2.446-7.002,2.798-29.561
		l0.352-24.746l-3.501-3.516c-3.74-3.74-8.76-4.551-13.32-2.109c-5.142,2.695-5.371,3.848-5.493,29.199v24.18l-14.839-0.215
		l-14.956-0.234l-0.352-28.154c-0.352-26.631-0.229-28.525,2.231-35.049c3.501-9.473,13.076-19.395,21.968-22.91
		c5.015-1.973,8.994-2.568,17.046-2.568c14.609,0,22.085,2.471,30.024,9.697c9.824,9.004,10.283,11.113,11.099,49.766
		c0.708,34.473,0.234,40.186-4.434,52.578c-2.808,7.471-6.543,11.67-30.605,33.638c-6.899,6.426-13.442,13.198-14.609,15.186
		c-1.631,3.164-1.992,7.827-2.344,27.93l-0.469,24.18l3.047,3.037c3.857,3.853,10.977,4.087,15.195,0.342l3.027-2.676l0.122-22.437
		l0.107-22.549h15.073h15.073v28.394c0,27.227-0.117,28.506-2.798,34.106c-3.506,7.48-11.226,15.078-19.399,18.931
		C516.47,11571.557,501.641,11572.602,491.475,11570.268z"/>
	<path fill="#293d68" d="M731.689,11552.167c-0.352-0.586-0.596-9.111-0.596-19.048c0-9.932,0-19.395-0.107-21.143c0-3.267-0.117-3.267-7.598-3.267
		h-7.598v-15.195v-15.186h7.598c7.48,0,7.598,0,7.598-3.159c0-1.87,0.107-37.378,0.352-79.204l0.225-75.938l14.375-0.352
		l14.238-0.352v79.57v79.434h12.861h12.861v15.186v15.195h-12.861h-12.861v22.197v22.197h-13.896
		C738.574,11553.104,732.041,11552.641,731.689,11552.167z"/>
	<path fill="#293d68" d="M892.783,11530.082c-6.064-1.631-11.094-8.296-11.094-14.956c0-14.717,19.502-20.444,27.676-8.057
		c4.102,6.196,1.758,16.699-4.668,20.796C901.67,11529.848,895.928,11530.907,892.783,11530.082z M902.021,11526.107
		c1.631-0.815,3.838-3.262,4.902-5.488c1.523-3.389,1.631-4.79,0.586-8.521c-4.551-15.073-24.434-9.941-21.953,5.718
		C886.826,11525.644,894.424,11529.506,902.021,11526.107z"/>
	<path fill="#293d68" d="M891.045,11515.126c0-6.89,0.352-8.75,1.738-8.75c1.064,0,1.523,1.045,1.406,3.149c-0.342,4.321,2.207,4.673,4.434,0.459
		c0.957-1.982,2.695-3.608,3.613-3.608c1.523,0,1.416,0.571-0.566,3.843c-2.324,3.745-2.324,3.862-0.117,5.259
		c2.568,1.636,3.027,4.912,0.938,7.017c-0.82,0.815-3.613,1.396-6.426,1.396h-5.02V11515.126z M900.156,11518.979
		c0.576-3.149-5.146-2.798-5.967,0.361c-0.586,1.982-0.107,2.334,2.461,1.982C898.525,11521.083,899.912,11520.16,900.156,11518.979
		z"/>
	<path fill="#293d68" d="M825.039,11512.914c-7.959-1.992-16.709-6.66-21.289-11.46c-6.514-6.772-7.344-10.386-7.344-31.299v-18.691h14.492h14.482
		l0.469,14.722c0.342,16.353,1.172,17.988,8.516,17.988c5.957,0,7.617-2.803,7.617-13.672c0-12.148-1.064-13.794-20.801-30.259
		c-8.535-7.012-16.836-14.839-18.457-17.178c-6.094-8.975-6.318-11.221-6.318-50.811c0-35.166,0.117-36.924,2.461-40.645
		c3.262-5.391,7.686-8.301,15.518-10.293c8.066-2.1,14.629-1.162,22.207,3.271l5.244,3.037l0.361-3.73l0.352-3.867h14.609h14.609
		l0.332,84.004l0.244,83.989l-2.803,6.074C863.125,11508.124,841.982,11517.113,825.039,11512.914z M840.098,11353.095
		c-2.686-2.812-9.111-2.812-12.148,0.234c-2.227,2.217-2.334,3.848-2.334,27.812c0,28.73-0.361,27.559,9.697,35.508l6.074,4.79
		l0.342-33.052C841.982,11358.827,841.836,11355.077,840.098,11353.095z"/>
	<path fill="#293d68" d="M587.852,11512.328c-9.932-2.573-18.921-9.233-23.12-17.061c-2.578-4.663-2.578-5.132-2.578-77.681
		c0-57.363,0.352-74.062,1.514-78.164c2.344-7.598,12.046-16.934,20.22-19.268c18.579-5.615,37.622-1.748,46.841,9.229
		c5.605,6.543,6.777,12.852,6.777,34.463v19.854h-14.6h-14.609v-12.148c0-12.725-1.045-17.52-4.424-20.088
		c-3.047-2.334-5.85-2.002-9.009,1.279c-2.915,2.803-2.915,2.803-2.915,28.047v25.117h22.783h22.773v41.812
		c0,38.086-0.234,42.065-2.207,46.377c-5.166,11.221-18.242,18.345-34.004,18.936
		C595.806,11513.144,589.844,11512.914,587.852,11512.328z M605.493,11477.04c1.992-2.212,2.227-4.678,2.578-21.611l0.352-19.16
		h-8.184h-8.291v19.512c0,16.47,0.352,19.741,1.982,21.611C596.499,11480.312,602.7,11480.082,605.493,11477.04z"/>
	<path fill="#293d68" d="M651.548,11414.667v-95.225h15.176h15.186v72.334c0,48.115,0.459,73.359,1.279,75.806c1.416,3.965,8.657,9.57,12.397,9.57
		c6.064,0,6.182,0.361,6.182,16.479v15.078h-4.551c-2.441,0-6.768-1.289-9.927-2.925l-5.381-2.808v3.398v3.496h-15.186h-15.176
		V11414.667z"/>
	<path fill="#293d68" d="M939.404,11245.272c-0.469-1.064-0.586-10.762-0.234-21.504c0.586-21.611,1.865-26.279,8.281-30.957
		c4.219-3.154,14.277-3.271,18.809-0.342c6.328,4.199,7.129,7.588,7.48,31.895l0.352,22.422h-2.91h-3.047v-18.34
		c-0.107-26.875-1.523-31.084-11.094-31.084c-3.848,0-5.83,0.713-7.832,2.695c-2.568,2.451-2.676,3.73-3.281,24.521
		c-0.566,21.621-0.566,21.855-3.262,22.207C941.143,11247.011,939.756,11246.435,939.404,11245.272z"/>
	<path fill="#293d68" d="M990.107,11245.146c-8.887-4.795-8.887-20.908,0-25.342c1.738-0.938,5.957-2.588,9.463-3.74
		c7.471-2.461,10.615-5.264,10.615-9.688c0-4.688-2.891-8.184-7.578-9.121c-7.363-1.299-14.6,3.496-14.6,9.805
		c0,2.334-0.469,2.676-3.154,2.334c-2.93-0.342-3.291-0.811-2.793-3.838c1.387-11.934,12.949-18.584,24.414-14.023
		c6.406,2.559,9.57,7.715,9.57,15.527c0,8.418-3.975,12.852-15.068,16.367c-9.463,3.037-11.807,4.902-11.807,9.453
		c0,7.705,11.807,10.625,17.168,4.326c1.523-1.738,2.695-3.975,2.695-4.902c0-0.938,1.152-1.631,3.037-1.631
		c2.92,0,3.037,0.225,2.451,4.434c-0.469,2.91-2.1,5.605-4.902,8.164c-3.506,3.281-4.922,3.74-10.156,3.74
		C996.064,11246.903,991.846,11246.2,990.107,11245.146z"/>
	<path fill="#293d68" d="M1034.834,11243.046c-4.199-13.311-15.293-50.703-15.293-51.396c0-0.469,1.406-0.723,3.154-0.469
		c2.686,0.352,3.262,1.289,5.137,7.598c1.064,3.965,2.227,7.598,2.588,8.164c0.352,0.469,4.541,0.82,9.336,0.586l8.633-0.342
		l2.344-7.842c2.227-7.227,2.578-7.812,5.967-8.164l3.506-0.352l-3.984,12.598c-13.184,41.719-13.652,43.008-17.051,43.125
		C1036.592,11246.669,1035.771,11245.966,1034.834,11243.046z M1042.783,11225.751l3.281-10.859l-6.309-0.352
		c-3.633-0.234-6.67-0.234-6.895,0c-0.234,0.234,1.055,5.488,2.793,11.68c1.777,6.191,3.281,11.113,3.516,10.879
		S1041.045,11231.835,1042.783,11225.751z"/>
</g>
</svg>
